<svg width="137" height="168" viewBox="0 0 137 168" fill="none" xmlns="http://www.w3.org/2000/svg">
<path d="M59.595 70.8894L60.1381 72.0842L61.3329 72.6274L87.2085 84.389L61.3329 96.1506L60.1381 96.6937L59.595 97.8886L47.8333 123.764L36.0717 97.8886L35.5286 96.6937L34.3337 96.1506L8.45813 84.389L34.3337 72.6274L35.5286 72.0842L36.0717 70.8894L47.8333 45.0138L59.595 70.8894Z" stroke="white" stroke-width="7"/>
<path d="M94.1787 13.1867L94.4115 13.6988L94.9236 13.9315L104.485 18.2778L94.9236 22.624L94.4115 22.8568L94.1787 23.3689L89.8325 32.9306L85.4862 23.3689L85.2534 22.8568L84.7414 22.624L75.1796 18.2778L84.7414 13.9315L85.2534 13.6988L85.4862 13.1867L89.8325 3.62491L94.1787 13.1867Z" stroke="white" stroke-width="3"/>
<path d="M114.829 131.264L115.217 132.117L116.07 132.505L130.848 139.222L116.07 145.939L115.217 146.327L114.829 147.181L108.112 161.958L101.395 147.181L101.007 146.327L100.153 145.939L85.3755 139.222L100.153 132.505L101.007 132.117L101.395 131.264L108.112 116.486L114.829 131.264Z" stroke="white" stroke-width="5"/>
</svg>
