<?xml version="1.0" encoding="UTF-8" standalone="no"?>
<svg
   width="27.338472"
   height="30"
   viewBox="0 0 27.338472 30"
   fill="none"
   version="1.1"
   id="svg4"
   sodipodi:docname="github.svg"
   inkscape:version="1.2.2 (b0a8486541, 2022-12-01)"
   xmlns:inkscape="http://www.inkscape.org/namespaces/inkscape"
   xmlns:sodipodi="http://sodipodi.sourceforge.net/DTD/sodipodi-0.dtd"
   xmlns="http://www.w3.org/2000/svg"
   xmlns:svg="http://www.w3.org/2000/svg">
  <defs
     id="defs8" />
  <sodipodi:namedview
     id="namedview6"
     pagecolor="#ffffff"
     bordercolor="#666666"
     borderopacity="1.0"
     inkscape:showpageshadow="2"
     inkscape:pageopacity="0.0"
     inkscape:pagecheckerboard="0"
     inkscape:deskcolor="#d1d1d1"
     showgrid="false"
     inkscape:zoom="5.2444444"
     inkscape:cx="3.4322034"
     inkscape:cy="22.595339"
     inkscape:window-width="1890"
     inkscape:window-height="1030"
     inkscape:window-x="15"
     inkscape:window-y="15"
     inkscape:window-maximized="1"
     inkscape:current-layer="svg4" />
  <path
     d="M 13.670071,9.6116695e-4 C 6.1182151,9.6116695e-4 0,6.8897353 0,15.379804 c 0,6.798402 3.9164745,12.560671 9.3443361,14.593538 0.6860669,0.145133 0.9338669,-0.330667 0.9338669,-0.742 0,-0.365267 -0.0077,-1.331267 -0.0128,-2.613468 -3.8045811,0.926601 -4.6059947,-2.067467 -4.6059947,-2.067467 -0.6228402,-1.7724 -1.5216471,-2.248201 -1.5216471,-2.248201 -1.2371404,-0.9506 0.098253,-0.930466 0.098253,-0.930466 1.370427,0.1048 2.0915206,1.5812 2.0915206,1.5812 1.2192003,2.352934 3.1988009,1.6724 3.9822682,1.2764 0.1196,-0.990933 0.475867,-1.672467 0.8638,-2.052067 -3.034801,-0.385467 -6.2258886,-1.707067 -6.2258886,-7.600069 0,-1.683 0.5297135,-3.053667 1.4054537,-4.130201 -0.1512267,-0.3854 -0.6143002,-1.9521339 0.1204667,-4.0705545 0,0 1.1440337,-0.4104201 3.7593012,1.5772871 1.094401,-0.3412001 2.256401,-0.5113334 3.417468,-0.5200001 1.162,0.00867 2.323067,0.1797334 3.417534,0.5200001 2.599868,-1.9877072 3.743068,-1.5772871 3.743068,-1.5772871 0.733867,2.1184206 0.2708,3.6842215 0.137533,4.0705545 0.867201,1.076534 1.396934,2.448134 1.396934,4.130201 0,5.906469 -3.195401,7.208869 -6.233602,7.584669 0.475067,0.4604 0.920201,1.407134 0.920201,2.844134 0,2.056868 -0.01707,3.713935 -0.01707,4.214735 0,0.399867 0.2392,0.880467 0.9432,0.725667 5.468002,-2.011734 9.38027,-7.778803 9.38027,-14.567605 C 27.338475,6.8887353 21.220206,0 13.668337,0 Z"
     fill="#666666"
     id="path2"
     style="stroke-width:0.666667" />
</svg>
