<?xml version="1.0" encoding="UTF-8" standalone="no"?>
<svg
   width="473"
   height="489"
   viewBox="0 0 473 489"
   fill="none"
   version="1.1"
   id="svg1391"
   sodipodi:docname="Group 59.svg"
   inkscape:version="1.2.2 (b0a8486541, 2022-12-01)"
   xmlns:inkscape="http://www.inkscape.org/namespaces/inkscape"
   xmlns:sodipodi="http://sodipodi.sourceforge.net/DTD/sodipodi-0.dtd"
   xmlns="http://www.w3.org/2000/svg"
   xmlns:svg="http://www.w3.org/2000/svg">
  <sodipodi:namedview
     id="namedview1393"
     pagecolor="#ffffff"
     bordercolor="#666666"
     borderopacity="1.0"
     inkscape:showpageshadow="2"
     inkscape:pageopacity="0.0"
     inkscape:pagecheckerboard="0"
     inkscape:deskcolor="#d1d1d1"
     showgrid="false"
     inkscape:zoom="2.1443493"
     inkscape:cx="283.53589"
     inkscape:cy="213.81777"
     inkscape:window-width="1890"
     inkscape:window-height="1030"
     inkscape:window-x="15"
     inkscape:window-y="15"
     inkscape:window-maximized="1"
     inkscape:current-layer="svg1391" />
  <path
     d="M303.425 245.533C342.926 245.459 382.408 243.977 421.908 243.899C423.45 243.895 426.779 241.547 423.729 241.55C384.229 241.625 344.747 243.106 305.246 243.188C303.705 243.188 300.372 245.537 303.425 245.533Z"
     fill="url(#paint0_linear_88_1190)"
     fill-opacity="0.5"
     id="path2" />
  <path
     d="M441.106 243.847C450.712 243.847 460.319 243.847 469.925 243.847C471.403 243.847 474.822 241.603 471.776 241.603C462.17 241.603 452.563 241.603 442.957 241.603C441.483 241.603 438.064 243.847 441.106 243.847Z"
     fill="url(#paint1_linear_88_1190)"
     fill-opacity="0.5"
     id="path4" />
  <path
     d="M288.156 238.922C317.353 235.246 346.411 230.598 375.607 226.926C377.694 226.664 379.448 224.271 376.294 224.668C347.098 228.343 318.036 232.991 288.843 236.664C286.757 236.925 284.999 239.318 288.156 238.922Z"
     fill="url(#paint2_linear_88_1190)"
     fill-opacity="0.5"
     id="path6" />
  <path
     d="M389.797 225.12C396.899 224.245 404.001 223.37 411.103 222.495C413.141 222.244 414.985 219.963 411.82 220.356C404.717 221.227 397.615 222.102 390.513 222.977C388.475 223.227 386.631 225.508 389.797 225.12Z"
     fill="url(#paint3_linear_88_1190)"
     fill-opacity="0.5"
     id="path8" />
  <path
     d="M302.915 227.827C341.27 218.161 379.271 207.145 417.626 197.478C420.335 196.793 419.783 194.793 417.088 195.47C378.733 205.137 340.733 216.153 302.382 225.819C299.668 226.504 300.221 228.504 302.915 227.827Z"
     fill="url(#paint4_linear_88_1190)"
     fill-opacity="0.5"
     id="path10" />
  <path
     d="M436.273 192.752C445.603 190.422 454.937 188.089 464.267 185.759C466.969 185.082 466.447 183.201 463.764 183.871C454.43 186.204 445.1 188.537 435.769 190.867C433.067 191.544 433.59 193.425 436.273 192.752Z"
     fill="url(#paint5_linear_88_1190)"
     fill-opacity="0.5"
     id="path12" />
  <path
     d="M286.581 225.786C314.09 215.132 341.23 203.563 368.736 192.909C371.706 191.757 368.96 190.542 367.015 191.298C339.51 201.951 312.366 213.521 284.86 224.174C281.889 225.326 284.64 226.541 286.581 225.786Z"
     fill="url(#paint6_linear_88_1190)"
     fill-opacity="0.5"
     id="path14" />
  <path
     d="M382.112 187.704C388.808 185.127 395.503 182.555 402.198 179.982C405.18 178.834 402.404 177.757 400.508 178.486C393.812 181.059 387.117 183.635 380.422 186.208C377.44 187.356 380.212 188.433 382.112 187.704Z"
     fill="url(#paint7_linear_88_1190)"
     fill-opacity="0.5"
     id="path16" />
  <path
     d="M298.308 210.757C333.315 192.056 367.655 172.137 402.662 153.436C405.349 152 401.259 151.596 399.915 152.318C364.908 171.019 330.565 190.938 295.558 209.639C292.874 211.075 296.961 211.475 298.308 210.757Z"
     fill="url(#paint8_linear_88_1190)"
     fill-opacity="0.5"
     id="path18" />
  <path
     d="M419.689 144.323C428.21 139.791 436.73 135.263 445.251 130.73C447.934 129.306 443.817 129.033 442.534 129.717C434.009 134.249 425.489 138.778 416.969 143.31C414.285 144.735 418.402 145.007 419.689 144.323Z"
     fill="url(#paint9_linear_88_1190)"
     fill-opacity="0.5"
     id="path20" />
  <path
     d="M281.833 213.491C306.077 196.465 329.738 178.636 353.979 161.61C356.009 160.186 351.441 160.32 350.399 161.053C326.156 178.075 302.494 195.908 278.254 212.929C276.224 214.358 280.792 214.224 281.833 213.491Z"
     fill="url(#paint10_linear_88_1190)"
     fill-opacity="0.5"
     id="path22" />
  <path
     d="M365.776 153.32C371.68 149.195 377.584 145.07 383.488 140.946C384.258 140.407 383.999 139.727 383.134 139.611C382.033 139.466 380.828 139.843 379.932 140.47C374.028 144.595 368.124 148.72 362.219 152.844C361.454 153.378 361.708 154.063 362.574 154.179C363.675 154.325 364.88 153.944 365.776 153.32Z"
     fill="url(#paint11_linear_88_1190)"
     fill-opacity="0.5"
     id="path24" />
  <path
     d="M289.297 195.717C318.948 169.055 347.667 141.369 377.318 114.707C379.214 113.002 374.717 113.268 373.739 114.146C344.084 140.812 315.369 168.495 285.717 195.16C283.818 196.865 288.319 196.599 289.297 195.717Z"
     fill="url(#paint12_linear_88_1190)"
     fill-opacity="0.5"
     id="path26" />
  <path
     d="M391.751 101.727C398.976 95.2582 406.198 88.7891 413.42 82.32C415.289 80.6447 410.792 81.0149 409.863 81.8451C402.641 88.3143 395.416 94.7834 388.194 101.253C386.325 102.928 390.822 102.557 391.751 101.727Z"
     fill="url(#paint13_linear_88_1190)"
     fill-opacity="0.5"
     id="path28" />
  <path
     d="M273.876 203.136C293.466 180.719 312.295 157.65 331.881 135.233C333.083 133.857 328.574 134.268 327.701 135.275C308.115 157.693 289.286 180.761 269.696 203.179C268.495 204.555 273.003 204.143 273.876 203.136Z"
     fill="url(#paint14_linear_88_1190)"
     fill-opacity="0.5"
     id="path30" />
  <path
     d="M341.426 124.325C346.199 118.884 350.972 113.443 355.749 108.002C356.903 106.686 352.424 107.143 351.584 108.108C346.811 113.545 342.034 118.986 337.261 124.427C336.104 125.743 340.582 125.28 341.426 124.325Z"
     fill="url(#paint15_linear_88_1190)"
     fill-opacity="0.5"
     id="path32" />
  <path
     d="M277.008 183.37C299.605 150.272 321.054 116.412 343.652 83.315C344.742 81.7147 340.226 82.2456 339.472 83.3574C316.874 116.451 295.426 150.315 272.828 183.412C271.738 185.009 276.254 184.482 277.008 183.37Z"
     fill="url(#paint16_linear_88_1190)"
     fill-opacity="0.5"
     id="path34" />
  <path
     d="M354.662 67.2097C360.171 59.1738 365.683 51.1379 371.192 43.1019C372.24 41.5688 367.751 42.1447 367.027 43.1973C361.518 51.2332 356.009 59.2692 350.497 67.309C349.449 68.8383 353.938 68.2686 354.662 67.2097Z"
     fill="url(#paint17_linear_88_1190)"
     fill-opacity="0.5"
     id="path36" />
  <path
     d="M263.684 195.074C277.482 168.539 290.417 141.571 304.219 115.036C304.798 113.918 300.401 114.344 299.71 115.675C285.909 142.206 272.974 169.178 259.176 195.713C258.594 196.831 262.99 196.405 263.684 195.074Z"
     fill="url(#paint18_linear_88_1190)"
     fill-opacity="0.5"
     id="path38" />
  <path
     d="M310.955 102.135C314.329 95.692 317.699 89.2491 321.073 82.8062C321.61 81.778 317.247 82.185 316.572 83.475C313.202 89.918 309.828 96.361 306.458 102.804C305.92 103.832 310.28 103.425 310.955 102.135Z"
     fill="url(#paint19_linear_88_1190)"
     fill-opacity="0.5"
     id="path40" />
  <path
     d="M262.139 174.417C276.385 136.788 289.339 98.6871 303.581 61.0539C304.081 59.7413 299.602 60.3024 299.072 61.6931C284.831 99.3227 271.876 137.427 257.631 175.056C257.135 176.369 261.613 175.812 262.139 174.417Z"
     fill="url(#paint20_linear_88_1190)"
     fill-opacity="0.5"
     id="path42" />
  <path
     d="M310.542 42.7542C314.02 33.6077 317.502 24.4649 320.984 15.3221C321.446 14.1031 316.995 14.6522 316.483 15.991C313.005 25.1376 309.523 34.2804 306.041 43.4232C305.579 44.6423 310.03 44.094 310.542 42.7542Z"
     fill="url(#paint21_linear_88_1190)"
     fill-opacity="0.5"
     id="path44" />
  <path
     d="M251.813 190.048C259.042 160.929 265.331 131.586 272.556 102.464C272.926 100.979 268.399 101.693 268.048 103.103C260.823 132.225 254.534 161.565 247.309 190.687C246.939 192.172 251.466 191.458 251.813 190.048Z"
     fill="url(#paint22_linear_88_1190)"
     fill-opacity="0.5"
     id="path46" />
  <path
     d="M276.104 88.2955C277.877 81.2205 279.654 74.1418 281.43 67.067C281.777 65.6759 277.269 66.3865 276.929 67.7358C275.153 74.8145 273.38 81.8894 271.604 88.9681C271.257 90.3554 275.765 89.6491 276.104 88.2955Z"
     fill="url(#paint23_linear_88_1190)"
     fill-opacity="0.5"
     id="path48" />
  <path
     d="M245.523 169.669C250.598 129.661 254.316 89.4999 259.391 49.4922C259.597 47.8731 255.058 48.7439 254.883 50.1314C249.807 90.1391 246.09 130.3 241.014 170.308C240.809 171.927 245.347 171.055 245.523 169.669Z"
     fill="url(#paint24_linear_88_1190)"
     fill-opacity="0.5"
     id="path50" />
  <path
     d="M261.893 30.0246C263.148 20.2984 264.398 10.5723 265.652 0.842422C265.85 -0.683213 261.322 0.195826 261.154 1.51551C259.901 11.2417 258.647 20.9678 257.393 30.694C257.199 32.2196 261.722 31.3443 261.893 30.0246Z"
     fill="url(#paint25_linear_88_1190)"
     fill-opacity="0.5"
     id="path52" />
  <path
     d="M239.124 187.76C239.366 157.721 238.646 127.69 238.889 97.6519C238.896 96.4477 234.373 97.2364 234.362 98.8672C234.12 128.906 234.84 158.937 234.597 188.975C234.589 190.179 239.113 189.391 239.124 187.76Z"
     fill="url(#paint26_linear_88_1190)"
     fill-opacity="0.5"
     id="path54" />
  <path
     d="M239.04 83.042C239.114 75.739 239.193 68.4322 239.272 61.1291C239.282 60.0186 234.763 60.7741 234.745 62.3445C234.671 69.6475 234.591 76.9543 234.513 84.2572C234.502 85.3679 239.025 84.6123 239.04 83.042Z"
     fill="url(#paint27_linear_88_1190)"
     fill-opacity="0.5"
     id="path56" />
  <path
     d="M169.575 243.188C130.075 243.104 90.5928 241.629 51.0921 241.55C49.547 241.547 46.2218 243.891 49.2709 243.899C88.7715 243.973 128.254 245.454 167.754 245.533C169.299 245.537 172.628 243.192 169.575 243.188Z"
     fill="url(#paint28_linear_88_1190)"
     fill-opacity="0.5"
     id="path58" />
  <path
     d="M31.8941 241.603C22.2877 241.603 12.6775 241.603 3.07106 241.603C1.59688 241.603 -1.82169 243.847 1.22371 243.847C10.8302 243.847 20.4366 243.847 30.0431 243.847C31.5173 243.847 34.9358 241.603 31.8941 241.603Z"
     fill="url(#paint29_linear_88_1190)"
     fill-opacity="0.5"
     id="path60" />
  <path
     d="M185.909 236.652C156.713 232.98 127.655 228.332 98.4585 224.66C97.1784 224.499 93.1514 226.623 95.637 226.938C124.833 230.61 153.891 235.258 183.088 238.93C184.368 239.091 188.395 236.967 185.909 236.652Z"
     fill="url(#paint30_linear_88_1190)"
     fill-opacity="0.5"
     id="path62" />
  <path
     d="M84.2687 222.951C77.1665 222.077 70.0643 221.205 62.9621 220.33C61.7492 220.181 57.67 222.218 60.1183 222.521C67.2205 223.396 74.3226 224.271 81.4248 225.146C82.6378 225.296 86.7169 223.254 84.2687 222.951Z"
     fill="url(#paint31_linear_88_1190)"
     fill-opacity="0.5"
     id="path64" />
  <path
     d="M171.76 225.684C133.409 216.018 95.4083 205.002 57.0534 195.335C55.7695 195.01 51.7463 196.988 54.2319 197.613C92.5868 207.279 130.583 218.295 168.938 227.961C170.226 228.287 174.249 226.312 171.76 225.684Z"
     fill="url(#paint32_linear_88_1190)"
     fill-opacity="0.5"
     id="path66" />
  <path
     d="M38.8051 190.811C29.4748 188.478 20.1446 186.148 10.8105 183.815C9.58642 183.508 5.54075 185.411 7.15675 185.815C16.487 188.149 25.821 190.478 35.1513 192.812C36.3754 193.118 40.4211 191.215 38.8051 190.811Z"
     fill="url(#paint33_linear_88_1190)"
     fill-opacity="0.5"
     id="path68" />
  <path
     d="M189.094 223.949C161.589 213.296 134.449 201.726 106.943 191.069C105.7 190.59 101.562 192.46 103.304 193.133C130.81 203.787 157.95 215.356 185.459 226.01C186.702 226.492 190.837 224.622 189.094 223.949Z"
     fill="url(#paint34_linear_88_1190)"
     fill-opacity="0.5"
     id="path70" />
  <path
     d="M93.5586 185.953C86.8632 183.381 80.1678 180.808 73.4724 178.235C72.2818 177.775 68.1504 179.592 69.8187 180.236C76.5141 182.808 83.2095 185.381 89.9049 187.954C91.0954 188.414 95.2269 186.596 93.5586 185.953Z"
     fill="url(#paint35_linear_88_1190)"
     fill-opacity="0.5"
     id="path72" />
  <path
     d="M177.886 209.168C142.879 190.467 108.54 170.544 73.5292 151.843C72.3536 151.214 68.1587 152.98 69.8904 153.907C104.901 172.608 139.24 192.527 174.248 211.228C175.427 211.86 179.622 210.095 177.886 209.168Z"
     fill="url(#paint36_linear_88_1190)"
     fill-opacity="0.5"
     id="path74" />
  <path
     d="M56.4961 142.816C47.9757 138.284 39.4553 133.755 30.9312 129.223C29.8078 128.624 25.6129 130.341 27.2774 131.224C35.7978 135.756 44.322 140.284 52.8424 144.816C53.9658 145.414 58.1607 143.698 56.4961 142.816Z"
     fill="url(#paint37_linear_88_1190)"
     fill-opacity="0.5"
     id="path76" />
  <path
     d="M195.065 212.357C170.825 195.332 147.16 177.502 122.92 160.481C121.695 159.617 117.62 161.431 118.699 162.186C142.939 179.208 166.6 197.041 190.844 214.062C192.068 214.922 196.144 213.113 195.065 212.357Z"
     fill="url(#paint38_linear_88_1190)"
     fill-opacity="0.5"
     id="path78" />
  <path
     d="M111.117 152.247C105.212 148.122 99.3081 143.998 93.4039 139.869C92.2171 139.04 88.179 140.849 89.1718 141.545C95.076 145.669 100.98 149.794 106.884 153.918C108.075 154.748 112.113 152.942 111.117 152.247Z"
     fill="url(#paint39_linear_88_1190)"
     fill-opacity="0.5"
     id="path80" />
  <path
     d="M187.601 194.584C157.949 167.922 129.235 140.236 99.5793 113.574C98.4821 112.587 94.276 114.308 95.3583 115.279C125.01 141.945 153.725 169.627 183.38 196.289C184.477 197.276 188.683 195.556 187.601 194.584Z"
     fill="url(#paint40_linear_88_1190)"
     fill-opacity="0.5"
     id="path82" />
  <path
     d="M85.1401 100.655C77.9185 94.1854 70.6969 87.7162 63.4715 81.2471C62.4153 80.3016 58.2316 82.0135 59.2393 82.9186C66.4647 89.3878 73.6863 95.8569 80.9079 102.326C81.9678 103.272 86.1515 101.555 85.1401 100.655Z"
     fill="url(#paint41_linear_88_1190)"
     fill-opacity="0.5"
     id="path84" />
  <path
     d="M203.322 202.302C183.736 179.884 164.907 156.816 145.321 134.399C144.377 133.322 140.063 134.918 141.096 136.104C160.683 158.521 179.511 181.59 199.101 204.007C200.041 205.088 204.359 203.488 203.322 202.302Z"
     fill="url(#paint42_linear_88_1190)"
     fill-opacity="0.5"
     id="path86" />
  <path
     d="M135.773 123.536C131 118.095 126.223 112.654 121.449 107.217C120.546 106.189 116.243 107.778 117.217 108.889C121.99 114.33 126.768 119.771 131.541 125.207C132.444 126.24 136.747 124.647 135.773 123.536Z"
     fill="url(#paint43_linear_88_1190)"
     fill-opacity="0.5"
     id="path88" />
  <path
     d="M200.189 182.536C177.595 149.438 156.147 115.574 133.549 82.4808C132.776 81.3477 128.383 82.8062 129.328 84.1859C151.922 117.283 173.37 151.143 195.968 184.241C196.74 185.37 201.133 183.912 200.189 182.536Z"
     fill="url(#paint44_linear_88_1190)"
     fill-opacity="0.5"
     id="path90" />
  <path
     d="M122.537 66.4241C117.024 58.3882 111.516 50.3485 106.007 42.3125C105.272 41.243 100.883 42.6867 101.775 43.9878C107.284 52.0237 112.792 60.0596 118.305 68.0956C119.04 69.1688 123.429 67.7257 122.537 66.4241Z"
     fill="url(#paint45_linear_88_1190)"
     fill-opacity="0.5"
     id="path92" />
  <path
     d="M213.833 194.786C200.031 168.251 187.096 141.283 173.298 114.748C172.556 113.32 168.189 114.844 168.771 115.964C182.569 142.498 195.504 169.467 209.306 196.001C210.049 197.43 214.415 195.906 213.833 194.786Z"
     fill="url(#paint46_linear_88_1190)"
     fill-opacity="0.5"
     id="path94" />
  <path
     d="M166.555 101.862C163.182 95.4195 159.811 88.9765 156.438 82.5335C155.725 81.165 151.369 82.7127 151.911 83.7489C155.284 90.1918 158.654 96.6348 162.028 103.078C162.741 104.446 167.097 102.899 166.555 101.862Z"
     fill="url(#paint47_linear_88_1190)"
     fill-opacity="0.5"
     id="path96" />
  <path
     d="M215.374 174.129C201.133 136.5 188.178 98.3956 173.933 60.7661C173.388 59.3227 168.917 60.6919 169.406 61.9814C183.651 99.6146 196.606 137.715 210.847 175.345C211.396 176.792 215.863 175.419 215.374 174.129Z"
     fill="url(#paint48_linear_88_1190)"
     fill-opacity="0.5"
     id="path98" />
  <path
     d="M166.974 42.4805C163.492 33.3377 160.01 24.1912 156.528 15.0483C156.006 13.6759 151.542 15.0558 152.001 16.2637C155.483 25.4064 158.965 34.5529 162.443 43.6957C162.97 45.0681 167.433 43.6883 166.974 42.4805Z"
     fill="url(#paint49_linear_88_1190)"
     fill-opacity="0.5"
     id="path100" />
  <path
     d="M225.704 189.76C218.474 160.642 212.19 131.299 204.96 102.177C204.609 100.763 200.075 101.952 200.433 103.392C207.663 132.514 213.947 161.857 221.177 190.976C221.528 192.389 226.062 191.2 225.704 189.76Z"
     fill="url(#paint50_linear_88_1190)"
     fill-opacity="0.5"
     id="path102" />
  <path
     d="M201.409 88.0223C199.633 80.9475 197.856 73.8688 196.08 66.7938C195.748 65.4589 191.213 66.6475 191.553 68.0092C193.329 75.0841 195.106 82.1627 196.882 89.2377C197.214 90.5726 201.749 89.384 201.409 88.0223Z"
     fill="url(#paint51_linear_88_1190)"
     fill-opacity="0.5"
     id="path104" />
  <path
     d="M231.992 169.381C226.916 129.373 223.203 89.2123 218.127 49.2046C217.956 47.8659 213.402 48.8686 213.6 50.4199C218.676 90.4276 222.389 130.589 227.465 170.596C227.636 171.935 232.19 170.932 231.992 169.381Z"
     fill="url(#paint52_linear_88_1190)"
     fill-opacity="0.5"
     id="path106" />
  <path
     d="M215.617 29.752C214.367 20.0258 213.113 10.2997 211.859 0.573476C211.698 -0.682923 207.141 0.307428 207.332 1.78875C208.586 11.515 209.836 21.2411 211.09 30.9673C211.251 32.2199 215.807 31.2322 215.617 29.752Z"
     fill="url(#paint53_linear_88_1190)"
     fill-opacity="0.5"
     id="path108" />
  <path
     d="M287.088 252.351C316.281 256.023 345.343 260.671 374.539 264.343C375.815 264.504 379.846 262.38 377.361 262.065C348.164 258.393 319.106 253.745 289.91 250.07C288.63 249.908 284.603 252.036 287.088 252.351Z"
     fill="url(#paint54_linear_88_1190)"
     fill-opacity="0.5"
     id="path110" />
  <path
     d="M388.733 266.048C395.835 266.922 402.937 267.798 410.039 268.673C411.252 268.822 415.332 266.781 412.883 266.481C405.781 265.607 398.679 264.731 391.577 263.856C390.364 263.707 386.285 265.749 388.733 266.048Z"
     fill="url(#paint55_linear_88_1190)"
     fill-opacity="0.5"
     id="path112" />
  <path
     d="M301.237 263.318C339.592 272.984 377.592 284 415.947 293.666C417.231 293.989 421.254 292.014 418.769 291.388C380.414 281.723 342.413 270.707 304.059 261.04C302.775 260.715 298.751 262.689 301.237 263.318Z"
     fill="url(#paint56_linear_88_1190)"
     fill-opacity="0.5"
     id="path114" />
  <path
     d="M434.193 298.191C443.523 300.524 452.853 302.854 462.187 305.188C463.411 305.494 467.453 303.591 465.841 303.187C456.511 300.854 447.177 298.52 437.846 296.19C436.622 295.885 432.577 297.788 434.193 298.191Z"
     fill="url(#paint57_linear_88_1190)"
     fill-opacity="0.5"
     id="path116" />
  <path
     d="M36.7266 294.194C27.3963 296.523 18.0623 298.858 8.73207 301.19C6.03003 301.863 6.55255 303.745 9.23588 303.074C18.5662 300.742 27.9002 298.412 37.2304 296.079C39.9325 295.406 39.4101 293.521 36.7266 294.194Z"
     fill="url(#paint58_linear_88_1190)"
     fill-opacity="0.5"
     id="path118" />
  <path
     d="M283.901 265.053C311.41 275.707 338.55 287.276 366.056 297.93C367.299 298.412 371.434 296.543 369.695 295.869C342.189 285.212 315.045 273.646 287.54 262.989C286.297 262.507 282.162 264.376 283.901 265.053Z"
     fill="url(#paint59_linear_88_1190)"
     fill-opacity="0.5"
     id="path120" />
  <path
     d="M379.439 303.048C386.135 305.622 392.83 308.195 399.525 310.767C400.716 311.227 404.847 309.41 403.179 308.767C396.484 306.193 389.788 303.621 383.093 301.044C381.902 300.589 377.767 302.405 379.439 303.048Z"
     fill="url(#paint60_linear_88_1190)"
     fill-opacity="0.5"
     id="path122" />
  <path
     d="M295.111 279.835C330.118 298.536 364.458 318.455 399.465 337.155C400.644 337.788 404.839 336.023 403.104 335.096C368.096 316.394 333.757 296.47 298.75 277.771C297.571 277.143 293.376 278.907 295.111 279.835Z"
     fill="url(#paint61_linear_88_1190)"
     fill-opacity="0.5"
     id="path124" />
  <path
     d="M416.505 346.187C425.025 350.718 433.546 355.246 442.066 359.779C443.193 360.373 447.388 358.661 445.723 357.775C437.199 353.246 428.679 348.714 420.159 344.186C419.035 343.587 414.837 345.3 416.505 346.187Z"
     fill="url(#paint62_linear_88_1190)"
     fill-opacity="0.5"
     id="path126" />
  <path
     d="M277.934 276.644C302.174 293.666 325.836 311.5 350.08 328.521C351.304 329.382 355.379 327.571 354.301 326.816C330.061 309.791 306.399 291.962 282.155 274.94C280.931 274.077 276.856 275.889 277.934 276.644Z"
     fill="url(#paint63_linear_88_1190)"
     fill-opacity="0.5"
     id="path128" />
  <path
     d="M361.883 336.755C367.787 340.88 373.691 345.005 379.595 349.128C380.782 349.959 384.82 348.153 383.828 347.458C377.923 343.332 372.019 339.209 366.111 335.084C364.924 334.25 360.886 336.059 361.883 336.755Z"
     fill="url(#paint64_linear_88_1190)"
     fill-opacity="0.5"
     id="path130" />
  <path
     d="M285.399 294.418C315.051 321.081 343.765 348.762 373.421 375.429C374.518 376.416 378.724 374.696 377.642 373.723C347.99 347.057 319.272 319.374 289.62 292.71C288.523 291.727 284.317 293.443 285.399 294.418Z"
     fill="url(#paint65_linear_88_1190)"
     fill-opacity="0.5"
     id="path132" />
  <path
     d="M387.859 388.348C395.081 394.816 402.303 401.286 409.528 407.755C410.584 408.702 414.768 406.986 413.757 406.08C406.535 399.615 399.313 393.145 392.092 386.676C391.032 385.726 386.848 387.442 387.859 388.348Z"
     fill="url(#paint66_linear_88_1190)"
     fill-opacity="0.5"
     id="path134" />
  <path
     d="M269.677 286.7C289.263 309.117 308.092 332.186 327.678 354.603C328.623 355.68 332.937 354.083 331.903 352.899C312.313 330.477 293.488 307.413 273.898 284.991C272.958 283.914 268.64 285.516 269.677 286.7Z"
     fill="url(#paint67_linear_88_1190)"
     fill-opacity="0.5"
     id="path136" />
  <path
     d="M337.224 365.467C341.997 370.908 346.774 376.345 351.548 381.785C352.451 382.814 356.754 381.22 355.78 380.113C351.003 374.674 346.229 369.232 341.456 363.791C340.553 362.763 336.25 364.356 337.224 365.467Z"
     fill="url(#paint68_linear_88_1190)"
     fill-opacity="0.5"
     id="path138" />
  <path
     d="M272.806 306.466C295.404 339.564 316.853 373.425 339.45 406.521C340.223 407.65 344.616 406.196 343.671 404.816C321.077 371.719 299.625 337.86 277.031 304.762C276.259 303.632 271.866 305.087 272.806 306.466Z"
     fill="url(#paint69_linear_88_1190)"
     fill-opacity="0.5"
     id="path140" />
  <path
     d="M350.464 422.578C355.976 430.614 361.485 438.65 366.994 446.69C367.729 447.759 372.118 446.316 371.226 445.014C365.717 436.978 360.205 428.943 354.696 420.908C353.961 419.834 349.572 421.277 350.464 422.578Z"
     fill="url(#paint70_linear_88_1190)"
     fill-opacity="0.5"
     id="path142" />
  <path
     d="M259.165 294.216C272.966 320.747 285.901 347.719 299.699 374.254C300.442 375.682 304.808 374.158 304.226 373.039C290.428 346.503 277.493 319.532 263.692 293.001C262.949 291.572 258.582 293.097 259.165 294.216Z"
     fill="url(#paint71_linear_88_1190)"
     fill-opacity="0.5"
     id="path144" />
  <path
     d="M306.442 387.14C309.816 393.583 313.186 400.026 316.557 406.468C317.273 407.834 321.629 406.286 321.087 405.253C317.713 398.81 314.343 392.368 310.97 385.925C310.253 384.556 305.901 386.104 306.442 387.14Z"
     fill="url(#paint72_linear_88_1190)"
     fill-opacity="0.5"
     id="path146" />
  <path
     d="M257.625 314.869C271.866 352.501 284.82 390.602 299.066 428.235C299.611 429.679 304.082 428.31 303.593 427.017C289.348 389.387 276.393 351.286 262.152 313.654C261.602 312.209 257.132 313.58 257.625 314.869Z"
     fill="url(#paint73_linear_88_1190)"
     fill-opacity="0.5"
     id="path148" />
  <path
     d="M306.024 446.522C309.506 455.665 312.988 464.807 316.47 473.954C316.993 475.326 321.457 473.947 320.998 472.739C317.515 463.592 314.033 454.45 310.551 445.306C310.029 443.93 305.565 445.31 306.024 446.522Z"
     fill="url(#paint74_linear_88_1190)"
     fill-opacity="0.5"
     id="path150" />
  <path
     d="M247.296 299.241C254.525 328.36 260.81 357.703 268.039 386.822C268.39 388.236 272.924 387.05 272.566 385.607C265.337 356.488 259.052 327.145 251.823 298.026C251.471 296.614 246.937 297.798 247.296 299.241Z"
     fill="url(#paint75_linear_88_1190)"
     fill-opacity="0.5"
     id="path152" />
  <path
     d="M271.589 400.976C273.366 408.054 275.142 415.128 276.915 422.207C277.252 423.542 281.786 422.353 281.442 420.992C279.669 413.913 277.893 406.839 276.116 399.761C275.784 398.425 271.25 399.614 271.589 400.976Z"
     fill="url(#paint76_linear_88_1190)"
     fill-opacity="0.5"
     id="path154" />
  <path
     d="M241.003 319.621C246.083 359.629 249.796 399.79 254.872 439.798C255.043 441.136 259.597 440.135 259.399 438.579C254.323 398.575 250.61 358.414 245.534 318.406C245.363 317.068 240.809 318.07 241.003 319.621Z"
     fill="url(#paint77_linear_88_1190)"
     fill-opacity="0.5"
     id="path156" />
  <path
     d="M257.382 459.251C258.632 468.976 259.886 478.703 261.14 488.428C261.301 489.681 265.858 488.694 265.667 487.213C264.413 477.487 263.16 467.76 261.909 458.035C261.745 456.782 257.192 457.769 257.382 459.251Z"
     fill="url(#paint78_linear_88_1190)"
     fill-opacity="0.5"
     id="path158" />
  <path
     d="M234.597 301.243C234.839 331.277 234.119 361.312 234.362 391.35C234.37 392.573 238.9 391.757 238.889 390.132C238.647 360.097 239.367 330.062 239.124 300.027C239.117 298.805 234.586 299.615 234.597 301.243Z"
     fill="url(#paint79_linear_88_1190)"
     fill-opacity="0.5"
     id="path160" />
  <path
     d="M234.513 405.96C234.587 413.264 234.666 420.57 234.745 427.873C234.755 429.007 239.29 428.217 239.272 426.658C239.198 419.355 239.118 412.048 239.04 404.745C239.03 403.609 234.498 404.401 234.513 405.96Z"
     fill="url(#paint80_linear_88_1190)"
     fill-opacity="0.5"
     id="path162" />
  <path
     d="M184.842 250.08C155.646 253.752 126.588 258.4 97.3917 262.076C95.3054 262.338 93.5513 264.731 96.705 264.331C125.901 260.659 154.959 256.011 184.156 252.339C186.242 252.077 187.996 249.684 184.842 250.08Z"
     fill="url(#paint81_linear_88_1190)"
     fill-opacity="0.5"
     id="path164" />
  <path
     d="M83.2034 263.883C76.1012 264.757 68.999 265.633 61.8968 266.508C59.859 266.758 58.0154 269.036 61.1803 268.647C68.2825 267.772 75.3847 266.897 82.4869 266.025C84.5246 265.775 86.3645 263.494 83.2034 263.883Z"
     fill="url(#paint82_linear_88_1190)"
     fill-opacity="0.5"
     id="path166" />
  <path
     d="M170.083 261.175C131.729 270.841 93.7283 281.857 55.3734 291.524C52.6639 292.208 53.2162 294.209 55.9108 293.529C94.2656 283.861 132.262 272.846 170.617 263.179C173.327 262.499 172.778 260.494 170.083 261.175Z"
     fill="url(#paint83_linear_88_1190)"
     fill-opacity="0.5"
     id="path168" />
  <path
     d="M186.416 263.213C158.91 273.871 131.771 285.44 104.265 296.094C101.29 297.245 104.041 298.458 105.985 297.705C133.491 287.048 160.631 275.482 188.14 264.825C191.111 263.677 188.36 262.462 186.416 263.213Z"
     fill="url(#paint84_linear_88_1190)"
     fill-opacity="0.5"
     id="path170" />
  <path
     d="M90.8884 301.298C84.193 303.871 77.4976 306.444 70.8022 309.021C67.8203 310.164 70.5932 311.245 72.4929 310.512C79.1883 307.94 85.8836 305.367 92.579 302.793C95.561 301.645 92.7881 300.569 90.8884 301.298Z"
     fill="url(#paint85_linear_88_1190)"
     fill-opacity="0.5"
     id="path172" />
  <path
     d="M174.692 278.246C139.685 296.943 105.346 316.866 70.3387 335.566C67.6515 337.002 71.742 337.402 73.0856 336.685C108.093 317.984 142.432 298.064 177.443 279.363C180.126 277.927 176.039 277.524 174.692 278.246Z"
     fill="url(#paint86_linear_88_1190)"
     fill-opacity="0.5"
     id="path174" />
  <path
     d="M53.3086 344.679C44.7882 349.207 36.2677 353.74 27.7436 358.268C25.0602 359.697 29.1805 359.97 30.4643 359.285C38.9885 354.754 47.5089 350.224 56.0293 345.693C58.7126 344.267 54.5962 343.994 53.3086 344.679Z"
     fill="url(#paint87_linear_88_1190)"
     fill-opacity="0.5"
     id="path176" />
  <path
     d="M191.166 275.513C166.923 292.534 143.261 310.366 119.021 327.388C116.991 328.817 121.559 328.682 122.6 327.951C146.84 310.925 170.506 293.096 194.746 276.07C196.776 274.646 192.208 274.779 191.166 275.513Z"
     fill="url(#paint88_linear_88_1190)"
     fill-opacity="0.5"
     id="path178" />
  <path
     d="M107.224 335.683C101.319 339.807 95.4153 343.932 89.5111 348.057C88.7423 348.592 88.9998 349.275 89.8656 349.392C90.9666 349.536 92.172 349.156 93.0677 348.531C98.9719 344.406 104.876 340.281 110.78 336.157C111.545 335.619 111.292 334.938 110.422 334.823C109.325 334.676 108.119 335.059 107.224 335.683Z"
     fill="url(#paint89_linear_88_1190)"
     fill-opacity="0.5"
     id="path180" />
  <path
     d="M183.703 293.285C154.048 319.947 125.333 347.63 95.6811 374.295C93.7814 376 98.2824 375.735 99.2602 374.852C128.916 348.191 157.63 320.507 187.282 293.842C189.182 292.136 184.681 292.402 183.703 293.285Z"
     fill="url(#paint90_linear_88_1190)"
     fill-opacity="0.5"
     id="path182" />
  <path
     d="M81.2431 387.275C74.0215 393.745 66.7998 400.213 59.5782 406.682C57.7084 408.357 62.2056 407.988 63.1349 407.154C70.3565 400.689 77.5781 394.219 84.8035 387.75C86.6733 386.074 82.1724 386.445 81.2431 387.275Z"
     fill="url(#paint91_linear_88_1190)"
     fill-opacity="0.5"
     id="path184" />
  <path
     d="M199.119 285.863C179.532 308.28 160.704 331.349 141.118 353.769C139.916 355.145 144.425 354.731 145.298 353.738C164.884 331.32 183.712 308.251 203.299 285.834C204.504 284.454 199.996 284.865 199.119 285.863Z"
     fill="url(#paint92_linear_88_1190)"
     fill-opacity="0.5"
     id="path186" />
  <path
     d="M131.575 364.678C126.802 370.119 122.024 375.559 117.251 380.997C116.094 382.313 120.573 381.855 121.416 380.901C126.189 375.461 130.967 370.024 135.74 364.583C136.897 363.266 132.418 363.721 131.575 364.678Z"
     fill="url(#paint93_linear_88_1190)"
     fill-opacity="0.5"
     id="path188" />
  <path
     d="M195.992 305.632C173.394 338.73 151.946 372.59 129.348 405.687C128.258 407.288 132.774 406.756 133.528 405.655C156.126 372.557 177.574 338.696 200.172 305.6C201.262 303.999 196.746 304.531 195.992 305.632Z"
     fill="url(#paint94_linear_88_1190)"
     fill-opacity="0.5"
     id="path190" />
  <path
     d="M118.338 421.789C112.829 429.829 107.317 437.864 101.808 445.901C100.759 447.43 105.249 446.858 105.973 445.806C111.482 437.77 116.99 429.73 122.499 421.694C123.551 420.164 119.058 420.74 118.338 421.789Z"
     fill="url(#paint95_linear_88_1190)"
     fill-opacity="0.5"
     id="path192" />
  <path
     d="M209.314 293.928C195.517 320.459 182.581 347.431 168.78 373.966C168.198 375.081 172.594 374.657 173.288 373.326C187.09 346.791 200.025 319.823 213.823 293.288C214.405 292.17 210.009 292.593 209.314 293.928Z"
     fill="url(#paint96_linear_88_1190)"
     fill-opacity="0.5"
     id="path194" />
  <path
     d="M162.04 386.867C158.67 393.311 155.296 399.754 151.926 406.196C151.389 407.221 155.751 406.817 156.427 405.523C159.797 399.08 163.171 392.637 166.541 386.194C167.078 385.17 162.715 385.577 162.04 386.867Z"
     fill="url(#paint97_linear_88_1190)"
     fill-opacity="0.5"
     id="path196" />
  <path
     d="M210.861 314.581C196.615 352.214 183.661 390.315 169.419 427.944C168.919 429.261 173.398 428.701 173.924 427.309C188.169 389.675 201.123 351.576 215.369 313.942C215.865 312.629 211.387 313.19 210.861 314.581Z"
     fill="url(#paint98_linear_88_1190)"
     fill-opacity="0.5"
     id="path198" />
  <path
     d="M162.458 446.249C158.976 455.391 155.497 464.538 152.015 473.681C151.549 474.899 156.005 474.351 156.513 473.008C159.995 463.865 163.477 454.722 166.959 445.579C167.421 444.36 162.969 444.906 162.458 446.249Z"
     fill="url(#paint99_linear_88_1190)"
     fill-opacity="0.5"
     id="path200" />
  <path
     d="M221.181 298.954C213.956 328.073 207.667 357.415 200.442 386.534C200.073 388.018 204.6 387.308 204.95 385.898C212.176 356.777 218.464 327.432 225.69 298.315C226.059 296.829 221.532 297.544 221.181 298.954Z"
     fill="url(#paint100_linear_88_1190)"
     fill-opacity="0.5"
     id="path202" />
  <path
     d="M196.893 400.706C195.12 407.781 193.343 414.86 191.567 421.934C191.22 423.322 195.728 422.615 196.068 421.265C197.841 414.187 199.617 407.113 201.394 400.034C201.741 398.646 197.232 399.353 196.893 400.706Z"
     fill="url(#paint101_linear_88_1190)"
     fill-opacity="0.5"
     id="path204" />
  <path
     d="M227.475 319.334C222.399 359.338 218.682 399.502 213.606 439.507C213.401 441.13 217.939 440.259 218.115 438.872C223.191 398.863 226.908 358.703 231.983 318.696C232.189 317.076 227.65 317.946 227.475 319.334Z"
     fill="url(#paint102_linear_88_1190)"
     fill-opacity="0.5"
     id="path206" />
  <path
     d="M211.106 458.977C209.852 468.703 208.599 478.429 207.348 488.156C207.15 489.685 211.677 488.806 211.845 487.485C213.099 477.76 214.353 468.033 215.607 458.308C215.801 456.778 211.278 457.658 211.106 458.977Z"
     fill="url(#paint103_linear_88_1190)"
     fill-opacity="0.5"
     id="path208" />
  <path
     d="M 312.717,418.74 H 160.6 c -11.361,0 -20.6,-9.239 -20.6,-20.594 V 90.5946 c 0,-11.3611 9.239,-20.5943 20.6,-20.5943 h 152.117 c 11.361,0 20.601,9.2332 20.601,20.5943 V 398.146 c 0,11.355 -9.24,20.594 -20.601,20.594 z"
     fill="#ffffff"
     id="path210"
     sodipodi:insensitive="true" />
  <path
     fill-rule="evenodd"
     clip-rule="evenodd"
     d="M157.6 77.4855C152.025 77.4855 147.485 82.0188 147.485 87.5945V356H325.832V87.5945C325.832 82.0188 321.293 77.4855 315.717 77.4855H157.6ZM325.832 363H147.485V401.146C147.485 406.722 152.025 411.255 157.6 411.255H315.717C321.293 411.255 325.832 406.722 325.832 401.146V363ZM315.717 418.74H157.6C146.239 418.74 140 412.501 140 401.146V87.5945C140 76.2334 146.239 70.0002 157.6 70.0002H315.717C327.078 70.0002 333.318 76.2334 333.318 87.5945V401.146C333.318 412.501 327.078 418.74 315.717 418.74ZM243 388.003C243 391.867 239.867 395 235.997 395C232.133 395 229 391.867 229 388.003C229 384.134 232.133 381 235.997 381C239.867 381 243 384.134 243 388.003Z"
     fill="url(#paint104_linear_88_1190)"
     id="path212" />
  <path
     id="path214"
     d="M 177.00195 130.49414 L 177.00195 135.29492 L 177.00195 140.09375 L 177.00195 144.89258 L 177.00195 149.69141 L 177.00195 154.49023 L 177.00195 159.28906 L 177.00195 164.08789 L 181.83594 164.08789 L 186.66992 164.08789 L 191.50195 164.08789 L 196.33594 164.08789 L 201.16992 164.08789 L 201.16992 159.28906 L 196.33594 159.28906 L 191.50195 159.28906 L 186.66992 159.28906 L 186.66797 159.28906 L 181.83594 159.28906 L 181.83594 154.49023 L 181.83594 149.69141 L 181.83594 144.89258 L 181.83594 140.09375 L 181.83594 135.29492 L 186.66992 135.29492 L 191.50195 135.29492 L 196.33594 135.29492 L 201.16992 135.29492 L 201.16992 130.49414 L 196.33594 130.49414 L 191.50195 130.49414 L 186.66992 130.49414 L 186.66797 130.49414 L 181.83594 130.49414 L 177.00195 130.49414 z M 201.17188 130.49414 L 201.17188 135.29492 L 206.00391 135.29492 L 206.00391 140.09375 L 206.00391 144.89258 L 206.00391 149.69141 L 206.00391 154.49023 L 206.00391 159.28906 L 201.17188 159.28906 L 201.17188 164.08789 L 206.00586 164.08789 L 210.83789 164.08789 L 210.83789 159.28906 L 210.83789 154.49023 L 210.83789 149.69141 L 210.83789 144.89258 L 210.83789 140.09375 L 210.83789 135.29492 L 210.83789 130.49414 L 206.00586 130.49414 L 206.00391 130.49414 L 201.17188 130.49414 z M 264.00977 130.49414 L 264.00977 135.29492 L 264.00977 140.09375 L 264.00977 144.89258 L 264.00977 149.69141 L 264.00977 154.49023 L 264.00977 159.28906 L 264.00977 164.08789 L 268.84375 164.08789 L 273.67578 164.08789 L 278.50977 164.08789 L 283.34375 164.08789 L 288.17773 164.08789 L 293.01172 164.08789 L 297.84375 164.08789 L 297.84375 159.28906 L 297.84375 154.49023 L 297.84375 149.69141 L 297.84375 144.89258 L 297.84375 140.09375 L 297.84375 135.29492 L 297.84375 130.49414 L 293.01172 130.49414 L 293.00977 130.49414 L 288.17773 130.49414 L 283.34375 130.49414 L 278.50977 130.49414 L 273.67578 130.49414 L 268.84375 130.49414 L 268.8418 130.49414 L 264.00977 130.49414 z M 215.66992 131.36133 L 215.66992 136.16016 L 220.50391 136.16016 L 225.33789 136.16016 L 230.16992 136.16016 L 230.16992 131.36133 L 225.33789 131.36133 L 225.33594 131.36133 L 220.50391 131.36133 L 215.66992 131.36133 z M 230.17188 131.36133 L 230.17188 136.16016 L 230.17188 140.95898 L 230.17188 145.75977 L 230.17188 150.55859 L 230.17188 155.35742 L 230.17188 160.15625 L 235.00586 160.15625 L 235.00586 155.35742 L 239.83984 155.35742 L 239.83984 150.55859 L 244.67188 150.55859 L 244.67188 145.75977 L 244.67188 140.95898 L 244.67188 136.16016 L 239.83984 136.16016 L 239.83789 136.16016 L 235.00586 136.16016 L 235.00586 131.36133 L 230.17188 131.36133 z M 235.00586 160.15625 L 235.00586 164.95508 L 235.00586 169.75391 L 235.00586 174.55469 L 239.83789 174.55469 L 239.83789 179.35352 L 235.00586 179.35352 L 235.00586 184.15234 L 239.83984 184.15234 L 239.83984 179.35352 L 244.67188 179.35352 L 244.67188 174.55273 L 239.83984 174.55273 L 239.83984 169.75391 L 244.67188 169.75391 L 244.67188 164.95508 L 239.83984 164.95508 L 239.83984 160.15625 L 235.00586 160.15625 z M 268.84375 135.29492 L 273.67578 135.29492 L 278.50977 135.29492 L 283.34375 135.29492 L 288.17773 135.29492 L 293.00977 135.29492 L 293.00977 140.09375 L 293.00977 144.89258 L 293.00977 149.69141 L 293.00977 154.49023 L 293.00977 159.28906 L 288.17773 159.28906 L 283.34375 159.28906 L 278.50977 159.28906 L 273.67578 159.28906 L 268.84375 159.28906 L 268.84375 154.49023 L 268.84375 149.69141 L 268.84375 144.89258 L 268.84375 140.09375 L 268.84375 135.29492 z M 244.67383 136.16016 L 244.67383 140.95898 L 249.50781 140.95898 L 249.50781 136.16016 L 244.67383 136.16016 z M 249.50781 140.95898 L 249.50781 145.75977 L 249.50781 150.55859 L 254.33984 150.55859 L 254.33984 155.35742 L 254.33984 160.15625 L 254.33984 164.95508 L 259.17383 164.95508 L 259.17383 160.15625 L 259.17383 155.35547 L 259.17383 150.55859 L 259.17383 145.75977 L 259.17383 140.95898 L 259.17383 136.16016 L 254.33984 136.16016 L 254.33984 140.95898 L 249.50781 140.95898 z M 249.50781 150.55859 L 244.67383 150.55859 L 244.67383 155.35742 L 244.67383 160.15625 L 244.67383 164.95508 L 249.50781 164.95508 L 249.50781 160.15625 L 249.50781 155.35547 L 249.50781 150.55859 z M 186.66797 140.09375 L 186.66797 144.89258 L 186.66797 149.69141 L 186.66797 154.49023 L 191.50195 154.49023 L 196.33594 154.49023 L 201.16992 154.49023 L 201.16992 149.69141 L 201.16992 144.89258 L 201.16992 140.09375 L 196.33594 140.09375 L 191.50195 140.09375 L 186.66797 140.09375 z M 273.67578 140.09375 L 273.67578 144.89258 L 273.67578 149.69141 L 273.67578 154.49023 L 278.50977 154.49023 L 283.34375 154.49023 L 288.17773 154.49023 L 288.17773 149.69141 L 288.17773 144.89258 L 288.17773 140.09375 L 283.34375 140.09375 L 278.50977 140.09375 L 273.67578 140.09375 z M 220.50391 140.95898 L 220.50391 145.75977 L 225.33594 145.75977 L 225.33594 150.55859 L 225.33594 155.35547 L 220.50391 155.35547 L 220.50391 160.15625 L 225.33594 160.15625 L 225.33594 164.95508 L 220.50391 164.95508 L 220.50391 160.15625 L 215.66992 160.15625 L 215.66992 164.95508 L 215.66992 169.75391 L 220.50391 169.75391 L 220.50391 174.55469 L 225.33594 174.55469 L 225.33594 179.35352 L 220.50391 179.35352 L 215.66992 179.35352 L 215.66992 174.55273 L 210.83594 174.55273 L 210.83594 169.75391 L 206.00195 169.75391 L 206.00195 174.55273 L 201.16992 174.55273 L 201.16992 169.75391 L 196.33594 169.75391 L 191.50195 169.75391 L 191.50195 174.55273 L 186.66797 174.55273 L 186.66797 169.75391 L 181.83398 169.75391 L 177 169.75391 L 177 174.55469 L 177 179.35352 L 177 184.15234 L 177 188.95117 L 181.83398 188.95117 L 186.66797 188.95117 L 186.66797 184.15234 L 181.83398 184.15234 L 181.83398 179.35352 L 186.66797 179.35352 L 186.66797 184.15234 L 191.50195 184.15234 L 191.50195 179.35352 L 191.50195 174.55469 L 196.33594 174.55469 L 196.33594 179.35352 L 196.33594 184.15234 L 201.16992 184.15234 L 201.16992 179.35352 L 206.00195 179.35352 L 206.00195 184.15234 L 210.83594 184.15234 L 210.83594 188.95117 L 215.66992 188.95117 L 215.66992 193.75 L 220.50391 193.75 L 225.33594 193.75 L 225.33594 198.54883 L 220.50391 198.54883 L 220.50391 203.34766 L 220.50391 208.14648 L 225.33594 208.14648 L 225.33594 212.94531 L 220.50391 212.94531 L 215.66992 212.94531 L 215.66992 217.74414 L 220.50391 217.74414 L 225.33594 217.74414 L 225.33594 222.54492 L 230.16992 222.54492 L 230.16992 217.74414 L 225.33789 217.74414 L 225.33789 212.94531 L 230.16992 212.94531 L 230.16992 208.14648 L 225.33789 208.14648 L 225.33789 203.34766 L 225.33789 198.54883 L 230.16992 198.54883 L 230.16992 193.75 L 230.16992 188.95117 L 225.33789 188.95117 L 225.33594 188.95117 L 220.50391 188.95117 L 220.50391 184.15234 L 225.33789 184.15234 L 225.33789 179.35352 L 230.16992 179.35352 L 230.16992 174.55273 L 225.33789 174.55273 L 225.33789 169.75391 L 225.33789 164.95508 L 230.16992 164.95508 L 230.16992 160.15625 L 225.33789 160.15625 L 225.33789 155.35742 L 230.16992 155.35742 L 230.16992 150.55859 L 230.16992 145.75977 L 225.33789 145.75977 L 225.33789 140.95898 L 220.50391 140.95898 z M 215.66992 212.94531 L 215.66992 208.14648 L 215.66992 203.34766 L 215.66992 198.54883 L 215.66992 193.75 L 210.83594 193.75 L 210.83594 198.54883 L 206.00391 198.54883 L 206.00391 193.75 L 210.83594 193.75 L 210.83594 188.95117 L 206.00195 188.95117 L 206.00195 193.75 L 201.16992 193.75 L 201.16992 198.54883 L 196.33594 198.54883 L 196.33594 193.75 L 196.33594 188.95117 L 191.50195 188.95117 L 186.66797 188.95117 L 186.66797 193.75 L 186.66797 198.54883 L 191.50195 198.54883 L 191.50195 203.34766 L 196.33594 203.34766 L 201.16992 203.34766 L 201.16992 208.14648 L 206.00195 208.14648 L 206.00195 212.94531 L 210.83594 212.94531 L 215.66992 212.94531 z M 201.16992 208.14648 L 196.33594 208.14648 L 191.50195 208.14648 L 186.66797 208.14648 L 186.66797 212.94531 L 191.50195 212.94531 L 196.33594 212.94531 L 201.16992 212.94531 L 201.16992 208.14648 z M 186.66797 198.54883 L 181.83398 198.54883 L 181.83398 193.75 L 177 193.75 L 177 198.54883 L 177 203.34766 L 177 208.14648 L 177 212.94531 L 181.83398 212.94531 L 181.83398 208.14648 L 181.83398 203.34766 L 186.66797 203.34766 L 186.66797 198.54883 z M 235.00586 140.95898 L 239.83789 140.95898 L 239.83789 145.75977 L 239.83789 150.55859 L 235.00586 150.55859 L 235.00586 145.75977 L 235.00586 140.95898 z M 244.67383 169.75391 L 244.67383 174.55469 L 244.67383 179.35352 L 249.50781 179.35352 L 249.50781 184.15234 L 249.50781 188.95117 L 244.67383 188.95117 L 244.67383 193.75 L 244.67383 198.54883 L 244.67383 203.34766 L 244.67383 208.14648 L 249.50781 208.14648 L 249.50781 203.34766 L 254.33984 203.34766 L 254.33984 208.14648 L 249.50781 208.14648 L 249.50781 212.94531 L 254.33984 212.94531 L 254.33984 217.74414 L 254.33984 222.54492 L 249.50781 222.54492 L 249.50781 227.34375 L 244.67383 227.34375 L 244.67383 232.14258 L 244.67383 236.94141 L 249.50781 236.94141 L 249.50781 232.14258 L 254.3418 232.14258 L 259.17383 232.14258 L 264.00781 232.14258 L 264.00781 236.94141 L 268.8418 236.94141 L 268.8418 232.14258 L 273.67383 232.14258 L 278.50781 232.14258 L 278.50781 227.34375 L 278.50781 222.54492 L 278.50781 217.74414 L 278.50781 212.94531 L 278.50781 208.14648 L 273.67383 208.14648 L 273.67383 203.34766 L 268.8418 203.34766 L 268.8418 198.54883 L 264.00781 198.54883 L 264.00781 193.75 L 259.17383 193.75 L 254.3418 193.75 L 254.3418 188.95117 L 254.3418 184.15234 L 259.17383 184.15234 L 259.17383 179.35352 L 254.3418 179.35352 L 254.3418 174.55273 L 254.3418 169.75391 L 249.50781 169.75391 L 244.67383 169.75391 z M 259.17383 179.35352 L 264.00781 179.35352 L 264.00781 174.55469 L 268.83984 174.55469 L 268.83984 179.35352 L 264.00781 179.35352 L 264.00781 184.15234 L 268.83984 184.15234 L 268.83984 188.95117 L 264.00781 188.95117 L 264.00781 193.75 L 268.8418 193.75 L 268.8418 188.95117 L 273.67383 188.95117 L 273.67383 184.15234 L 273.67383 179.35352 L 278.50781 179.35352 L 278.50781 184.15234 L 278.50781 188.95117 L 283.3418 188.95117 L 288.17578 188.95117 L 293.00977 188.95117 L 293.00977 193.75 L 297.84375 193.75 L 297.84375 188.95117 L 297.84375 184.15234 L 297.84375 179.35352 L 293.00977 179.35352 L 293.00977 184.15234 L 288.17578 184.15234 L 283.3418 184.15234 L 283.3418 179.35352 L 288.17578 179.35352 L 293.00977 179.35352 L 293.00977 174.55469 L 297.84375 174.55469 L 297.84375 169.75391 L 293.00977 169.75391 L 293.00977 174.55273 L 288.17578 174.55273 L 283.3418 174.55273 L 278.50781 174.55273 L 273.67383 174.55273 L 268.8418 174.55273 L 268.8418 169.75391 L 264.00781 169.75391 L 264.00781 174.55273 L 259.17383 174.55273 L 259.17383 179.35352 z M 293.00977 193.75 L 288.17578 193.75 L 288.17578 198.54883 L 283.3418 198.54883 L 278.50781 198.54883 L 278.50781 193.75 L 273.67383 193.75 L 273.67383 198.54883 L 273.67383 203.34766 L 278.50781 203.34766 L 278.50781 208.14648 L 283.3418 208.14648 L 283.3418 212.94531 L 283.3418 217.74414 L 288.17578 217.74414 L 293.00977 217.74414 L 293.00977 212.94531 L 293.00977 208.14648 L 288.17578 208.14648 L 288.17578 203.34766 L 293.00977 203.34766 L 293.00977 208.14648 L 297.84375 208.14648 L 297.84375 203.34766 L 297.84375 198.54883 L 293.00977 198.54883 L 293.00977 193.75 z M 293.00977 217.74414 L 293.00977 222.54492 L 293.00977 227.34375 L 297.84375 227.34375 L 297.84375 222.54492 L 297.84375 217.74414 L 293.00977 217.74414 z M 264.00781 236.94141 L 259.17383 236.94141 L 259.17383 241.74023 L 264.00781 241.74023 L 264.00781 236.94141 z M 249.50781 236.94141 L 249.50781 241.74023 L 244.67383 241.74023 L 244.67383 246.54102 L 249.50781 246.54102 L 254.33984 246.54102 L 254.33984 251.33984 L 259.17383 251.33984 L 264.00781 251.33984 L 264.00781 246.54102 L 259.17383 246.54102 L 254.3418 246.54102 L 254.3418 241.74023 L 254.3418 236.94141 L 249.50781 236.94141 z M 249.50781 222.54492 L 249.50781 217.74414 L 244.67383 217.74414 L 244.67383 222.54492 L 249.50781 222.54492 z M 206.00391 174.55469 L 210.83594 174.55469 L 210.83594 179.35352 L 206.00391 179.35352 L 206.00391 174.55469 z M 235.00586 193.75 L 235.00586 198.54883 L 239.83984 198.54883 L 239.83984 193.75 L 235.00586 193.75 z M 254.3418 198.54883 L 259.17383 198.54883 L 259.17383 203.34766 L 254.3418 203.34766 L 254.3418 198.54883 z M 206.00391 203.34766 L 210.83594 203.34766 L 210.83594 208.14648 L 206.00391 208.14648 L 206.00391 203.34766 z M 235.00586 203.34766 L 235.00586 208.14648 L 230.17188 208.14648 L 230.17188 212.94531 L 230.17188 217.74414 L 235.00586 217.74414 L 235.00586 212.94531 L 239.83984 212.94531 L 244.67188 212.94531 L 244.67188 208.14648 L 239.83984 208.14648 L 239.83984 203.34766 L 235.00586 203.34766 z M 235.00586 217.74414 L 235.00586 222.54492 L 239.83789 222.54492 L 239.83789 227.34375 L 235.00586 227.34375 L 235.00586 222.54492 L 230.17188 222.54492 L 230.17188 227.34375 L 230.17188 232.14258 L 235.00586 232.14258 L 235.00586 236.94141 L 239.83789 236.94141 L 239.83789 241.74023 L 244.67188 241.74023 L 244.67188 236.94141 L 244.67188 232.14258 L 239.83984 232.14258 L 239.83984 227.34375 L 244.67188 227.34375 L 244.67188 222.54492 L 239.83984 222.54492 L 239.83984 217.74414 L 235.00586 217.74414 z M 235.00586 236.94141 L 230.17188 236.94141 L 230.17188 241.74023 L 230.17188 246.54102 L 235.00586 246.54102 L 235.00586 241.74023 L 235.00586 236.94141 z M 235.00586 246.54102 L 235.00586 251.33984 L 239.83984 251.33984 L 239.83984 246.54102 L 235.00586 246.54102 z M 264.00781 203.34766 L 268.83984 203.34766 L 268.83984 208.14648 L 264.00781 208.14648 L 264.00781 203.34766 z M 259.17383 212.94531 L 264.00781 212.94531 L 268.8418 212.94531 L 273.67383 212.94531 L 273.67383 217.74414 L 273.67383 222.54492 L 273.67383 227.34375 L 268.8418 227.34375 L 268.83984 227.34375 L 264.00781 227.34375 L 259.17383 227.34375 L 259.17383 222.54492 L 259.17383 217.74414 L 259.17383 212.94531 z M 177.00195 216.87891 L 177.00195 221.67773 L 177.00195 226.47656 L 177.00195 231.27539 L 177.00195 236.07422 L 177.00195 240.87305 L 181.83594 240.87305 L 181.83594 236.07422 L 181.83594 231.27539 L 181.83594 226.47656 L 181.83594 221.67773 L 186.66992 221.67773 L 191.50195 221.67773 L 196.33594 221.67773 L 201.16992 221.67773 L 201.16992 216.87891 L 196.33594 216.87891 L 191.50195 216.87891 L 186.66992 216.87891 L 186.66797 216.87891 L 181.83594 216.87891 L 177.00195 216.87891 z M 201.17188 216.87891 L 201.17188 221.67773 L 206.00391 221.67773 L 206.00391 226.47656 L 206.00391 231.27539 L 206.00391 236.07422 L 206.00391 240.87305 L 210.83789 240.87305 L 210.83789 236.07422 L 210.83789 231.27539 L 210.83789 226.47656 L 210.83789 221.67773 L 210.83789 216.87891 L 206.00586 216.87891 L 206.00391 216.87891 L 201.17188 216.87891 z M 264.00781 217.74414 L 264.00781 222.54492 L 268.8418 222.54492 L 268.8418 217.74414 L 264.00781 217.74414 z M 186.66797 226.47656 L 186.66797 231.27539 L 186.66797 236.07422 L 186.66797 240.87305 L 191.50195 240.87305 L 196.33594 240.87305 L 201.16992 240.87305 L 201.16992 236.07422 L 201.16992 231.27539 L 201.16992 226.47656 L 196.33594 226.47656 L 191.50195 226.47656 L 186.66797 226.47656 z M 215.66992 227.34375 L 215.66992 232.14258 L 215.66992 236.94141 L 220.50391 236.94141 L 220.50391 241.74023 L 225.33594 241.74023 L 225.33594 246.54102 L 220.50391 246.54102 L 220.50391 241.74023 L 215.66992 241.74023 L 215.66992 246.54102 L 215.66992 251.33984 L 220.50391 251.33984 L 225.33789 251.33984 L 230.16992 251.33984 L 230.16992 246.54102 L 230.16992 241.74023 L 225.33789 241.74023 L 225.33789 236.94141 L 225.33789 232.14258 L 230.16992 232.14258 L 230.16992 227.34375 L 225.33594 227.34375 L 225.33594 232.14258 L 220.50391 232.14258 L 220.50391 227.34375 L 215.66992 227.34375 z M 288.17578 232.14258 L 288.17578 236.94141 L 283.3418 236.94141 L 278.50781 236.94141 L 273.67383 236.94141 L 273.67383 241.74023 L 268.83984 241.74023 L 268.83984 246.54102 L 273.67383 246.54102 L 278.50781 246.54102 L 278.50781 241.74023 L 283.3418 241.74023 L 283.3418 246.54102 L 288.17578 246.54102 L 293.00977 246.54102 L 293.00977 251.33984 L 297.84375 251.33984 L 297.84375 246.54102 L 297.84375 241.74023 L 297.84375 236.94141 L 297.84375 232.14258 L 293.00977 232.14258 L 288.17578 232.14258 z M 283.3418 246.54102 L 278.50781 246.54102 L 278.50781 251.33984 L 283.3418 251.33984 L 283.3418 246.54102 z M 177.00195 240.875 L 177.00195 245.67383 L 177.00195 250.47266 L 181.83594 250.47266 L 186.66992 250.47266 L 191.50195 250.47266 L 196.33594 250.47266 L 201.16992 250.47266 L 201.16992 245.67383 L 196.33594 245.67383 L 191.50195 245.67383 L 186.66992 245.67383 L 186.66797 245.67383 L 181.83594 245.67383 L 181.83594 240.875 L 177.00195 240.875 z M 206.00391 240.875 L 206.00391 245.67383 L 201.17188 245.67383 L 201.17188 250.47266 L 206.00391 250.47266 L 206.00586 250.47266 L 210.83789 250.47266 L 210.83789 245.67383 L 210.83789 240.875 L 206.00391 240.875 z "
     style="fill:#222222;fill-opacity:1" />
  <defs
     id="defs1389">
    <linearGradient
       id="paint0_linear_88_1190"
       x1="214"
       y1="473.5"
       x2="289.5"
       y2="-58"
       gradientUnits="userSpaceOnUse">
      <stop
         stop-color="#FFB800"
         id="stop862" />
      <stop
         offset="1"
         stop-color="#FFF500"
         id="stop864" />
    </linearGradient>
    <linearGradient
       id="paint1_linear_88_1190"
       x1="214"
       y1="473.5"
       x2="289.5"
       y2="-58"
       gradientUnits="userSpaceOnUse">
      <stop
         stop-color="#FFB800"
         id="stop867" />
      <stop
         offset="1"
         stop-color="#FFF500"
         id="stop869" />
    </linearGradient>
    <linearGradient
       id="paint2_linear_88_1190"
       x1="214"
       y1="473.5"
       x2="289.5"
       y2="-58"
       gradientUnits="userSpaceOnUse">
      <stop
         stop-color="#FFB800"
         id="stop872" />
      <stop
         offset="1"
         stop-color="#FFF500"
         id="stop874" />
    </linearGradient>
    <linearGradient
       id="paint3_linear_88_1190"
       x1="214"
       y1="473.5"
       x2="289.5"
       y2="-58"
       gradientUnits="userSpaceOnUse">
      <stop
         stop-color="#FFB800"
         id="stop877" />
      <stop
         offset="1"
         stop-color="#FFF500"
         id="stop879" />
    </linearGradient>
    <linearGradient
       id="paint4_linear_88_1190"
       x1="214"
       y1="473.5"
       x2="289.5"
       y2="-58"
       gradientUnits="userSpaceOnUse">
      <stop
         stop-color="#FFB800"
         id="stop882" />
      <stop
         offset="1"
         stop-color="#FFF500"
         id="stop884" />
    </linearGradient>
    <linearGradient
       id="paint5_linear_88_1190"
       x1="214"
       y1="473.5"
       x2="289.5"
       y2="-58"
       gradientUnits="userSpaceOnUse">
      <stop
         stop-color="#FFB800"
         id="stop887" />
      <stop
         offset="1"
         stop-color="#FFF500"
         id="stop889" />
    </linearGradient>
    <linearGradient
       id="paint6_linear_88_1190"
       x1="214"
       y1="473.5"
       x2="289.5"
       y2="-58"
       gradientUnits="userSpaceOnUse">
      <stop
         stop-color="#FFB800"
         id="stop892" />
      <stop
         offset="1"
         stop-color="#FFF500"
         id="stop894" />
    </linearGradient>
    <linearGradient
       id="paint7_linear_88_1190"
       x1="214"
       y1="473.5"
       x2="289.5"
       y2="-58"
       gradientUnits="userSpaceOnUse">
      <stop
         stop-color="#FFB800"
         id="stop897" />
      <stop
         offset="1"
         stop-color="#FFF500"
         id="stop899" />
    </linearGradient>
    <linearGradient
       id="paint8_linear_88_1190"
       x1="214"
       y1="473.5"
       x2="289.5"
       y2="-58"
       gradientUnits="userSpaceOnUse">
      <stop
         stop-color="#FFB800"
         id="stop902" />
      <stop
         offset="1"
         stop-color="#FFF500"
         id="stop904" />
    </linearGradient>
    <linearGradient
       id="paint9_linear_88_1190"
       x1="214"
       y1="473.5"
       x2="289.5"
       y2="-58"
       gradientUnits="userSpaceOnUse">
      <stop
         stop-color="#FFB800"
         id="stop907" />
      <stop
         offset="1"
         stop-color="#FFF500"
         id="stop909" />
    </linearGradient>
    <linearGradient
       id="paint10_linear_88_1190"
       x1="214"
       y1="473.5"
       x2="289.5"
       y2="-58"
       gradientUnits="userSpaceOnUse">
      <stop
         stop-color="#FFB800"
         id="stop912" />
      <stop
         offset="1"
         stop-color="#FFF500"
         id="stop914" />
    </linearGradient>
    <linearGradient
       id="paint11_linear_88_1190"
       x1="214"
       y1="473.5"
       x2="289.5"
       y2="-58"
       gradientUnits="userSpaceOnUse">
      <stop
         stop-color="#FFB800"
         id="stop917" />
      <stop
         offset="1"
         stop-color="#FFF500"
         id="stop919" />
    </linearGradient>
    <linearGradient
       id="paint12_linear_88_1190"
       x1="214"
       y1="473.5"
       x2="289.5"
       y2="-58"
       gradientUnits="userSpaceOnUse">
      <stop
         stop-color="#FFB800"
         id="stop922" />
      <stop
         offset="1"
         stop-color="#FFF500"
         id="stop924" />
    </linearGradient>
    <linearGradient
       id="paint13_linear_88_1190"
       x1="214"
       y1="473.5"
       x2="289.5"
       y2="-58"
       gradientUnits="userSpaceOnUse">
      <stop
         stop-color="#FFB800"
         id="stop927" />
      <stop
         offset="1"
         stop-color="#FFF500"
         id="stop929" />
    </linearGradient>
    <linearGradient
       id="paint14_linear_88_1190"
       x1="214"
       y1="473.5"
       x2="289.5"
       y2="-58"
       gradientUnits="userSpaceOnUse">
      <stop
         stop-color="#FFB800"
         id="stop932" />
      <stop
         offset="1"
         stop-color="#FFF500"
         id="stop934" />
    </linearGradient>
    <linearGradient
       id="paint15_linear_88_1190"
       x1="214"
       y1="473.5"
       x2="289.5"
       y2="-58"
       gradientUnits="userSpaceOnUse">
      <stop
         stop-color="#FFB800"
         id="stop937" />
      <stop
         offset="1"
         stop-color="#FFF500"
         id="stop939" />
    </linearGradient>
    <linearGradient
       id="paint16_linear_88_1190"
       x1="214"
       y1="473.5"
       x2="289.5"
       y2="-58"
       gradientUnits="userSpaceOnUse">
      <stop
         stop-color="#FFB800"
         id="stop942" />
      <stop
         offset="1"
         stop-color="#FFF500"
         id="stop944" />
    </linearGradient>
    <linearGradient
       id="paint17_linear_88_1190"
       x1="214"
       y1="473.5"
       x2="289.5"
       y2="-58"
       gradientUnits="userSpaceOnUse">
      <stop
         stop-color="#FFB800"
         id="stop947" />
      <stop
         offset="1"
         stop-color="#FFF500"
         id="stop949" />
    </linearGradient>
    <linearGradient
       id="paint18_linear_88_1190"
       x1="214"
       y1="473.5"
       x2="289.5"
       y2="-58"
       gradientUnits="userSpaceOnUse">
      <stop
         stop-color="#FFB800"
         id="stop952" />
      <stop
         offset="1"
         stop-color="#FFF500"
         id="stop954" />
    </linearGradient>
    <linearGradient
       id="paint19_linear_88_1190"
       x1="214"
       y1="473.5"
       x2="289.5"
       y2="-58"
       gradientUnits="userSpaceOnUse">
      <stop
         stop-color="#FFB800"
         id="stop957" />
      <stop
         offset="1"
         stop-color="#FFF500"
         id="stop959" />
    </linearGradient>
    <linearGradient
       id="paint20_linear_88_1190"
       x1="214"
       y1="473.5"
       x2="289.5"
       y2="-58"
       gradientUnits="userSpaceOnUse">
      <stop
         stop-color="#FFB800"
         id="stop962" />
      <stop
         offset="1"
         stop-color="#FFF500"
         id="stop964" />
    </linearGradient>
    <linearGradient
       id="paint21_linear_88_1190"
       x1="214"
       y1="473.5"
       x2="289.5"
       y2="-58"
       gradientUnits="userSpaceOnUse">
      <stop
         stop-color="#FFB800"
         id="stop967" />
      <stop
         offset="1"
         stop-color="#FFF500"
         id="stop969" />
    </linearGradient>
    <linearGradient
       id="paint22_linear_88_1190"
       x1="214"
       y1="473.5"
       x2="289.5"
       y2="-58"
       gradientUnits="userSpaceOnUse">
      <stop
         stop-color="#FFB800"
         id="stop972" />
      <stop
         offset="1"
         stop-color="#FFF500"
         id="stop974" />
    </linearGradient>
    <linearGradient
       id="paint23_linear_88_1190"
       x1="214"
       y1="473.5"
       x2="289.5"
       y2="-58"
       gradientUnits="userSpaceOnUse">
      <stop
         stop-color="#FFB800"
         id="stop977" />
      <stop
         offset="1"
         stop-color="#FFF500"
         id="stop979" />
    </linearGradient>
    <linearGradient
       id="paint24_linear_88_1190"
       x1="214"
       y1="473.5"
       x2="289.5"
       y2="-58"
       gradientUnits="userSpaceOnUse">
      <stop
         stop-color="#FFB800"
         id="stop982" />
      <stop
         offset="1"
         stop-color="#FFF500"
         id="stop984" />
    </linearGradient>
    <linearGradient
       id="paint25_linear_88_1190"
       x1="214"
       y1="473.5"
       x2="289.5"
       y2="-58"
       gradientUnits="userSpaceOnUse">
      <stop
         stop-color="#FFB800"
         id="stop987" />
      <stop
         offset="1"
         stop-color="#FFF500"
         id="stop989" />
    </linearGradient>
    <linearGradient
       id="paint26_linear_88_1190"
       x1="214"
       y1="473.5"
       x2="289.5"
       y2="-58"
       gradientUnits="userSpaceOnUse">
      <stop
         stop-color="#FFB800"
         id="stop992" />
      <stop
         offset="1"
         stop-color="#FFF500"
         id="stop994" />
    </linearGradient>
    <linearGradient
       id="paint27_linear_88_1190"
       x1="214"
       y1="473.5"
       x2="289.5"
       y2="-58"
       gradientUnits="userSpaceOnUse">
      <stop
         stop-color="#FFB800"
         id="stop997" />
      <stop
         offset="1"
         stop-color="#FFF500"
         id="stop999" />
    </linearGradient>
    <linearGradient
       id="paint28_linear_88_1190"
       x1="214"
       y1="473.5"
       x2="289.5"
       y2="-58"
       gradientUnits="userSpaceOnUse">
      <stop
         stop-color="#FFB800"
         id="stop1002" />
      <stop
         offset="1"
         stop-color="#FFF500"
         id="stop1004" />
    </linearGradient>
    <linearGradient
       id="paint29_linear_88_1190"
       x1="214"
       y1="473.5"
       x2="289.5"
       y2="-58"
       gradientUnits="userSpaceOnUse">
      <stop
         stop-color="#FFB800"
         id="stop1007" />
      <stop
         offset="1"
         stop-color="#FFF500"
         id="stop1009" />
    </linearGradient>
    <linearGradient
       id="paint30_linear_88_1190"
       x1="214"
       y1="473.5"
       x2="289.5"
       y2="-58"
       gradientUnits="userSpaceOnUse">
      <stop
         stop-color="#FFB800"
         id="stop1012" />
      <stop
         offset="1"
         stop-color="#FFF500"
         id="stop1014" />
    </linearGradient>
    <linearGradient
       id="paint31_linear_88_1190"
       x1="214"
       y1="473.5"
       x2="289.5"
       y2="-58"
       gradientUnits="userSpaceOnUse">
      <stop
         stop-color="#FFB800"
         id="stop1017" />
      <stop
         offset="1"
         stop-color="#FFF500"
         id="stop1019" />
    </linearGradient>
    <linearGradient
       id="paint32_linear_88_1190"
       x1="214"
       y1="473.5"
       x2="289.5"
       y2="-58"
       gradientUnits="userSpaceOnUse">
      <stop
         stop-color="#FFB800"
         id="stop1022" />
      <stop
         offset="1"
         stop-color="#FFF500"
         id="stop1024" />
    </linearGradient>
    <linearGradient
       id="paint33_linear_88_1190"
       x1="214"
       y1="473.5"
       x2="289.5"
       y2="-58"
       gradientUnits="userSpaceOnUse">
      <stop
         stop-color="#FFB800"
         id="stop1027" />
      <stop
         offset="1"
         stop-color="#FFF500"
         id="stop1029" />
    </linearGradient>
    <linearGradient
       id="paint34_linear_88_1190"
       x1="214"
       y1="473.5"
       x2="289.5"
       y2="-58"
       gradientUnits="userSpaceOnUse">
      <stop
         stop-color="#FFB800"
         id="stop1032" />
      <stop
         offset="1"
         stop-color="#FFF500"
         id="stop1034" />
    </linearGradient>
    <linearGradient
       id="paint35_linear_88_1190"
       x1="214"
       y1="473.5"
       x2="289.5"
       y2="-58"
       gradientUnits="userSpaceOnUse">
      <stop
         stop-color="#FFB800"
         id="stop1037" />
      <stop
         offset="1"
         stop-color="#FFF500"
         id="stop1039" />
    </linearGradient>
    <linearGradient
       id="paint36_linear_88_1190"
       x1="214"
       y1="473.5"
       x2="289.5"
       y2="-58"
       gradientUnits="userSpaceOnUse">
      <stop
         stop-color="#FFB800"
         id="stop1042" />
      <stop
         offset="1"
         stop-color="#FFF500"
         id="stop1044" />
    </linearGradient>
    <linearGradient
       id="paint37_linear_88_1190"
       x1="214"
       y1="473.5"
       x2="289.5"
       y2="-58"
       gradientUnits="userSpaceOnUse">
      <stop
         stop-color="#FFB800"
         id="stop1047" />
      <stop
         offset="1"
         stop-color="#FFF500"
         id="stop1049" />
    </linearGradient>
    <linearGradient
       id="paint38_linear_88_1190"
       x1="214"
       y1="473.5"
       x2="289.5"
       y2="-58"
       gradientUnits="userSpaceOnUse">
      <stop
         stop-color="#FFB800"
         id="stop1052" />
      <stop
         offset="1"
         stop-color="#FFF500"
         id="stop1054" />
    </linearGradient>
    <linearGradient
       id="paint39_linear_88_1190"
       x1="214"
       y1="473.5"
       x2="289.5"
       y2="-58"
       gradientUnits="userSpaceOnUse">
      <stop
         stop-color="#FFB800"
         id="stop1057" />
      <stop
         offset="1"
         stop-color="#FFF500"
         id="stop1059" />
    </linearGradient>
    <linearGradient
       id="paint40_linear_88_1190"
       x1="214"
       y1="473.5"
       x2="289.5"
       y2="-58"
       gradientUnits="userSpaceOnUse">
      <stop
         stop-color="#FFB800"
         id="stop1062" />
      <stop
         offset="1"
         stop-color="#FFF500"
         id="stop1064" />
    </linearGradient>
    <linearGradient
       id="paint41_linear_88_1190"
       x1="214"
       y1="473.5"
       x2="289.5"
       y2="-58"
       gradientUnits="userSpaceOnUse">
      <stop
         stop-color="#FFB800"
         id="stop1067" />
      <stop
         offset="1"
         stop-color="#FFF500"
         id="stop1069" />
    </linearGradient>
    <linearGradient
       id="paint42_linear_88_1190"
       x1="214"
       y1="473.5"
       x2="289.5"
       y2="-58"
       gradientUnits="userSpaceOnUse">
      <stop
         stop-color="#FFB800"
         id="stop1072" />
      <stop
         offset="1"
         stop-color="#FFF500"
         id="stop1074" />
    </linearGradient>
    <linearGradient
       id="paint43_linear_88_1190"
       x1="214"
       y1="473.5"
       x2="289.5"
       y2="-58"
       gradientUnits="userSpaceOnUse">
      <stop
         stop-color="#FFB800"
         id="stop1077" />
      <stop
         offset="1"
         stop-color="#FFF500"
         id="stop1079" />
    </linearGradient>
    <linearGradient
       id="paint44_linear_88_1190"
       x1="214"
       y1="473.5"
       x2="289.5"
       y2="-58"
       gradientUnits="userSpaceOnUse">
      <stop
         stop-color="#FFB800"
         id="stop1082" />
      <stop
         offset="1"
         stop-color="#FFF500"
         id="stop1084" />
    </linearGradient>
    <linearGradient
       id="paint45_linear_88_1190"
       x1="214"
       y1="473.5"
       x2="289.5"
       y2="-58"
       gradientUnits="userSpaceOnUse">
      <stop
         stop-color="#FFB800"
         id="stop1087" />
      <stop
         offset="1"
         stop-color="#FFF500"
         id="stop1089" />
    </linearGradient>
    <linearGradient
       id="paint46_linear_88_1190"
       x1="214"
       y1="473.5"
       x2="289.5"
       y2="-58"
       gradientUnits="userSpaceOnUse">
      <stop
         stop-color="#FFB800"
         id="stop1092" />
      <stop
         offset="1"
         stop-color="#FFF500"
         id="stop1094" />
    </linearGradient>
    <linearGradient
       id="paint47_linear_88_1190"
       x1="214"
       y1="473.5"
       x2="289.5"
       y2="-58"
       gradientUnits="userSpaceOnUse">
      <stop
         stop-color="#FFB800"
         id="stop1097" />
      <stop
         offset="1"
         stop-color="#FFF500"
         id="stop1099" />
    </linearGradient>
    <linearGradient
       id="paint48_linear_88_1190"
       x1="214"
       y1="473.5"
       x2="289.5"
       y2="-58"
       gradientUnits="userSpaceOnUse">
      <stop
         stop-color="#FFB800"
         id="stop1102" />
      <stop
         offset="1"
         stop-color="#FFF500"
         id="stop1104" />
    </linearGradient>
    <linearGradient
       id="paint49_linear_88_1190"
       x1="214"
       y1="473.5"
       x2="289.5"
       y2="-58"
       gradientUnits="userSpaceOnUse">
      <stop
         stop-color="#FFB800"
         id="stop1107" />
      <stop
         offset="1"
         stop-color="#FFF500"
         id="stop1109" />
    </linearGradient>
    <linearGradient
       id="paint50_linear_88_1190"
       x1="214"
       y1="473.5"
       x2="289.5"
       y2="-58"
       gradientUnits="userSpaceOnUse">
      <stop
         stop-color="#FFB800"
         id="stop1112" />
      <stop
         offset="1"
         stop-color="#FFF500"
         id="stop1114" />
    </linearGradient>
    <linearGradient
       id="paint51_linear_88_1190"
       x1="214"
       y1="473.5"
       x2="289.5"
       y2="-58"
       gradientUnits="userSpaceOnUse">
      <stop
         stop-color="#FFB800"
         id="stop1117" />
      <stop
         offset="1"
         stop-color="#FFF500"
         id="stop1119" />
    </linearGradient>
    <linearGradient
       id="paint52_linear_88_1190"
       x1="214"
       y1="473.5"
       x2="289.5"
       y2="-58"
       gradientUnits="userSpaceOnUse">
      <stop
         stop-color="#FFB800"
         id="stop1122" />
      <stop
         offset="1"
         stop-color="#FFF500"
         id="stop1124" />
    </linearGradient>
    <linearGradient
       id="paint53_linear_88_1190"
       x1="214"
       y1="473.5"
       x2="289.5"
       y2="-58"
       gradientUnits="userSpaceOnUse">
      <stop
         stop-color="#FFB800"
         id="stop1127" />
      <stop
         offset="1"
         stop-color="#FFF500"
         id="stop1129" />
    </linearGradient>
    <linearGradient
       id="paint54_linear_88_1190"
       x1="214"
       y1="473.5"
       x2="289.5"
       y2="-58"
       gradientUnits="userSpaceOnUse">
      <stop
         stop-color="#FFB800"
         id="stop1132" />
      <stop
         offset="1"
         stop-color="#FFF500"
         id="stop1134" />
    </linearGradient>
    <linearGradient
       id="paint55_linear_88_1190"
       x1="214"
       y1="473.5"
       x2="289.5"
       y2="-58"
       gradientUnits="userSpaceOnUse">
      <stop
         stop-color="#FFB800"
         id="stop1137" />
      <stop
         offset="1"
         stop-color="#FFF500"
         id="stop1139" />
    </linearGradient>
    <linearGradient
       id="paint56_linear_88_1190"
       x1="214"
       y1="473.5"
       x2="289.5"
       y2="-58"
       gradientUnits="userSpaceOnUse">
      <stop
         stop-color="#FFB800"
         id="stop1142" />
      <stop
         offset="1"
         stop-color="#FFF500"
         id="stop1144" />
    </linearGradient>
    <linearGradient
       id="paint57_linear_88_1190"
       x1="214"
       y1="473.5"
       x2="289.5"
       y2="-58"
       gradientUnits="userSpaceOnUse">
      <stop
         stop-color="#FFB800"
         id="stop1147" />
      <stop
         offset="1"
         stop-color="#FFF500"
         id="stop1149" />
    </linearGradient>
    <linearGradient
       id="paint58_linear_88_1190"
       x1="214"
       y1="473.5"
       x2="289.5"
       y2="-58"
       gradientUnits="userSpaceOnUse">
      <stop
         stop-color="#FFB800"
         id="stop1152" />
      <stop
         offset="1"
         stop-color="#FFF500"
         id="stop1154" />
    </linearGradient>
    <linearGradient
       id="paint59_linear_88_1190"
       x1="214"
       y1="473.5"
       x2="289.5"
       y2="-58"
       gradientUnits="userSpaceOnUse">
      <stop
         stop-color="#FFB800"
         id="stop1157" />
      <stop
         offset="1"
         stop-color="#FFF500"
         id="stop1159" />
    </linearGradient>
    <linearGradient
       id="paint60_linear_88_1190"
       x1="214"
       y1="473.5"
       x2="289.5"
       y2="-58"
       gradientUnits="userSpaceOnUse">
      <stop
         stop-color="#FFB800"
         id="stop1162" />
      <stop
         offset="1"
         stop-color="#FFF500"
         id="stop1164" />
    </linearGradient>
    <linearGradient
       id="paint61_linear_88_1190"
       x1="214"
       y1="473.5"
       x2="289.5"
       y2="-58"
       gradientUnits="userSpaceOnUse">
      <stop
         stop-color="#FFB800"
         id="stop1167" />
      <stop
         offset="1"
         stop-color="#FFF500"
         id="stop1169" />
    </linearGradient>
    <linearGradient
       id="paint62_linear_88_1190"
       x1="214"
       y1="473.5"
       x2="289.5"
       y2="-58"
       gradientUnits="userSpaceOnUse">
      <stop
         stop-color="#FFB800"
         id="stop1172" />
      <stop
         offset="1"
         stop-color="#FFF500"
         id="stop1174" />
    </linearGradient>
    <linearGradient
       id="paint63_linear_88_1190"
       x1="214"
       y1="473.5"
       x2="289.5"
       y2="-58"
       gradientUnits="userSpaceOnUse">
      <stop
         stop-color="#FFB800"
         id="stop1177" />
      <stop
         offset="1"
         stop-color="#FFF500"
         id="stop1179" />
    </linearGradient>
    <linearGradient
       id="paint64_linear_88_1190"
       x1="214"
       y1="473.5"
       x2="289.5"
       y2="-58"
       gradientUnits="userSpaceOnUse">
      <stop
         stop-color="#FFB800"
         id="stop1182" />
      <stop
         offset="1"
         stop-color="#FFF500"
         id="stop1184" />
    </linearGradient>
    <linearGradient
       id="paint65_linear_88_1190"
       x1="214"
       y1="473.5"
       x2="289.5"
       y2="-58"
       gradientUnits="userSpaceOnUse">
      <stop
         stop-color="#FFB800"
         id="stop1187" />
      <stop
         offset="1"
         stop-color="#FFF500"
         id="stop1189" />
    </linearGradient>
    <linearGradient
       id="paint66_linear_88_1190"
       x1="214"
       y1="473.5"
       x2="289.5"
       y2="-58"
       gradientUnits="userSpaceOnUse">
      <stop
         stop-color="#FFB800"
         id="stop1192" />
      <stop
         offset="1"
         stop-color="#FFF500"
         id="stop1194" />
    </linearGradient>
    <linearGradient
       id="paint67_linear_88_1190"
       x1="214"
       y1="473.5"
       x2="289.5"
       y2="-58"
       gradientUnits="userSpaceOnUse">
      <stop
         stop-color="#FFB800"
         id="stop1197" />
      <stop
         offset="1"
         stop-color="#FFF500"
         id="stop1199" />
    </linearGradient>
    <linearGradient
       id="paint68_linear_88_1190"
       x1="214"
       y1="473.5"
       x2="289.5"
       y2="-58"
       gradientUnits="userSpaceOnUse">
      <stop
         stop-color="#FFB800"
         id="stop1202" />
      <stop
         offset="1"
         stop-color="#FFF500"
         id="stop1204" />
    </linearGradient>
    <linearGradient
       id="paint69_linear_88_1190"
       x1="214"
       y1="473.5"
       x2="289.5"
       y2="-58"
       gradientUnits="userSpaceOnUse">
      <stop
         stop-color="#FFB800"
         id="stop1207" />
      <stop
         offset="1"
         stop-color="#FFF500"
         id="stop1209" />
    </linearGradient>
    <linearGradient
       id="paint70_linear_88_1190"
       x1="214"
       y1="473.5"
       x2="289.5"
       y2="-58"
       gradientUnits="userSpaceOnUse">
      <stop
         stop-color="#FFB800"
         id="stop1212" />
      <stop
         offset="1"
         stop-color="#FFF500"
         id="stop1214" />
    </linearGradient>
    <linearGradient
       id="paint71_linear_88_1190"
       x1="214"
       y1="473.5"
       x2="289.5"
       y2="-58"
       gradientUnits="userSpaceOnUse">
      <stop
         stop-color="#FFB800"
         id="stop1217" />
      <stop
         offset="1"
         stop-color="#FFF500"
         id="stop1219" />
    </linearGradient>
    <linearGradient
       id="paint72_linear_88_1190"
       x1="214"
       y1="473.5"
       x2="289.5"
       y2="-58"
       gradientUnits="userSpaceOnUse">
      <stop
         stop-color="#FFB800"
         id="stop1222" />
      <stop
         offset="1"
         stop-color="#FFF500"
         id="stop1224" />
    </linearGradient>
    <linearGradient
       id="paint73_linear_88_1190"
       x1="214"
       y1="473.5"
       x2="289.5"
       y2="-58"
       gradientUnits="userSpaceOnUse">
      <stop
         stop-color="#FFB800"
         id="stop1227" />
      <stop
         offset="1"
         stop-color="#FFF500"
         id="stop1229" />
    </linearGradient>
    <linearGradient
       id="paint74_linear_88_1190"
       x1="214"
       y1="473.5"
       x2="289.5"
       y2="-58"
       gradientUnits="userSpaceOnUse">
      <stop
         stop-color="#FFB800"
         id="stop1232" />
      <stop
         offset="1"
         stop-color="#FFF500"
         id="stop1234" />
    </linearGradient>
    <linearGradient
       id="paint75_linear_88_1190"
       x1="214"
       y1="473.5"
       x2="289.5"
       y2="-58"
       gradientUnits="userSpaceOnUse">
      <stop
         stop-color="#FFB800"
         id="stop1237" />
      <stop
         offset="1"
         stop-color="#FFF500"
         id="stop1239" />
    </linearGradient>
    <linearGradient
       id="paint76_linear_88_1190"
       x1="214"
       y1="473.5"
       x2="289.5"
       y2="-58"
       gradientUnits="userSpaceOnUse">
      <stop
         stop-color="#FFB800"
         id="stop1242" />
      <stop
         offset="1"
         stop-color="#FFF500"
         id="stop1244" />
    </linearGradient>
    <linearGradient
       id="paint77_linear_88_1190"
       x1="214"
       y1="473.5"
       x2="289.5"
       y2="-58"
       gradientUnits="userSpaceOnUse">
      <stop
         stop-color="#FFB800"
         id="stop1247" />
      <stop
         offset="1"
         stop-color="#FFF500"
         id="stop1249" />
    </linearGradient>
    <linearGradient
       id="paint78_linear_88_1190"
       x1="214"
       y1="473.5"
       x2="289.5"
       y2="-58"
       gradientUnits="userSpaceOnUse">
      <stop
         stop-color="#FFB800"
         id="stop1252" />
      <stop
         offset="1"
         stop-color="#FFF500"
         id="stop1254" />
    </linearGradient>
    <linearGradient
       id="paint79_linear_88_1190"
       x1="214"
       y1="473.5"
       x2="289.5"
       y2="-58"
       gradientUnits="userSpaceOnUse">
      <stop
         stop-color="#FFB800"
         id="stop1257" />
      <stop
         offset="1"
         stop-color="#FFF500"
         id="stop1259" />
    </linearGradient>
    <linearGradient
       id="paint80_linear_88_1190"
       x1="214"
       y1="473.5"
       x2="289.5"
       y2="-58"
       gradientUnits="userSpaceOnUse">
      <stop
         stop-color="#FFB800"
         id="stop1262" />
      <stop
         offset="1"
         stop-color="#FFF500"
         id="stop1264" />
    </linearGradient>
    <linearGradient
       id="paint81_linear_88_1190"
       x1="214"
       y1="473.5"
       x2="289.5"
       y2="-58"
       gradientUnits="userSpaceOnUse">
      <stop
         stop-color="#FFB800"
         id="stop1267" />
      <stop
         offset="1"
         stop-color="#FFF500"
         id="stop1269" />
    </linearGradient>
    <linearGradient
       id="paint82_linear_88_1190"
       x1="214"
       y1="473.5"
       x2="289.5"
       y2="-58"
       gradientUnits="userSpaceOnUse">
      <stop
         stop-color="#FFB800"
         id="stop1272" />
      <stop
         offset="1"
         stop-color="#FFF500"
         id="stop1274" />
    </linearGradient>
    <linearGradient
       id="paint83_linear_88_1190"
       x1="214"
       y1="473.5"
       x2="289.5"
       y2="-58"
       gradientUnits="userSpaceOnUse">
      <stop
         stop-color="#FFB800"
         id="stop1277" />
      <stop
         offset="1"
         stop-color="#FFF500"
         id="stop1279" />
    </linearGradient>
    <linearGradient
       id="paint84_linear_88_1190"
       x1="214"
       y1="473.5"
       x2="289.5"
       y2="-58"
       gradientUnits="userSpaceOnUse">
      <stop
         stop-color="#FFB800"
         id="stop1282" />
      <stop
         offset="1"
         stop-color="#FFF500"
         id="stop1284" />
    </linearGradient>
    <linearGradient
       id="paint85_linear_88_1190"
       x1="214"
       y1="473.5"
       x2="289.5"
       y2="-58"
       gradientUnits="userSpaceOnUse">
      <stop
         stop-color="#FFB800"
         id="stop1287" />
      <stop
         offset="1"
         stop-color="#FFF500"
         id="stop1289" />
    </linearGradient>
    <linearGradient
       id="paint86_linear_88_1190"
       x1="214"
       y1="473.5"
       x2="289.5"
       y2="-58"
       gradientUnits="userSpaceOnUse">
      <stop
         stop-color="#FFB800"
         id="stop1292" />
      <stop
         offset="1"
         stop-color="#FFF500"
         id="stop1294" />
    </linearGradient>
    <linearGradient
       id="paint87_linear_88_1190"
       x1="214"
       y1="473.5"
       x2="289.5"
       y2="-58"
       gradientUnits="userSpaceOnUse">
      <stop
         stop-color="#FFB800"
         id="stop1297" />
      <stop
         offset="1"
         stop-color="#FFF500"
         id="stop1299" />
    </linearGradient>
    <linearGradient
       id="paint88_linear_88_1190"
       x1="214"
       y1="473.5"
       x2="289.5"
       y2="-58"
       gradientUnits="userSpaceOnUse">
      <stop
         stop-color="#FFB800"
         id="stop1302" />
      <stop
         offset="1"
         stop-color="#FFF500"
         id="stop1304" />
    </linearGradient>
    <linearGradient
       id="paint89_linear_88_1190"
       x1="214"
       y1="473.5"
       x2="289.5"
       y2="-58"
       gradientUnits="userSpaceOnUse">
      <stop
         stop-color="#FFB800"
         id="stop1307" />
      <stop
         offset="1"
         stop-color="#FFF500"
         id="stop1309" />
    </linearGradient>
    <linearGradient
       id="paint90_linear_88_1190"
       x1="214"
       y1="473.5"
       x2="289.5"
       y2="-58"
       gradientUnits="userSpaceOnUse">
      <stop
         stop-color="#FFB800"
         id="stop1312" />
      <stop
         offset="1"
         stop-color="#FFF500"
         id="stop1314" />
    </linearGradient>
    <linearGradient
       id="paint91_linear_88_1190"
       x1="214"
       y1="473.5"
       x2="289.5"
       y2="-58"
       gradientUnits="userSpaceOnUse">
      <stop
         stop-color="#FFB800"
         id="stop1317" />
      <stop
         offset="1"
         stop-color="#FFF500"
         id="stop1319" />
    </linearGradient>
    <linearGradient
       id="paint92_linear_88_1190"
       x1="214"
       y1="473.5"
       x2="289.5"
       y2="-58"
       gradientUnits="userSpaceOnUse">
      <stop
         stop-color="#FFB800"
         id="stop1322" />
      <stop
         offset="1"
         stop-color="#FFF500"
         id="stop1324" />
    </linearGradient>
    <linearGradient
       id="paint93_linear_88_1190"
       x1="214"
       y1="473.5"
       x2="289.5"
       y2="-58"
       gradientUnits="userSpaceOnUse">
      <stop
         stop-color="#FFB800"
         id="stop1327" />
      <stop
         offset="1"
         stop-color="#FFF500"
         id="stop1329" />
    </linearGradient>
    <linearGradient
       id="paint94_linear_88_1190"
       x1="214"
       y1="473.5"
       x2="289.5"
       y2="-58"
       gradientUnits="userSpaceOnUse">
      <stop
         stop-color="#FFB800"
         id="stop1332" />
      <stop
         offset="1"
         stop-color="#FFF500"
         id="stop1334" />
    </linearGradient>
    <linearGradient
       id="paint95_linear_88_1190"
       x1="214"
       y1="473.5"
       x2="289.5"
       y2="-58"
       gradientUnits="userSpaceOnUse">
      <stop
         stop-color="#FFB800"
         id="stop1337" />
      <stop
         offset="1"
         stop-color="#FFF500"
         id="stop1339" />
    </linearGradient>
    <linearGradient
       id="paint96_linear_88_1190"
       x1="214"
       y1="473.5"
       x2="289.5"
       y2="-58"
       gradientUnits="userSpaceOnUse">
      <stop
         stop-color="#FFB800"
         id="stop1342" />
      <stop
         offset="1"
         stop-color="#FFF500"
         id="stop1344" />
    </linearGradient>
    <linearGradient
       id="paint97_linear_88_1190"
       x1="214"
       y1="473.5"
       x2="289.5"
       y2="-58"
       gradientUnits="userSpaceOnUse">
      <stop
         stop-color="#FFB800"
         id="stop1347" />
      <stop
         offset="1"
         stop-color="#FFF500"
         id="stop1349" />
    </linearGradient>
    <linearGradient
       id="paint98_linear_88_1190"
       x1="214"
       y1="473.5"
       x2="289.5"
       y2="-58"
       gradientUnits="userSpaceOnUse">
      <stop
         stop-color="#FFB800"
         id="stop1352" />
      <stop
         offset="1"
         stop-color="#FFF500"
         id="stop1354" />
    </linearGradient>
    <linearGradient
       id="paint99_linear_88_1190"
       x1="214"
       y1="473.5"
       x2="289.5"
       y2="-58"
       gradientUnits="userSpaceOnUse">
      <stop
         stop-color="#FFB800"
         id="stop1357" />
      <stop
         offset="1"
         stop-color="#FFF500"
         id="stop1359" />
    </linearGradient>
    <linearGradient
       id="paint100_linear_88_1190"
       x1="214"
       y1="473.5"
       x2="289.5"
       y2="-58"
       gradientUnits="userSpaceOnUse">
      <stop
         stop-color="#FFB800"
         id="stop1362" />
      <stop
         offset="1"
         stop-color="#FFF500"
         id="stop1364" />
    </linearGradient>
    <linearGradient
       id="paint101_linear_88_1190"
       x1="214"
       y1="473.5"
       x2="289.5"
       y2="-58"
       gradientUnits="userSpaceOnUse">
      <stop
         stop-color="#FFB800"
         id="stop1367" />
      <stop
         offset="1"
         stop-color="#FFF500"
         id="stop1369" />
    </linearGradient>
    <linearGradient
       id="paint102_linear_88_1190"
       x1="214"
       y1="473.5"
       x2="289.5"
       y2="-58"
       gradientUnits="userSpaceOnUse">
      <stop
         stop-color="#FFB800"
         id="stop1372" />
      <stop
         offset="1"
         stop-color="#FFF500"
         id="stop1374" />
    </linearGradient>
    <linearGradient
       id="paint103_linear_88_1190"
       x1="214"
       y1="473.5"
       x2="289.5"
       y2="-58"
       gradientUnits="userSpaceOnUse">
      <stop
         stop-color="#FFB800"
         id="stop1377" />
      <stop
         offset="1"
         stop-color="#FFF500"
         id="stop1379" />
    </linearGradient>
    <linearGradient
       id="paint104_linear_88_1190"
       x1="236.659"
       y1="-11.742"
       x2="236.659"
       y2="472.745"
       gradientUnits="userSpaceOnUse">
      <stop
         stop-color="#FAFF00"
         id="stop1382" />
      <stop
         offset="0.312426"
         stop-color="#FFB016"
         id="stop1384" />
      <stop
         offset="1"
         stop-color="#FF00C7"
         id="stop1386" />
    </linearGradient>
  </defs>
</svg>
