<svg width="380" height="101" viewBox="0 0 380 101" fill="none" xmlns="http://www.w3.org/2000/svg">
<rect x="4.51953" y="9.40967" width="49.9297" height="74.8945" fill="white"/>
<path d="M26.5985 56.5485C25.6467 57.4946 24.3823 58.0165 23.0263 58.0165C21.6703 58.0165 20.4059 57.4946 19.4541 56.5465C17.4888 54.5787 17.4888 51.3739 19.4541 49.408L23.3148 45.5479C23.7053 45.1575 23.7054 44.5243 23.315 44.1338L21.9097 42.7282C21.5191 42.3374 20.8857 42.3375 20.4952 42.7283L16.6366 46.5897C13.1201 50.1131 13.1201 55.8395 16.6426 59.3629C18.341 61.0659 20.605 62 23.0263 62C25.4476 62 27.7116 61.0659 29.4101 59.3609L33.27 55.4998C33.6608 55.1089 33.6604 54.4751 33.269 54.0848L31.8661 52.6854C31.4752 52.2955 30.8422 52.2962 30.4521 52.6871L26.5985 56.5485ZM41.3572 34.6391C39.6587 32.9341 37.3947 32 34.9734 32C32.5522 32 30.2882 32.9341 28.5897 34.6391L24.7299 38.4932C24.339 38.8836 24.3387 39.5171 24.7293 39.9079L26.1342 41.3132C26.5248 41.7038 27.1581 41.7038 27.5486 41.3132L31.4092 37.4515C32.353 36.5054 33.6174 35.9835 34.9734 35.9835C36.3294 35.9835 37.5938 36.5074 38.5456 37.4515C40.5129 39.4173 40.5129 42.6241 38.5456 44.59L34.6846 48.4521C34.2943 48.8426 34.2943 49.4756 34.6846 49.8661L36.0902 51.272C36.4807 51.6627 37.114 51.6627 37.5046 51.272L41.3652 47.4103C44.8796 43.8889 44.8796 38.1605 41.3572 34.6391ZM35.6724 43.1379C36.0628 42.7474 36.0628 42.1144 35.6724 41.7239L34.2669 40.318C33.8764 39.9273 33.243 39.9273 32.8525 40.318L22.3194 50.8541C21.929 51.2446 21.929 51.8777 22.3194 52.2682L23.7249 53.6741C24.1154 54.0647 24.7487 54.0647 25.1393 53.6741L35.6724 43.1379Z" fill="url(#paint0_linear_82_9)"/>
<path fill-rule="evenodd" clip-rule="evenodd" d="M9.6534 0.000242498H48.266C53.5972 0.000242498 57.9194 4.3552 57.9194 9.72755V91.273C57.9194 96.6453 53.5972 101 48.266 101H9.6534C4.32201 101 0 96.6453 0 91.273V9.72755C0 4.3552 4.32201 0.000242498 9.6534 0.000242498ZM22.2773 3.33777C21.3548 3.33777 20.6071 4.09141 20.6071 5.02122C20.6071 5.95103 21.3548 6.70467 22.2773 6.70467H35.6421C36.5646 6.70467 37.3123 5.95103 37.3123 5.02122C37.3123 4.09141 36.5646 3.33777 35.6421 3.33777H22.2773ZM4.45536 10.0721V84.1467H53.4641V10.0721H4.45536ZM28.9597 88.9205C26.6547 88.9205 24.7868 90.8032 24.7868 93.1257C24.7868 95.4478 26.6547 97.3309 28.9597 97.3309C31.2647 97.3309 33.1326 95.4478 33.1326 93.1257C33.1326 90.8032 31.2647 88.9205 28.9597 88.9205Z" fill="url(#paint1_linear_82_9)"/>
<path d="M87.0449 63V36.1699H90.4775L99.6064 51.0137L108.643 36.1699H111.945V63H108.42V42.2002L100.905 54.502H98.1406L90.6074 42.2373V63H87.0449ZM128.782 63.4082C126.815 63.4082 125.232 63.1423 124.032 62.6104C122.844 62.0661 121.978 61.3239 121.434 60.3838C120.902 59.4437 120.636 58.3675 120.636 57.1553V49.2324C120.636 48.0202 120.902 46.944 121.434 46.0039C121.978 45.0514 122.844 44.3092 124.032 43.7773C125.232 43.2331 126.815 42.9609 128.782 42.9609C130.736 42.9609 132.307 43.2331 133.495 43.7773C134.695 44.3092 135.567 45.0514 136.111 46.0039C136.655 46.944 136.927 48.0202 136.927 49.2324V57.1553C136.927 58.3675 136.655 59.4437 136.111 60.3838C135.567 61.3239 134.695 62.0661 133.495 62.6104C132.307 63.1423 130.736 63.4082 128.782 63.4082ZM128.782 60.7363C130.143 60.7363 131.256 60.4951 132.122 60.0127C133 59.5179 133.439 58.6644 133.439 57.4521V48.9355C133.439 47.7233 133 46.8698 132.122 46.375C131.256 45.8802 130.143 45.6328 128.782 45.6328C127.396 45.6328 126.271 45.8802 125.405 46.375C124.551 46.8698 124.125 47.7233 124.125 48.9355V57.4521C124.125 58.6644 124.551 59.5179 125.405 60.0127C126.271 60.4951 127.396 60.7363 128.782 60.7363ZM153.189 63.4082C152.026 63.4082 151.005 63.2041 150.127 62.7959C149.261 62.3753 148.569 62.0042 148.049 61.6826L147.604 63H145.025V35.0752H148.513V44.2598C149.144 43.901 149.935 43.598 150.888 43.3506C151.84 43.0908 152.842 42.9609 153.894 42.9609C156.318 42.9609 158.137 43.5609 159.349 44.7607C160.561 45.9606 161.167 47.4883 161.167 49.3438V56.4688C161.167 57.7799 160.858 58.9613 160.239 60.0127C159.621 61.0641 158.718 61.8929 157.53 62.499C156.343 63.1051 154.896 63.4082 153.189 63.4082ZM152.669 60.6621C154.042 60.6621 155.217 60.3281 156.195 59.6602C157.184 58.9798 157.679 58.0397 157.679 56.8398V49.084C157.679 47.9089 157.295 47.043 156.529 46.4863C155.774 45.9173 154.753 45.6328 153.467 45.6328C152.651 45.6328 151.785 45.7627 150.869 46.0225C149.954 46.2822 149.168 46.5605 148.513 46.8574V59.5117C149.02 59.7962 149.632 60.0622 150.35 60.3096C151.067 60.5446 151.84 60.6621 152.669 60.6621ZM169.636 43.332H173.124V63H169.636V43.332ZM169.58 35.0752H173.179V38.9346H169.58V35.0752ZM182.297 56.3574V35.0752H185.786V56.3945C185.786 57.4583 185.885 58.2686 186.082 58.8252C186.28 59.3695 186.639 59.7406 187.159 59.9385C187.678 60.124 188.426 60.2168 189.404 60.2168H190.016L189.608 63.1484H188.606C187.171 63.1484 185.983 62.9814 185.043 62.6475C184.116 62.3135 183.423 61.6579 182.965 60.6807C182.52 59.7035 182.297 58.2624 182.297 56.3574ZM196.332 56.0605V49.2139C196.332 47.3584 196.969 45.8555 198.243 44.7051C199.517 43.5423 201.564 42.9609 204.385 42.9609C207.081 42.9609 209.067 43.4928 210.341 44.5566C211.615 45.6081 212.252 47.0677 212.252 48.9355V53.6113H199.82V56.376C199.82 57.9717 200.136 59.0973 200.767 59.7529C201.41 60.4085 202.659 60.7363 204.515 60.7363C205.616 60.7363 206.481 60.6992 207.112 60.625C207.756 60.5384 208.226 60.291 208.522 59.8828C208.832 59.4622 209.036 58.7572 209.135 57.7676H212.215C212.054 59.3138 211.714 60.4951 211.194 61.3115C210.687 62.1156 209.902 62.666 208.838 62.9629C207.774 63.2598 206.333 63.4082 204.515 63.4082C201.583 63.4082 199.486 62.7959 198.225 61.5713C196.963 60.3467 196.332 58.5098 196.332 56.0605ZM208.875 51.2549V48.5645C208.875 47.377 208.461 46.5915 207.632 46.208C206.815 45.8245 205.733 45.6328 204.385 45.6328C202.999 45.6328 201.892 45.874 201.063 46.3564C200.235 46.8389 199.82 47.6862 199.82 48.8984V51.2549H208.875ZM230.721 63.4082C228.482 63.4082 226.658 63.1794 225.248 62.7217C223.837 62.264 222.749 61.6208 221.982 60.792C221.227 59.9508 220.702 58.9551 220.405 57.8047C220.12 56.6543 219.978 55.3802 219.978 53.9824V45.5586C219.978 44.1361 220.114 42.8311 220.386 41.6436C220.671 40.4437 221.19 39.4046 221.945 38.5264C222.712 37.6481 223.794 36.9678 225.192 36.4854C226.602 36.0029 228.433 35.7617 230.684 35.7617C233.393 35.7617 235.471 36.0895 236.919 36.7451C238.366 37.3883 239.362 38.3408 239.906 39.6025C240.45 40.8643 240.722 42.4167 240.722 44.2598V44.501L237.178 44.8164V44.3154C237.178 42.695 236.968 41.4889 236.547 40.6973C236.139 39.9056 235.459 39.3861 234.506 39.1387C233.554 38.8913 232.28 38.7676 230.684 38.7676C229.113 38.7676 227.814 38.9469 226.788 39.3057C225.761 39.652 224.994 40.2705 224.487 41.1611C223.98 42.0394 223.726 43.2764 223.726 44.8721V54.5576C223.726 56.141 223.986 57.3532 224.505 58.1943C225.025 59.0355 225.804 59.6169 226.843 59.9385C227.895 60.2477 229.212 60.4023 230.796 60.4023C232.354 60.4023 233.597 60.2972 234.525 60.0869C235.465 59.8766 236.139 59.4004 236.547 58.6582C236.968 57.9036 237.178 56.7285 237.178 55.1328V54.6875H240.722V54.873C240.722 56.2214 240.592 57.4274 240.333 58.4912C240.085 59.5426 239.615 60.4333 238.922 61.1631C238.23 61.8929 237.222 62.4495 235.898 62.833C234.587 63.2165 232.861 63.4082 230.721 63.4082ZM256.408 63.4082C254.442 63.4082 252.858 63.1423 251.658 62.6104C250.471 62.0661 249.605 61.3239 249.061 60.3838C248.529 59.4437 248.263 58.3675 248.263 57.1553V49.2324C248.263 48.0202 248.529 46.944 249.061 46.0039C249.605 45.0514 250.471 44.3092 251.658 43.7773C252.858 43.2331 254.442 42.9609 256.408 42.9609C258.363 42.9609 259.934 43.2331 261.121 43.7773C262.321 44.3092 263.193 45.0514 263.738 46.0039C264.282 46.944 264.554 48.0202 264.554 49.2324V57.1553C264.554 58.3675 264.282 59.4437 263.738 60.3838C263.193 61.3239 262.321 62.0661 261.121 62.6104C259.934 63.1423 258.363 63.4082 256.408 63.4082ZM256.408 60.7363C257.769 60.7363 258.882 60.4951 259.748 60.0127C260.627 59.5179 261.066 58.6644 261.066 57.4521V48.9355C261.066 47.7233 260.627 46.8698 259.748 46.375C258.882 45.8802 257.769 45.6328 256.408 45.6328C255.023 45.6328 253.897 45.8802 253.031 46.375C252.178 46.8698 251.751 47.7233 251.751 48.9355V57.4521C251.751 58.6644 252.178 59.5179 253.031 60.0127C253.897 60.4951 255.023 60.7363 256.408 60.7363ZM272.651 43.332H276.139V45.2432C276.721 44.5752 277.482 44.0309 278.422 43.6104C279.362 43.1774 280.543 42.9609 281.966 42.9609C283.586 42.9609 284.885 43.2269 285.862 43.7588C286.852 44.2783 287.569 44.9772 288.014 45.8555C288.46 46.7214 288.682 47.6738 288.682 48.7129V63H285.194V48.5088C285.194 47.5316 284.811 46.8079 284.044 46.3379C283.277 45.8678 282.287 45.6328 281.075 45.6328C279.368 45.6328 278.119 45.9544 277.327 46.5977C276.535 47.2409 276.139 48.0387 276.139 48.9912V63H272.651V43.332ZM297.299 43.332H300.788V45.2432C301.369 44.5752 302.13 44.0309 303.07 43.6104C304.01 43.1774 305.191 42.9609 306.614 42.9609C308.234 42.9609 309.533 43.2269 310.51 43.7588C311.5 44.2783 312.217 44.9772 312.663 45.8555C313.108 46.7214 313.33 47.6738 313.33 48.7129V63H309.842V48.5088C309.842 47.5316 309.459 46.8079 308.692 46.3379C307.925 45.8678 306.935 45.6328 305.723 45.6328C304.016 45.6328 302.767 45.9544 301.975 46.5977C301.183 47.2409 300.788 48.0387 300.788 48.9912V63H297.299V43.332ZM321.242 56.0605V49.2139C321.242 47.3584 321.879 45.8555 323.153 44.7051C324.427 43.5423 326.475 42.9609 329.295 42.9609C331.992 42.9609 333.977 43.4928 335.251 44.5566C336.525 45.6081 337.162 47.0677 337.162 48.9355V53.6113H324.73V56.376C324.73 57.9717 325.046 59.0973 325.677 59.7529C326.32 60.4085 327.569 60.7363 329.425 60.7363C330.526 60.7363 331.392 60.6992 332.022 60.625C332.666 60.5384 333.136 60.291 333.433 59.8828C333.742 59.4622 333.946 58.7572 334.045 57.7676H337.125C336.964 59.3138 336.624 60.4951 336.104 61.3115C335.597 62.1156 334.812 62.666 333.748 62.9629C332.684 63.2598 331.243 63.4082 329.425 63.4082C326.493 63.4082 324.396 62.7959 323.135 61.5713C321.873 60.3467 321.242 58.5098 321.242 56.0605ZM333.785 51.2549V48.5645C333.785 47.377 333.371 46.5915 332.542 46.208C331.726 45.8245 330.643 45.6328 329.295 45.6328C327.91 45.6328 326.802 45.874 325.974 46.3564C325.145 46.8389 324.73 47.6862 324.73 48.8984V51.2549H333.785ZM352.254 63.4082C350.3 63.4082 348.735 63.099 347.56 62.4805C346.397 61.8496 345.556 61.0208 345.037 59.9941C344.517 58.9551 344.257 57.8294 344.257 56.6172V49.1211C344.257 47.2656 344.962 45.7751 346.373 44.6494C347.795 43.5238 349.725 42.9609 352.162 42.9609C353.733 42.9609 355.1 43.1465 356.262 43.5176C357.425 43.8763 358.322 44.5319 358.953 45.4844C359.596 46.4368 359.918 47.7975 359.918 49.5664L356.596 49.8818C356.596 48.682 356.46 47.779 356.188 47.1729C355.916 46.5667 355.464 46.1585 354.834 45.9482C354.203 45.738 353.343 45.6328 352.254 45.6328C350.758 45.6328 349.632 45.9049 348.878 46.4492C348.123 46.9811 347.746 47.9027 347.746 49.2139V56.9141C347.746 58.3242 348.142 59.3138 348.933 59.8828C349.737 60.4518 350.844 60.7363 352.254 60.7363C353.405 60.7363 354.277 60.6559 354.871 60.4951C355.477 60.3219 355.904 59.988 356.151 59.4932C356.398 58.986 356.565 58.2376 356.652 57.248H359.88C359.757 58.7572 359.435 59.9632 358.916 60.8662C358.396 61.7692 357.598 62.4186 356.522 62.8145C355.458 63.2103 354.036 63.4082 352.254 63.4082ZM368.701 57.3779V45.9668H365.417V43.332H368.831L369.258 37.2461H372.19V43.332H377.125V45.9668H372.19V57.1553C372.19 58.4541 372.573 59.2891 373.34 59.6602C374.107 60.0312 375.319 60.2168 376.977 60.2168H377.366L376.995 63.1484H376.476C373.792 63.1484 371.825 62.7279 370.575 61.8867C369.326 61.0456 368.701 59.5426 368.701 57.3779Z" fill="#2C2C2C"/>
<path d="M277.56 91.192C276.707 91.192 275.987 91.0373 275.4 90.728C274.824 90.408 274.381 89.9227 274.072 89.272C273.773 88.6213 273.624 87.7947 273.624 86.792C273.624 85.7787 273.773 84.952 274.072 84.312C274.381 83.6613 274.824 83.1813 275.4 82.872C275.987 82.552 276.707 82.392 277.56 82.392C278.413 82.392 279.128 82.552 279.704 82.872C280.291 83.1813 280.733 83.6613 281.032 84.312C281.331 84.952 281.48 85.7787 281.48 86.792C281.48 87.7947 281.331 88.6213 281.032 89.272C280.733 89.9227 280.291 90.408 279.704 90.728C279.128 91.0373 278.413 91.192 277.56 91.192ZM277.56 90.008C278.104 90.008 278.557 89.9013 278.92 89.688C279.283 89.4747 279.555 89.144 279.736 88.696C279.928 88.2373 280.024 87.6613 280.024 86.968V86.616C280.024 85.912 279.928 85.336 279.736 84.888C279.555 84.44 279.283 84.1093 278.92 83.896C278.557 83.6827 278.104 83.576 277.56 83.576C277.016 83.576 276.557 83.6827 276.184 83.896C275.821 84.1093 275.549 84.44 275.368 84.888C275.187 85.336 275.096 85.912 275.096 86.616V86.968C275.096 87.6613 275.187 88.2373 275.368 88.696C275.549 89.144 275.821 89.4747 276.184 89.688C276.557 89.9013 277.016 90.008 277.56 90.008ZM284.029 91V82.584H285.165L285.293 83.848H285.405C285.629 83.5067 285.88 83.2293 286.157 83.016C286.445 82.8027 286.76 82.648 287.101 82.552C287.453 82.4453 287.826 82.392 288.221 82.392C288.754 82.392 289.218 82.4827 289.613 82.664C290.018 82.8453 290.333 83.1387 290.557 83.544C290.792 83.9493 290.909 84.4987 290.909 85.192V91H289.501V85.384C289.501 85.032 289.453 84.744 289.357 84.52C289.272 84.296 289.149 84.12 288.989 83.992C288.84 83.864 288.653 83.7733 288.429 83.72C288.216 83.6667 287.976 83.64 287.709 83.64C287.314 83.64 286.941 83.736 286.589 83.928C286.237 84.12 285.954 84.3973 285.741 84.76C285.538 85.1227 285.437 85.5547 285.437 86.056V91H284.029Z" fill="#565656"/>
<path d="M316.836 81.7095H316.836C316.885 81.7096 316.932 81.7004 316.974 81.684C317.016 81.6674 317.05 81.6445 317.076 81.6193L316.836 81.7095ZM316.836 81.7095H300.711L303.926 78.5904L303.926 78.5903C303.952 78.5652 303.986 78.5423 304.028 78.5257C304.07 78.5093 304.117 78.5001 304.165 78.5H320.29L317.077 81.619L316.836 81.7095ZM316.974 94.4742L316.974 94.4744C316.932 94.4909 316.885 94.5 316.836 94.5H316.836H300.711L303.926 91.3809L303.926 91.3806C303.952 91.3556 303.986 91.3328 304.028 91.3162L304.029 91.3162C304.07 91.2998 304.117 91.2906 304.165 91.2905C304.166 91.2905 304.166 91.2905 304.166 91.2905L320.29 91.2905L317.077 94.4095C317.076 94.4095 317.076 94.4096 317.076 94.4096C317.05 94.4352 317.016 94.4579 316.974 94.4742ZM300.457 94.746C300.457 94.7461 300.457 94.7462 300.457 94.7463L300.457 94.7461L300.457 94.746ZM320.543 91.0441L320.543 91.0445L320.543 91.0441ZM316.974 84.9208L316.974 84.921C317.016 84.9374 317.05 84.9601 317.077 84.9858L320.29 88.1048L304.166 88.1048C304.166 88.1048 304.166 88.1048 304.165 88.1048C304.117 88.1046 304.07 88.0954 304.029 88.0791L304.028 88.079C303.986 88.0625 303.952 88.0396 303.926 88.0146L303.926 88.0144L300.711 84.8953H316.836H316.836C316.885 84.8952 316.932 84.9044 316.974 84.9208Z" stroke="#767676"/>
<path d="M329.408 92.192C328.811 92.192 328.235 92.1333 327.68 92.016C327.136 91.8987 326.651 91.712 326.224 91.456C325.797 91.1893 325.456 90.848 325.2 90.432C324.955 90.016 324.832 89.504 324.832 88.896C324.832 88.8427 324.832 88.7893 324.832 88.736C324.843 88.6827 324.848 88.6293 324.848 88.576H326.384C326.384 88.608 326.379 88.6613 326.368 88.736C326.368 88.8 326.368 88.8587 326.368 88.912C326.368 89.3387 326.496 89.7013 326.752 90C327.008 90.2987 327.36 90.5227 327.808 90.672C328.267 90.8107 328.784 90.88 329.36 90.88C329.616 90.88 329.883 90.864 330.16 90.832C330.448 90.8 330.72 90.7467 330.976 90.672C331.243 90.5867 331.477 90.48 331.68 90.352C331.893 90.2133 332.059 90.048 332.176 89.856C332.304 89.6533 332.368 89.408 332.368 89.12C332.368 88.7573 332.261 88.4587 332.048 88.224C331.845 87.9787 331.573 87.7813 331.232 87.632C330.891 87.472 330.501 87.3333 330.064 87.216C329.637 87.088 329.195 86.9653 328.736 86.848C328.277 86.7307 327.829 86.5973 327.392 86.448C326.965 86.288 326.581 86.096 326.24 85.872C325.899 85.6373 325.621 85.3493 325.408 85.008C325.205 84.6667 325.104 84.2507 325.104 83.76C325.104 83.3013 325.195 82.8907 325.376 82.528C325.568 82.1653 325.845 81.8613 326.208 81.616C326.581 81.36 327.04 81.168 327.584 81.04C328.128 80.9013 328.752 80.832 329.456 80.832C330.032 80.832 330.565 80.896 331.056 81.024C331.557 81.1413 331.995 81.328 332.368 81.584C332.752 81.8293 333.051 82.144 333.264 82.528C333.477 82.912 333.584 83.376 333.584 83.92V84.112H332.08V83.872C332.08 83.5093 331.968 83.2 331.744 82.944C331.52 82.688 331.211 82.4907 330.816 82.352C330.432 82.2133 329.995 82.144 329.504 82.144C328.864 82.144 328.331 82.208 327.904 82.336C327.477 82.4533 327.157 82.6293 326.944 82.864C326.741 83.088 326.64 83.344 326.64 83.632C326.64 83.9627 326.741 84.24 326.944 84.464C327.157 84.688 327.435 84.8747 327.776 85.024C328.117 85.1627 328.507 85.2907 328.944 85.408C329.381 85.5253 329.824 85.648 330.272 85.776C330.731 85.8933 331.173 86.032 331.6 86.192C332.037 86.3413 332.427 86.5333 332.768 86.768C333.12 86.992 333.397 87.28 333.6 87.632C333.803 87.9733 333.904 88.3947 333.904 88.896C333.904 89.6747 333.712 90.3093 333.328 90.8C332.944 91.28 332.416 91.632 331.744 91.856C331.072 92.08 330.293 92.192 329.408 92.192ZM340.126 92.192C339.272 92.192 338.552 92.0373 337.966 91.728C337.39 91.408 336.947 90.9227 336.638 90.272C336.339 89.6213 336.19 88.7947 336.19 87.792C336.19 86.7787 336.339 85.952 336.638 85.312C336.947 84.6613 337.39 84.1813 337.966 83.872C338.552 83.552 339.272 83.392 340.126 83.392C340.979 83.392 341.694 83.552 342.27 83.872C342.856 84.1813 343.299 84.6613 343.598 85.312C343.896 85.952 344.046 86.7787 344.046 87.792C344.046 88.7947 343.896 89.6213 343.598 90.272C343.299 90.9227 342.856 91.408 342.27 91.728C341.694 92.0373 340.979 92.192 340.126 92.192ZM340.126 91.008C340.67 91.008 341.123 90.9013 341.486 90.688C341.848 90.4747 342.12 90.144 342.302 89.696C342.494 89.2373 342.59 88.6613 342.59 87.968V87.616C342.59 86.912 342.494 86.336 342.302 85.888C342.12 85.44 341.848 85.1093 341.486 84.896C341.123 84.6827 340.67 84.576 340.126 84.576C339.582 84.576 339.123 84.6827 338.75 84.896C338.387 85.1093 338.115 85.44 337.934 85.888C337.752 86.336 337.662 86.912 337.662 87.616V87.968C337.662 88.6613 337.752 89.2373 337.934 89.696C338.115 90.144 338.387 90.4747 338.75 90.688C339.123 90.9013 339.582 91.008 340.126 91.008ZM346.595 92V80.432H348.003V92H346.595ZM353.1 92.192C352.791 92.192 352.482 92.1547 352.172 92.08C351.863 92.0053 351.575 91.8827 351.308 91.712C351.042 91.5413 350.828 91.3067 350.668 91.008C350.508 90.6987 350.428 90.3147 350.428 89.856C350.428 89.28 350.567 88.8053 350.844 88.432C351.122 88.0587 351.506 87.7707 351.996 87.568C352.498 87.3547 353.09 87.2107 353.772 87.136C354.455 87.0507 355.196 87.008 355.996 87.008V86.048C355.996 85.7387 355.943 85.472 355.836 85.248C355.73 85.024 355.538 84.8533 355.26 84.736C354.994 84.608 354.61 84.544 354.108 84.544C353.628 84.544 353.244 84.608 352.956 84.736C352.679 84.8533 352.482 85.008 352.364 85.2C352.258 85.392 352.204 85.6053 352.204 85.84V86.08H350.844C350.834 86.0267 350.828 85.9733 350.828 85.92C350.828 85.8667 350.828 85.8027 350.828 85.728C350.828 85.216 350.967 84.7893 351.244 84.448C351.532 84.096 351.932 83.8347 352.444 83.664C352.956 83.4827 353.543 83.392 354.204 83.392C354.908 83.392 355.495 83.4933 355.964 83.696C356.444 83.8987 356.802 84.1867 357.036 84.56C357.282 84.9333 357.404 85.3813 357.404 85.904V90.464C357.404 90.6667 357.452 90.8107 357.548 90.896C357.644 90.9707 357.762 91.008 357.9 91.008H358.524V91.936C358.375 92 358.21 92.0533 358.028 92.096C357.847 92.1493 357.639 92.176 357.404 92.176C357.127 92.176 356.898 92.1173 356.716 92C356.535 91.8933 356.396 91.744 356.3 91.552C356.204 91.3493 356.14 91.1253 356.108 90.88H355.996C355.804 91.1467 355.559 91.3813 355.26 91.584C354.972 91.776 354.647 91.9253 354.284 92.032C353.922 92.1387 353.527 92.192 353.1 92.192ZM353.452 91.008C353.794 91.008 354.114 90.9547 354.412 90.848C354.722 90.7413 354.994 90.592 355.228 90.4C355.463 90.1973 355.65 89.9573 355.788 89.68C355.927 89.4027 355.996 89.0987 355.996 88.768V88.064C355.132 88.064 354.396 88.112 353.788 88.208C353.18 88.304 352.711 88.4747 352.38 88.72C352.06 88.9653 351.9 89.312 351.9 89.76C351.9 90.048 351.964 90.2827 352.092 90.464C352.22 90.6453 352.402 90.784 352.636 90.88C352.871 90.9653 353.143 91.008 353.452 91.008ZM360.507 92V83.584H361.643L361.771 84.848H361.883C362.107 84.5067 362.358 84.2293 362.635 84.016C362.923 83.8027 363.238 83.648 363.579 83.552C363.931 83.4453 364.304 83.392 364.699 83.392C365.232 83.392 365.696 83.4827 366.091 83.664C366.496 83.8453 366.811 84.1387 367.035 84.544C367.27 84.9493 367.387 85.4987 367.387 86.192V92H365.979V86.384C365.979 86.032 365.931 85.744 365.835 85.52C365.75 85.296 365.627 85.12 365.467 84.992C365.318 84.864 365.131 84.7733 364.907 84.72C364.694 84.6667 364.454 84.64 364.187 84.64C363.792 84.64 363.419 84.736 363.067 84.928C362.715 85.12 362.432 85.3973 362.219 85.76C362.016 86.1227 361.915 86.5547 361.915 87.056V92H360.507ZM372.435 92.192C372.125 92.192 371.816 92.1547 371.507 92.08C371.197 92.0053 370.909 91.8827 370.643 91.712C370.376 91.5413 370.163 91.3067 370.003 91.008C369.843 90.6987 369.763 90.3147 369.763 89.856C369.763 89.28 369.901 88.8053 370.179 88.432C370.456 88.0587 370.84 87.7707 371.331 87.568C371.832 87.3547 372.424 87.2107 373.107 87.136C373.789 87.0507 374.531 87.008 375.331 87.008V86.048C375.331 85.7387 375.277 85.472 375.171 85.248C375.064 85.024 374.872 84.8533 374.595 84.736C374.328 84.608 373.944 84.544 373.443 84.544C372.963 84.544 372.579 84.608 372.291 84.736C372.013 84.8533 371.816 85.008 371.699 85.2C371.592 85.392 371.539 85.6053 371.539 85.84V86.08H370.179C370.168 86.0267 370.163 85.9733 370.163 85.92C370.163 85.8667 370.163 85.8027 370.163 85.728C370.163 85.216 370.301 84.7893 370.579 84.448C370.867 84.096 371.267 83.8347 371.779 83.664C372.291 83.4827 372.877 83.392 373.539 83.392C374.243 83.392 374.829 83.4933 375.299 83.696C375.779 83.8987 376.136 84.1867 376.371 84.56C376.616 84.9333 376.739 85.3813 376.739 85.904V90.464C376.739 90.6667 376.787 90.8107 376.883 90.896C376.979 90.9707 377.096 91.008 377.235 91.008H377.859V91.936C377.709 92 377.544 92.0533 377.363 92.096C377.181 92.1493 376.973 92.176 376.739 92.176C376.461 92.176 376.232 92.1173 376.051 92C375.869 91.8933 375.731 91.744 375.635 91.552C375.539 91.3493 375.475 91.1253 375.443 90.88H375.331C375.139 91.1467 374.893 91.3813 374.595 91.584C374.307 91.776 373.981 91.9253 373.619 92.032C373.256 92.1387 372.861 92.192 372.435 92.192ZM372.787 91.008C373.128 91.008 373.448 90.9547 373.747 90.848C374.056 90.7413 374.328 90.592 374.563 90.4C374.797 90.1973 374.984 89.9573 375.123 89.68C375.261 89.4027 375.331 89.0987 375.331 88.768V88.064C374.467 88.064 373.731 88.112 373.123 88.208C372.515 88.304 372.045 88.4747 371.715 88.72C371.395 88.9653 371.235 89.312 371.235 89.76C371.235 90.048 371.299 90.2827 371.427 90.464C371.555 90.6453 371.736 90.784 371.971 90.88C372.205 90.9653 372.477 91.008 372.787 91.008Z" fill="#565656"/>
<defs>
<linearGradient id="paint0_linear_82_9" x1="5.42857" y1="73.5714" x2="57.9741" y2="16.714" gradientUnits="userSpaceOnUse">
<stop stop-color="#FE13BB"/>
<stop offset="1" stop-color="#FFE100"/>
</linearGradient>
<linearGradient id="paint1_linear_82_9" x1="9.58475" y1="108.518" x2="54.0893" y2="16.0262" gradientUnits="userSpaceOnUse">
<stop stop-color="#FF01CB"/>
<stop offset="1" stop-color="#F1D819"/>
</linearGradient>
</defs>
</svg>
