<svg width="215" height="375" viewBox="0 0 215 375" fill="none" xmlns="http://www.w3.org/2000/svg">
<rect x="13" y="35" width="189" height="282" fill="white"/>
<rect x="75" y="300" width="66" height="68" fill="white"/>
<rect x="55" y="4" width="96" height="68" fill="white"/>
<path d="M98.7351 209.91C95.202 213.422 90.5085 215.359 85.4749 215.359C80.4414 215.359 75.7478 213.422 72.2147 209.903C64.9194 202.598 64.9194 190.702 72.2147 183.405L88.4635 167.158C88.854 166.768 88.8541 166.135 88.4637 165.744L79.4117 156.689C79.0211 156.299 78.3877 156.299 77.9972 156.69L61.7559 172.943C48.7027 186.022 48.7027 207.278 61.7781 220.358C68.0829 226.679 76.487 230.147 85.4749 230.147C94.4629 230.147 102.867 226.679 109.172 220.35L125.42 204.097C125.811 203.706 125.81 203.073 125.419 202.682L116.369 193.656C115.978 193.266 115.345 193.266 114.955 193.657L98.7351 209.91ZM153.52 128.581C147.215 122.252 138.811 118.785 129.823 118.785C120.835 118.785 112.431 122.252 106.126 128.581L89.8786 144.806C89.4877 145.196 89.4874 145.829 89.878 146.22L98.9296 155.274C99.3202 155.665 99.9535 155.665 100.344 155.274L116.593 139.021C120.096 135.509 124.79 133.572 129.823 133.572C134.857 133.572 139.55 135.517 143.083 139.021C150.386 146.318 150.386 158.222 143.083 165.52L126.834 181.773C126.444 182.164 126.444 182.797 126.834 183.187L135.887 192.242C136.277 192.633 136.911 192.633 137.301 192.242L153.55 175.989C166.596 162.917 166.596 141.653 153.52 128.581ZM134.335 158.212C134.725 157.821 134.725 157.188 134.335 156.798L125.283 147.743C124.892 147.352 124.259 147.352 123.868 147.743L80.9338 190.69C80.5434 191.08 80.5434 191.713 80.9338 192.104L89.986 201.159C90.3766 201.549 91.0099 201.549 91.4004 201.159L134.335 158.212Z" fill="url(#paint0_linear_122_20)"/>
<path fill-rule="evenodd" clip-rule="evenodd" d="M35.8339 0.000117301H179.166C198.956 0.000117301 215 16.166 215 36.1084V338.809C215 358.752 198.956 374.918 179.166 374.918H35.8339C16.0435 374.918 0 358.752 0 338.809V36.1084C0 16.166 16.0435 0.000117301 35.8339 0.000117301ZM82.6945 12.3892C79.2703 12.3892 76.4945 15.1868 76.4945 18.6383C76.4945 22.0898 79.2703 24.8873 82.6945 24.8873H132.305C135.73 24.8873 138.505 22.0898 138.505 18.6383C138.505 15.1868 135.73 12.3892 132.305 12.3892H82.6945ZM16.5385 37.3873V312.356H198.462V37.3873H16.5385ZM107.5 330.077C98.9439 330.077 92.01 337.066 92.01 345.687C92.01 354.307 98.9439 361.297 107.5 361.297C116.056 361.297 122.99 354.307 122.99 345.687C122.99 337.066 116.056 330.077 107.5 330.077Z" fill="url(#paint1_linear_122_20)"/>
<defs>
<linearGradient id="paint0_linear_122_20" x1="20.1511" y1="273.1" x2="215.203" y2="62.0424" gradientUnits="userSpaceOnUse">
<stop stop-color="#FE13BB"/>
<stop offset="1" stop-color="#FFE100"/>
</linearGradient>
<linearGradient id="paint1_linear_122_20" x1="35.5791" y1="402.825" x2="200.782" y2="59.4893" gradientUnits="userSpaceOnUse">
<stop stop-color="#FF01CB"/>
<stop offset="1" stop-color="#F1D819"/>
</linearGradient>
</defs>
</svg>
