<svg width="49" height="49" viewBox="0 0 49 49" fill="none" xmlns="http://www.w3.org/2000/svg">
<path d="M20.5776 40.0959C19.023 41.6412 16.9578 42.4936 14.743 42.4936C12.5282 42.4936 10.463 41.6412 8.90839 40.0927C5.69839 36.8785 5.69839 31.6441 8.90839 28.4331L15.662 21.6805C16.0525 21.29 16.0526 20.6569 15.6622 20.2664L12.4712 17.0745C12.0806 16.6838 11.4472 16.6839 11.0567 17.0747L4.30642 23.8298C-1.4371 29.5848 -1.4371 38.9378 4.31618 44.6927C7.09037 47.4742 10.7882 49 14.743 49C18.6977 49 22.3956 47.4742 25.1698 44.6895L31.9227 37.9346C32.3135 37.5437 32.313 36.9099 31.9217 36.5196L28.7331 33.3391C28.3421 32.9491 27.7091 32.9498 27.3191 33.3407L20.5776 40.0959ZM44.6834 4.31052C41.9092 1.52576 38.2114 0 34.2566 0C30.3019 0 26.604 1.52576 23.8298 4.31052L17.0771 11.0534C16.6862 11.4438 16.6859 12.0773 17.0765 12.468L20.2671 15.6595C20.6577 16.0502 21.291 16.0502 21.6815 15.6595L28.435 8.90406C29.9766 7.35878 32.0418 6.50644 34.2566 6.50644C36.4714 6.50644 38.5366 7.36204 40.0912 8.90406C43.3045 12.115 43.3045 17.3527 40.0912 20.5636L33.3373 27.3195C32.9469 27.71 32.9469 28.343 33.3373 28.7335L36.5285 31.9256C36.919 32.3163 37.5524 32.3163 37.9429 31.9256L44.6964 25.1702C50.4367 19.4185 50.4367 10.0622 44.6834 4.31052ZM35.8459 17.7441C36.2363 17.3536 36.2363 16.7206 35.8459 16.3301L32.6547 13.138C32.2642 12.7473 31.6308 12.7473 31.2403 13.138L13.1407 31.2429C12.7503 31.6334 12.7503 32.2664 13.1407 32.6569L16.3319 35.849C16.7224 36.2397 17.3557 36.2397 17.7463 35.849L35.8459 17.7441Z" fill="url(#paint0_linear_116_174)"/>
<defs>
<linearGradient id="paint0_linear_116_174" x1="-14" y1="67.9" x2="71.8243" y2="-24.9671" gradientUnits="userSpaceOnUse">
<stop stop-color="#FE13BB"/>
<stop offset="1" stop-color="#FFE100"/>
</linearGradient>
</defs>
</svg>
