<svg width="256" height="258" viewBox="0 0 256 258" fill="none" xmlns="http://www.w3.org/2000/svg">
<rect x="2" y="2" width="251.081" height="253.892" rx="13" fill="white" stroke="url(#paint0_linear_162_11)" stroke-width="4"/>
<path d="M32.204 236.351V226.747H34.262L36.446 232.977C36.502 233.145 36.558 233.332 36.614 233.537C36.6793 233.733 36.7353 233.92 36.782 234.097C36.838 234.274 36.88 234.428 36.908 234.559H37.006C37.034 234.419 37.0713 234.26 37.118 234.083C37.1647 233.896 37.216 233.705 37.272 233.509C37.328 233.313 37.3793 233.136 37.426 232.977L39.61 226.747H41.654V236.351H40.324V230.723C40.324 230.434 40.3287 230.121 40.338 229.785C40.3473 229.44 40.3567 229.127 40.366 228.847C40.3753 228.558 40.38 228.352 40.38 228.231H40.268C40.24 228.352 40.1933 228.525 40.128 228.749C40.0627 228.964 39.9927 229.192 39.918 229.435C39.8527 229.668 39.792 229.878 39.736 230.065L37.482 236.351H36.334L34.08 230.065C34.024 229.906 33.9633 229.724 33.898 229.519C33.842 229.304 33.7813 229.085 33.716 228.861C33.66 228.637 33.604 228.427 33.548 228.231H33.45C33.4593 228.436 33.464 228.693 33.464 229.001C33.4733 229.3 33.478 229.603 33.478 229.911C33.4873 230.21 33.492 230.48 33.492 230.723V236.351H32.204ZM44.5195 227.601V226.229H45.7515V227.601H44.5195ZM44.5195 236.351V228.987H45.7515V236.351H44.5195ZM48.364 236.351V228.987H49.358L49.47 230.093H49.568C49.764 229.794 49.9834 229.552 50.226 229.365C50.478 229.178 50.7534 229.043 51.052 228.959C51.36 228.866 51.6867 228.819 52.032 228.819C52.4987 228.819 52.9047 228.898 53.25 229.057C53.6047 229.216 53.88 229.472 54.076 229.827C54.2814 230.182 54.384 230.662 54.384 231.269V236.351H53.152V231.437C53.152 231.129 53.11 230.877 53.026 230.681C52.9514 230.485 52.844 230.331 52.704 230.219C52.5734 230.107 52.41 230.028 52.214 229.981C52.0274 229.934 51.8174 229.911 51.584 229.911C51.2387 229.911 50.912 229.995 50.604 230.163C50.296 230.331 50.0487 230.574 49.862 230.891C49.6847 231.208 49.596 231.586 49.596 232.025V236.351H48.364ZM58.6747 236.519C58.2921 236.519 57.9934 236.449 57.7787 236.309C57.5641 236.16 57.4101 235.968 57.3167 235.735C57.2234 235.492 57.1767 235.236 57.1767 234.965V230.023H56.2247V228.987H57.2047L57.4287 226.929H58.4087V228.987H59.7947V230.023H58.4087V234.783C58.4087 235.016 58.4507 235.194 58.5347 235.315C58.6187 235.427 58.7774 235.483 59.0107 235.483H59.7947V236.295C59.7014 236.342 59.5894 236.379 59.4587 236.407C59.3281 236.435 59.1927 236.458 59.0527 236.477C58.9221 236.505 58.7961 236.519 58.6747 236.519ZM64.749 236.519C64.021 236.519 63.405 236.384 62.901 236.113C62.4063 235.833 62.0283 235.408 61.767 234.839C61.515 234.27 61.389 233.546 61.389 232.669C61.389 231.782 61.515 231.059 61.767 230.499C62.0283 229.93 62.411 229.51 62.915 229.239C63.419 228.959 64.049 228.819 64.805 228.819C65.4956 228.819 66.0743 228.954 66.541 229.225C67.0076 229.486 67.3576 229.883 67.591 230.415C67.8336 230.938 67.955 231.596 67.955 232.389V232.977H62.663C62.6816 233.565 62.7656 234.05 62.915 234.433C63.0736 234.806 63.307 235.082 63.615 235.259C63.923 235.427 64.3103 235.511 64.777 235.511C65.0943 235.511 65.3696 235.474 65.603 235.399C65.8456 235.315 66.0463 235.198 66.205 235.049C66.373 234.9 66.499 234.722 66.583 234.517C66.667 234.312 66.7136 234.088 66.723 233.845H67.927C67.9176 234.237 67.843 234.601 67.703 234.937C67.563 235.264 67.3576 235.544 67.087 235.777C66.8163 236.01 66.485 236.192 66.093 236.323C65.701 236.454 65.253 236.519 64.749 236.519ZM62.691 232.053H66.681C66.681 231.642 66.6343 231.297 66.541 231.017C66.4476 230.737 66.3123 230.508 66.135 230.331C65.967 230.154 65.7663 230.028 65.533 229.953C65.309 229.869 65.0523 229.827 64.763 229.827C64.3336 229.827 63.9696 229.906 63.671 230.065C63.3723 230.224 63.1436 230.466 62.985 230.793C62.8263 231.12 62.7283 231.54 62.691 232.053ZM72.6849 236.519C72.0782 236.519 71.5556 236.384 71.1169 236.113C70.6876 235.842 70.3516 235.422 70.1089 234.853C69.8756 234.274 69.7589 233.528 69.7589 232.613C69.7589 231.745 69.8802 231.031 70.1229 230.471C70.3656 229.911 70.7016 229.496 71.1309 229.225C71.5602 228.954 72.0596 228.819 72.6289 228.819C72.9556 228.819 73.2589 228.856 73.5389 228.931C73.8189 229.006 74.0662 229.122 74.2809 229.281C74.5049 229.44 74.7009 229.65 74.8689 229.911H74.9529V226.229H76.1849V236.351H75.1909L75.0789 235.301H74.9809C74.7289 235.712 74.4022 236.02 74.0009 236.225C73.5996 236.421 73.1609 236.519 72.6849 236.519ZM72.9789 235.441C73.4456 235.441 73.8236 235.338 74.1129 235.133C74.4022 234.928 74.6122 234.629 74.7429 234.237C74.8829 233.845 74.9529 233.36 74.9529 232.781V232.557C74.9529 232.053 74.9016 231.628 74.7989 231.283C74.6962 230.938 74.5562 230.662 74.3789 230.457C74.2016 230.252 73.9962 230.107 73.7629 230.023C73.5296 229.939 73.2822 229.897 73.0209 229.897C72.5636 229.897 72.1902 229.99 71.9009 230.177C71.6116 230.354 71.3969 230.639 71.2569 231.031C71.1169 231.414 71.0469 231.913 71.0469 232.529V232.823C71.0469 233.458 71.1216 233.971 71.2709 234.363C71.4202 234.746 71.6349 235.021 71.9149 235.189C72.2042 235.357 72.5589 235.441 72.9789 235.441ZM83.862 236.351L81.636 228.987H82.91L84.03 233.033C84.086 233.229 84.1374 233.444 84.184 233.677C84.24 233.901 84.2914 234.111 84.338 234.307C84.394 234.494 84.4314 234.638 84.45 234.741H84.534C84.5714 234.564 84.6134 234.363 84.66 234.139C84.716 233.915 84.7627 233.7 84.8 233.495C84.8467 233.29 84.884 233.131 84.912 233.019L85.92 228.987H87.25L88.272 233.019C88.3094 233.178 88.3514 233.364 88.398 233.579C88.4447 233.784 88.4914 233.99 88.538 234.195C88.594 234.4 88.6314 234.582 88.65 234.741H88.734C88.7714 234.592 88.8134 234.419 88.86 234.223C88.9067 234.018 88.958 233.812 89.014 233.607C89.07 233.392 89.1214 233.206 89.168 233.047L90.274 228.987H91.45L89.238 236.351H87.978L87.026 232.543C86.9887 232.366 86.942 232.16 86.886 231.927C86.83 231.684 86.774 231.442 86.718 231.199C86.6714 230.947 86.6294 230.728 86.592 230.541H86.508C86.4894 230.681 86.4567 230.858 86.41 231.073C86.3727 231.288 86.326 231.526 86.27 231.787C86.214 232.039 86.1487 232.291 86.074 232.543L85.122 236.351H83.862ZM93.2652 227.601V226.229H94.4972V227.601H93.2652ZM93.2652 236.351V228.987H94.4972V236.351H93.2652ZM98.8318 236.519C98.4491 236.519 98.1504 236.449 97.9358 236.309C97.7211 236.16 97.5671 235.968 97.4738 235.735C97.3804 235.492 97.3338 235.236 97.3338 234.965V230.023H96.3818V228.987H97.3618L97.5858 226.929H98.5658V228.987H99.9518V230.023H98.5658V234.783C98.5658 235.016 98.6078 235.194 98.6918 235.315C98.7758 235.427 98.9344 235.483 99.1678 235.483H99.9518V236.295C99.8584 236.342 99.7464 236.379 99.6158 236.407C99.4851 236.435 99.3498 236.458 99.2098 236.477C99.0791 236.505 98.9531 236.519 98.8318 236.519ZM101.966 236.351V226.229H103.198V229.911H103.296C103.483 229.659 103.693 229.454 103.926 229.295C104.159 229.136 104.416 229.02 104.696 228.945C104.985 228.861 105.298 228.819 105.634 228.819C106.101 228.819 106.507 228.898 106.852 229.057C107.207 229.216 107.482 229.472 107.678 229.827C107.883 230.182 107.986 230.662 107.986 231.269V236.351H106.754V231.437C106.754 231.129 106.712 230.877 106.628 230.681C106.553 230.485 106.446 230.331 106.306 230.219C106.175 230.107 106.012 230.028 105.816 229.981C105.629 229.934 105.419 229.911 105.186 229.911C104.841 229.911 104.514 229.995 104.206 230.163C103.898 230.322 103.651 230.56 103.464 230.877C103.287 231.185 103.198 231.568 103.198 232.025V236.351H101.966ZM114.278 236.351V226.747H117.456L118.828 231.661C118.884 231.838 118.94 232.048 118.996 232.291C119.052 232.534 119.108 232.776 119.164 233.019C119.23 233.252 119.281 233.462 119.318 233.649H119.43C119.449 233.49 119.482 233.304 119.528 233.089C119.575 232.865 119.626 232.627 119.682 232.375C119.738 232.123 119.799 231.88 119.864 231.647L121.236 226.747H124.358V236.351H122.3V231.801C122.3 231.381 122.3 230.961 122.3 230.541C122.31 230.112 122.319 229.738 122.328 229.421C122.347 229.104 122.356 228.898 122.356 228.805H122.244C122.226 228.908 122.179 229.099 122.104 229.379C122.039 229.65 121.964 229.939 121.88 230.247C121.806 230.555 121.736 230.821 121.67 231.045L120.172 236.351H118.352L116.84 231.059C116.784 230.863 116.719 230.634 116.644 230.373C116.579 230.102 116.514 229.827 116.448 229.547C116.392 229.258 116.336 229.01 116.28 228.805H116.168C116.178 229.057 116.187 229.36 116.196 229.715C116.206 230.06 116.215 230.42 116.224 230.793C116.234 231.157 116.238 231.493 116.238 231.801V236.351H114.278ZM130.407 236.519C129.605 236.519 128.923 236.384 128.363 236.113C127.803 235.833 127.379 235.408 127.089 234.839C126.8 234.26 126.655 233.537 126.655 232.669C126.655 231.782 126.8 231.059 127.089 230.499C127.379 229.93 127.803 229.51 128.363 229.239C128.923 228.959 129.605 228.819 130.407 228.819C131.229 228.819 131.915 228.959 132.465 229.239C133.025 229.51 133.45 229.93 133.739 230.499C134.029 231.059 134.173 231.782 134.173 232.669C134.173 233.537 134.029 234.26 133.739 234.839C133.45 235.408 133.025 235.833 132.465 236.113C131.915 236.384 131.229 236.519 130.407 236.519ZM130.407 235.007C130.837 235.007 131.177 234.928 131.429 234.769C131.691 234.61 131.882 234.368 132.003 234.041C132.125 233.714 132.185 233.313 132.185 232.837V232.501C132.185 232.025 132.125 231.624 132.003 231.297C131.882 230.97 131.691 230.728 131.429 230.569C131.177 230.401 130.837 230.317 130.407 230.317C129.987 230.317 129.647 230.401 129.385 230.569C129.133 230.728 128.947 230.97 128.825 231.297C128.704 231.624 128.643 232.025 128.643 232.501V232.837C128.643 233.313 128.704 233.714 128.825 234.041C128.947 234.368 129.133 234.61 129.385 234.769C129.647 234.928 129.987 235.007 130.407 235.007ZM140.421 236.519C139.945 236.519 139.507 236.426 139.105 236.239C138.713 236.043 138.396 235.749 138.153 235.357H138.055L137.901 236.351H136.305V226.229H138.251V229.799H138.335C138.485 229.584 138.667 229.402 138.881 229.253C139.096 229.104 139.339 228.996 139.609 228.931C139.88 228.856 140.174 228.819 140.491 228.819C141.07 228.819 141.574 228.954 142.003 229.225C142.442 229.496 142.783 229.916 143.025 230.485C143.268 231.045 143.389 231.768 143.389 232.655C143.389 233.542 143.268 234.27 143.025 234.839C142.792 235.408 142.451 235.833 142.003 236.113C141.565 236.384 141.037 236.519 140.421 236.519ZM139.819 234.923C140.211 234.923 140.519 234.848 140.743 234.699C140.977 234.54 141.145 234.307 141.247 233.999C141.35 233.691 141.401 233.304 141.401 232.837V232.515C141.401 232.048 141.35 231.661 141.247 231.353C141.145 231.036 140.977 230.802 140.743 230.653C140.519 230.494 140.211 230.415 139.819 230.415C139.539 230.415 139.301 230.466 139.105 230.569C138.909 230.662 138.746 230.802 138.615 230.989C138.494 231.166 138.401 231.39 138.335 231.661C138.27 231.932 138.237 232.23 138.237 232.557V232.809C138.237 233.248 138.293 233.626 138.405 233.943C138.517 234.26 138.69 234.503 138.923 234.671C139.157 234.839 139.455 234.923 139.819 234.923ZM145.523 227.909V226.229H147.469V227.909H145.523ZM145.523 236.351V228.987H147.469V236.351H145.523ZM149.955 236.351V226.229H151.901V236.351H149.955ZM157.734 236.519C156.922 236.519 156.24 236.384 155.69 236.113C155.139 235.833 154.724 235.408 154.444 234.839C154.164 234.27 154.024 233.546 154.024 232.669C154.024 231.782 154.164 231.059 154.444 230.499C154.724 229.93 155.134 229.51 155.676 229.239C156.226 228.959 156.898 228.819 157.692 228.819C158.438 228.819 159.068 228.954 159.582 229.225C160.095 229.486 160.482 229.897 160.744 230.457C161.005 231.008 161.136 231.722 161.136 232.599V233.103H155.998C156.016 233.532 156.082 233.896 156.194 234.195C156.315 234.494 156.497 234.718 156.74 234.867C156.992 235.007 157.323 235.077 157.734 235.077C157.958 235.077 158.158 235.049 158.336 234.993C158.522 234.937 158.681 234.853 158.812 234.741C158.942 234.629 159.045 234.489 159.12 234.321C159.194 234.153 159.232 233.962 159.232 233.747H161.136C161.136 234.214 161.052 234.62 160.884 234.965C160.716 235.31 160.482 235.6 160.184 235.833C159.885 236.057 159.526 236.23 159.106 236.351C158.695 236.463 158.238 236.519 157.734 236.519ZM156.026 231.871H159.134C159.134 231.591 159.096 231.348 159.022 231.143C158.956 230.938 158.863 230.77 158.742 230.639C158.62 230.508 158.471 230.415 158.294 230.359C158.126 230.294 157.934 230.261 157.72 230.261C157.365 230.261 157.066 230.322 156.824 230.443C156.59 230.555 156.408 230.732 156.278 230.975C156.156 231.208 156.072 231.507 156.026 231.871ZM167.73 236.519C166.731 236.519 165.877 236.346 165.168 236.001C164.458 235.646 163.917 235.1 163.544 234.363C163.18 233.626 162.998 232.688 162.998 231.549C162.998 229.869 163.408 228.623 164.23 227.811C165.06 226.99 166.227 226.579 167.73 226.579C168.551 226.579 169.288 226.719 169.942 226.999C170.595 227.279 171.108 227.699 171.482 228.259C171.864 228.819 172.056 229.524 172.056 230.373H169.956C169.956 229.925 169.862 229.547 169.676 229.239C169.498 228.931 169.242 228.698 168.906 228.539C168.579 228.371 168.196 228.287 167.758 228.287C167.16 228.287 166.666 228.404 166.274 228.637C165.891 228.87 165.606 229.216 165.42 229.673C165.242 230.121 165.154 230.672 165.154 231.325V231.759C165.154 232.431 165.247 232.996 165.434 233.453C165.62 233.901 165.9 234.242 166.274 234.475C166.656 234.699 167.146 234.811 167.744 234.811C168.21 234.811 168.616 234.732 168.962 234.573C169.307 234.414 169.573 234.181 169.76 233.873C169.946 233.565 170.04 233.187 170.04 232.739H172.056C172.056 233.588 171.869 234.293 171.496 234.853C171.132 235.413 170.623 235.833 169.97 236.113C169.316 236.384 168.57 236.519 167.73 236.519ZM177.619 236.519C176.816 236.519 176.135 236.384 175.575 236.113C175.015 235.833 174.59 235.408 174.301 234.839C174.012 234.26 173.867 233.537 173.867 232.669C173.867 231.782 174.012 231.059 174.301 230.499C174.59 229.93 175.015 229.51 175.575 229.239C176.135 228.959 176.816 228.819 177.619 228.819C178.44 228.819 179.126 228.959 179.677 229.239C180.237 229.51 180.662 229.93 180.951 230.499C181.24 231.059 181.385 231.782 181.385 232.669C181.385 233.537 181.24 234.26 180.951 234.839C180.662 235.408 180.237 235.833 179.677 236.113C179.126 236.384 178.44 236.519 177.619 236.519ZM177.619 235.007C178.048 235.007 178.389 234.928 178.641 234.769C178.902 234.61 179.094 234.368 179.215 234.041C179.336 233.714 179.397 233.313 179.397 232.837V232.501C179.397 232.025 179.336 231.624 179.215 231.297C179.094 230.97 178.902 230.728 178.641 230.569C178.389 230.401 178.048 230.317 177.619 230.317C177.199 230.317 176.858 230.401 176.597 230.569C176.345 230.728 176.158 230.97 176.037 231.297C175.916 231.624 175.855 232.025 175.855 232.501V232.837C175.855 233.313 175.916 233.714 176.037 234.041C176.158 234.368 176.345 234.61 176.597 234.769C176.858 234.928 177.199 235.007 177.619 235.007ZM183.517 236.351V228.987H185.127L185.281 229.995H185.379C185.547 229.752 185.748 229.542 185.981 229.365C186.224 229.188 186.494 229.052 186.793 228.959C187.092 228.866 187.418 228.819 187.773 228.819C188.258 228.819 188.683 228.908 189.047 229.085C189.411 229.262 189.691 229.542 189.887 229.925C190.092 230.308 190.195 230.807 190.195 231.423V236.351H188.249V231.731C188.249 231.498 188.221 231.302 188.165 231.143C188.109 230.975 188.025 230.84 187.913 230.737C187.81 230.625 187.68 230.546 187.521 230.499C187.362 230.452 187.185 230.429 186.989 230.429C186.7 230.429 186.438 230.499 186.205 230.639C185.972 230.779 185.79 230.97 185.659 231.213C185.528 231.456 185.463 231.736 185.463 232.053V236.351H183.517ZM192.639 236.351V228.987H194.249L194.403 229.995H194.501C194.669 229.752 194.87 229.542 195.103 229.365C195.346 229.188 195.616 229.052 195.915 228.959C196.214 228.866 196.54 228.819 196.895 228.819C197.38 228.819 197.805 228.908 198.169 229.085C198.533 229.262 198.813 229.542 199.009 229.925C199.214 230.308 199.317 230.807 199.317 231.423V236.351H197.371V231.731C197.371 231.498 197.343 231.302 197.287 231.143C197.231 230.975 197.147 230.84 197.035 230.737C196.932 230.625 196.802 230.546 196.643 230.499C196.484 230.452 196.307 230.429 196.111 230.429C195.822 230.429 195.56 230.499 195.327 230.639C195.094 230.779 194.912 230.97 194.781 231.213C194.65 231.456 194.585 231.736 194.585 232.053V236.351H192.639ZM205.107 236.519C204.295 236.519 203.614 236.384 203.063 236.113C202.512 235.833 202.097 235.408 201.817 234.839C201.537 234.27 201.397 233.546 201.397 232.669C201.397 231.782 201.537 231.059 201.817 230.499C202.097 229.93 202.508 229.51 203.049 229.239C203.6 228.959 204.272 228.819 205.065 228.819C205.812 228.819 206.442 228.954 206.955 229.225C207.468 229.486 207.856 229.897 208.117 230.457C208.378 231.008 208.509 231.722 208.509 232.599V233.103H203.371C203.39 233.532 203.455 233.896 203.567 234.195C203.688 234.494 203.87 234.718 204.113 234.867C204.365 235.007 204.696 235.077 205.107 235.077C205.331 235.077 205.532 235.049 205.709 234.993C205.896 234.937 206.054 234.853 206.185 234.741C206.316 234.629 206.418 234.489 206.493 234.321C206.568 234.153 206.605 233.962 206.605 233.747H208.509C208.509 234.214 208.425 234.62 208.257 234.965C208.089 235.31 207.856 235.6 207.557 235.833C207.258 236.057 206.899 236.23 206.479 236.351C206.068 236.463 205.611 236.519 205.107 236.519ZM203.399 231.871H206.507C206.507 231.591 206.47 231.348 206.395 231.143C206.33 230.938 206.236 230.77 206.115 230.639C205.994 230.508 205.844 230.415 205.667 230.359C205.499 230.294 205.308 230.261 205.093 230.261C204.738 230.261 204.44 230.322 204.197 230.443C203.964 230.555 203.782 230.732 203.651 230.975C203.53 231.208 203.446 231.507 203.399 231.871ZM213.871 236.519C213.087 236.519 212.429 236.384 211.897 236.113C211.365 235.833 210.959 235.408 210.679 234.839C210.408 234.26 210.273 233.537 210.273 232.669C210.273 231.782 210.408 231.059 210.679 230.499C210.959 229.93 211.365 229.505 211.897 229.225C212.438 228.945 213.096 228.805 213.871 228.805C214.375 228.805 214.827 228.866 215.229 228.987C215.639 229.108 215.994 229.295 216.293 229.547C216.591 229.799 216.815 230.112 216.965 230.485C217.123 230.849 217.203 231.283 217.203 231.787H215.257C215.257 231.451 215.205 231.176 215.103 230.961C215 230.746 214.841 230.583 214.627 230.471C214.421 230.359 214.16 230.303 213.843 230.303C213.469 230.303 213.166 230.387 212.933 230.555C212.699 230.723 212.527 230.97 212.415 231.297C212.303 231.624 212.247 232.03 212.247 232.515V232.837C212.247 233.313 212.303 233.714 212.415 234.041C212.536 234.368 212.718 234.615 212.961 234.783C213.203 234.942 213.521 235.021 213.913 235.021C214.23 235.021 214.491 234.965 214.697 234.853C214.911 234.741 215.075 234.573 215.187 234.349C215.299 234.125 215.355 233.854 215.355 233.537H217.203C217.203 234.013 217.123 234.438 216.965 234.811C216.815 235.184 216.591 235.497 216.293 235.749C216.003 236.001 215.653 236.192 215.243 236.323C214.832 236.454 214.375 236.519 213.871 236.519ZM221.56 236.519C221.093 236.519 220.715 236.435 220.426 236.267C220.137 236.099 219.927 235.875 219.796 235.595C219.665 235.306 219.6 234.988 219.6 234.643V230.485H218.69V228.987H219.67L220.034 226.887H221.546V228.987H222.89V230.485H221.546V234.321C221.546 234.545 221.597 234.718 221.7 234.839C221.803 234.951 221.971 235.007 222.204 235.007H222.89V236.295C222.778 236.332 222.647 236.365 222.498 236.393C222.349 236.43 222.19 236.458 222.022 236.477C221.854 236.505 221.7 236.519 221.56 236.519Z" fill="#555555"/>
<path d="M197.279 160.977L174.167 185.325C173.665 185.853 173.057 186.275 172.382 186.563C171.706 186.852 170.978 187 170.241 187H60.683C60.1603 187 59.6489 186.85 59.2118 186.569C58.7746 186.287 58.4307 185.886 58.2224 185.415C58.014 184.944 57.9502 184.423 58.0389 183.917C58.1275 183.411 58.3647 182.942 58.7214 182.566L81.85 158.218C82.351 157.691 82.957 157.27 83.6303 156.982C84.3036 156.694 85.0299 156.544 85.7644 156.543H195.317C195.839 156.543 196.351 156.693 196.788 156.975C197.225 157.256 197.569 157.657 197.778 158.128C197.986 158.599 198.05 159.119 197.961 159.625C197.872 160.132 197.635 160.602 197.279 160.977ZM174.167 111.947C173.665 111.418 173.057 110.996 172.382 110.708C171.706 110.42 170.978 110.271 170.241 110.271H60.683C60.1603 110.271 59.6489 110.422 59.2118 110.703C58.7746 110.985 58.4307 111.386 58.2224 111.857C58.014 112.327 57.9502 112.848 58.0389 113.354C58.1275 113.86 58.3647 114.33 58.7214 114.705L81.85 139.053C82.351 139.581 82.957 140.002 83.6303 140.29C84.3036 140.578 85.0299 140.727 85.7644 140.729H195.317C195.839 140.729 196.351 140.579 196.788 140.297C197.225 140.015 197.569 139.614 197.778 139.143C197.986 138.673 198.05 138.152 197.961 137.646C197.872 137.14 197.635 136.67 197.279 136.295L174.167 111.947ZM60.683 94.4572H170.241C170.978 94.4575 171.706 94.309 172.382 94.0208C173.057 93.7326 173.665 93.3109 174.167 92.782L197.279 68.4339C197.635 68.0584 197.872 67.5888 197.961 67.0827C198.05 66.5766 197.986 66.0561 197.778 65.5851C197.569 65.1142 197.225 64.7133 196.788 64.4317C196.351 64.15 195.839 64 195.317 64H85.7644C85.0299 64.0012 84.3036 64.1505 83.6303 64.4387C82.957 64.7268 82.351 65.1477 81.85 65.6751L58.7273 90.0233C58.371 90.3983 58.1339 90.8675 58.0451 91.373C57.9562 91.8786 58.0195 92.3986 58.2271 92.8693C58.4348 93.3401 58.7777 93.741 59.214 94.0231C59.6502 94.3052 60.1608 94.456 60.683 94.4572Z" fill="url(#paint1_linear_162_11)"/>
<path d="M195.777 70.2788C193.905 72.1394 191.419 73.1657 188.752 73.1657C186.085 73.1657 183.598 72.1394 181.726 70.2749C177.861 66.4047 177.861 60.102 181.726 56.2358L196.255 41.7071L190.71 36.1605L176.185 50.6931C169.27 57.6225 169.27 68.8843 176.197 75.8137C179.537 79.1629 183.99 81 188.752 81C193.514 81 197.966 79.1629 201.306 75.8098L215.835 61.2929L210.29 55.7462L195.777 70.2788ZM224.802 27.1902C221.462 23.8371 217.01 22 212.248 22C207.486 22 203.033 23.8371 199.693 27.1902L190.71 36.1605L196.255 41.7071L205.238 32.7212C207.094 30.8606 209.581 29.8343 212.248 29.8343C214.915 29.8343 217.401 30.8645 219.273 32.7212C223.142 36.5874 223.142 42.894 219.273 46.7603L210.29 55.7462L215.835 61.2929L224.818 52.3069C231.73 45.3814 231.73 34.1157 224.802 27.1902Z" fill="white"/>
<path d="M188.752 73.1657C191.419 73.1657 193.905 72.1394 195.777 70.2788L210.29 55.7462L219.273 46.7603C223.142 42.894 223.142 36.5874 219.273 32.7212C217.401 30.8645 214.915 29.8343 212.248 29.8343C209.581 29.8343 207.094 30.8606 205.238 32.7212L196.255 41.7071L181.726 56.2358C177.861 60.102 177.861 66.4047 181.726 70.2749C183.598 72.1394 186.085 73.1657 188.752 73.1657Z" fill="white"/>
<path d="M195.578 68.0959C194.023 69.6412 191.958 70.4936 189.743 70.4936C187.528 70.4936 185.463 69.6412 183.908 68.0927C180.698 64.8785 180.698 59.6441 183.908 56.4331L190.662 49.6805C191.053 49.29 191.053 48.6569 190.662 48.2664L187.471 45.0745C187.081 44.6838 186.447 44.6839 186.057 45.0747L179.306 51.8298C173.563 57.5848 173.563 66.9378 179.316 72.6927C182.09 75.4742 185.788 77 189.743 77C193.698 77 197.396 75.4742 200.17 72.6895L206.923 65.9346C207.313 65.5437 207.313 64.9099 206.922 64.5196L203.733 61.3391C203.342 60.9491 202.709 60.9498 202.319 61.3407L195.578 68.0959ZM219.683 32.3105C216.909 29.5258 213.211 28 209.257 28C205.302 28 201.604 29.5258 198.83 32.3105L192.077 39.0534C191.686 39.4438 191.686 40.0773 192.077 40.468L195.267 43.6595C195.658 44.0502 196.291 44.0502 196.682 43.6595L203.435 36.9041C204.977 35.3588 207.042 34.5064 209.257 34.5064C211.471 34.5064 213.537 35.362 215.091 36.9041C218.304 40.115 218.304 45.3527 215.091 48.5636L208.337 55.3195C207.947 55.71 207.947 56.343 208.337 56.7335L211.528 59.9256C211.919 60.3163 212.552 60.3163 212.943 59.9256L219.696 53.1702C225.437 47.4185 225.437 38.0622 219.683 32.3105ZM210.846 45.7441C211.236 45.3536 211.236 44.7206 210.846 44.3301L207.655 41.138C207.264 40.7473 206.631 40.7473 206.24 41.138L188.141 59.2429C187.75 59.6334 187.75 60.2664 188.141 60.6569L191.332 63.849C191.722 64.2397 192.356 64.2397 192.746 63.849L210.846 45.7441Z" fill="url(#paint2_linear_162_11)"/>
<defs>
<linearGradient id="paint0_linear_162_11" x1="1.38974e-05" y1="257.892" x2="255.081" y2="-3.04902e-05" gradientUnits="userSpaceOnUse">
<stop offset="0.501127" stop-color="#3083FF"/>
<stop offset="0.75423" stop-color="#88B8FF"/>
<stop offset="1" stop-color="#3083FF"/>
</linearGradient>
<linearGradient id="paint1_linear_162_11" x1="69.8177" y1="189.932" x2="182.422" y2="60.7119" gradientUnits="userSpaceOnUse">
<stop offset="0.08" stop-color="#9945FF"/>
<stop offset="0.3" stop-color="#8752F3"/>
<stop offset="0.5" stop-color="#5497D5"/>
<stop offset="0.6" stop-color="#43B4CA"/>
<stop offset="0.72" stop-color="#28E0B9"/>
<stop offset="0.97" stop-color="#19FB9B"/>
</linearGradient>
<linearGradient id="paint2_linear_162_11" x1="161" y1="95.9" x2="246.824" y2="3.03285" gradientUnits="userSpaceOnUse">
<stop stop-color="#FE13BB"/>
<stop offset="1" stop-color="#FFE100"/>
</linearGradient>
</defs>
</svg>
