<?xml version="1.0" encoding="UTF-8" standalone="no"?>
<svg
   width="32.807869"
   height="30"
   viewBox="0 0 32.807869 30"
   fill="none"
   version="1.1"
   id="svg4"
   sodipodi:docname="twitter.svg"
   inkscape:version="1.2.2 (b0a8486541, 2022-12-01)"
   xmlns:inkscape="http://www.inkscape.org/namespaces/inkscape"
   xmlns:sodipodi="http://sodipodi.sourceforge.net/DTD/sodipodi-0.dtd"
   xmlns="http://www.w3.org/2000/svg"
   xmlns:svg="http://www.w3.org/2000/svg">
  <defs
     id="defs8" />
  <sodipodi:namedview
     id="namedview6"
     pagecolor="#ffffff"
     bordercolor="#666666"
     borderopacity="1.0"
     inkscape:showpageshadow="2"
     inkscape:pageopacity="0.0"
     inkscape:pagecheckerboard="0"
     inkscape:deskcolor="#d1d1d1"
     showgrid="false"
     inkscape:zoom="5.1304348"
     inkscape:cx="7.0169492"
     inkscape:cy="22.902542"
     inkscape:window-width="1890"
     inkscape:window-height="1030"
     inkscape:window-x="15"
     inkscape:window-y="15"
     inkscape:window-maximized="1"
     inkscape:current-layer="svg4" />
  <path
     d="m 32.745333,3.5743933 c -1.206666,0.59516 -2.498533,1.0046134 -3.86,1.1903134 1.3892,-0.93772 2.451334,-2.4209934 2.9578,-4.1880067 C 30.540067,1.43022 29.098533,2.04844 27.5658,2.3979267 26.343733,0.92618 24.596667,0 22.657933,0 18.9414,0 15.929267,3.38754 15.929267,7.5628667 c 0,0.6009333 0.0646,1.1776 0.176333,1.7243333 C 10.514933,8.9930667 5.5588867,5.9711667 2.2442667,1.406 1.6619267,2.51788 1.3307733,3.8096867 1.3307733,5.2156867 1.3307733,7.8466 2.52108,10.1534 4.3203867,11.5098 3.2203,11.474067 2.1848,11.131467 1.27746,10.567467 v 0.09113 c 0,3.668933 2.3170533,6.7278 5.3928067,7.424467 -0.56082,0.1672 -1.1595667,0.264133 -1.76754,0.264133 -0.4316267,0 -0.8437734,-0.04733 -1.2549,-0.132667 0.8653066,3.003467 3.3423066,5.190334 6.29504,5.256067 -2.2955334,2.0242 -5.2052,3.230667 -8.3404067,3.230667 C 1.0683067,26.701267 0.53517867,26.672467 0,26.5998 2.9906467,28.745067 6.5205667,30 10.333467,30 22.705133,30 29.4656,18.471733 29.4656,8.4878667 c 0,-0.3183334 0,-0.6424 -0.02153,-0.9676667 1.319466,-1.0576867 2.4616,-2.39794 3.3638,-3.9169733 z"
     fill="#666666"
     id="path2"
     style="stroke-width:0.666667" />
</svg>
