<svg width="1437" height="347" viewBox="0 0 1437 347" fill="none" xmlns="http://www.w3.org/2000/svg">
<path d="M-5.7666 21.6261C106.466 360.708 314.143 366.635 429.418 236.286C530.664 121.797 603.297 1.0203 648.186 1C764.59 0.939108 851.464 321.193 1030.45 246.028C1203.37 173.417 1213.63 -12.3799 1436.58 106.063" stroke="url(#paint0_linear_88_103)" stroke-opacity="0.33" stroke-width="1.33333" stroke-miterlimit="10"/>
<path d="M-7.18164 39.8119C60.9437 201.037 134.037 258.182 221.835 287.824C300.225 314.292 379.354 293.207 436.875 237.255C539.256 137.669 612.469 22.1817 665.863 15.581C782.589 1.14966 869.937 302.694 1041.47 233.781C1207 167.149 1219.68 -0.49443 1431.18 122.06" stroke="url(#paint1_linear_88_103)" stroke-opacity="0.33" stroke-width="1.33333" stroke-miterlimit="10"/>
<path d="M-8.59766 57.9984C70.4783 207.707 134.725 235.628 228.435 269.159C306.397 297.055 385.613 286.338 444.332 238.226C547.487 153.704 621.159 43.9608 683.539 30.1628C800.094 4.38118 888.406 284.195 1052.49 221.529C1210.63 160.881 1225.72 11.3918 1425.78 138.055" stroke="url(#paint2_linear_88_103)" stroke-opacity="0.33" stroke-width="1.33333" stroke-miterlimit="10"/>
<path d="M-10.0137 76.1845C80.0129 214.376 135.426 212.984 235.036 250.493C312.598 279.697 391.582 279.583 451.788 239.192C555.237 169.791 629.713 66.3565 701.216 44.744C817.596 9.56882 906.875 265.7 1063.51 209.278C1214.26 154.613 1231.77 23.2776 1420.38 154.049" stroke="url(#paint3_linear_88_103)" stroke-opacity="0.33" stroke-width="1.33333" stroke-miterlimit="10"/>
<path d="M-11.4287 94.3708C89.5482 221.046 136.148 190.255 241.637 231.824C318.823 262.245 397.21 272.869 459.246 240.162C562.415 185.769 638.32 89.329 718.893 59.3256C835.277 15.9869 925.348 247.201 1074.53 197.026C1217.9 148.345 1237.82 35.1638 1414.98 170.047" stroke="url(#paint4_linear_88_103)" stroke-opacity="0.33" stroke-width="1.33333" stroke-miterlimit="10"/>
<path d="M-12.8447 112.557C99.083 227.716 136.893 167.437 248.238 213.158C325.072 244.713 402.472 266.069 466.702 241.132C568.986 201.419 647.083 112.821 736.569 73.9071C853.193 23.1924 943.817 228.702 1085.55 184.775C1221.53 142.078 1243.87 47.0499 1409.59 186.041" stroke="url(#paint5_linear_88_103)" stroke-opacity="0.33" stroke-width="1.33333" stroke-miterlimit="10"/>
<path d="M-14.2598 130.744C108.618 234.39 137.666 144.534 254.84 194.494C331.344 227.116 407.395 259.035 474.16 242.099C575.011 216.52 656.054 136.772 754.243 88.4893C871.351 30.902 962.366 210.512 1096.57 172.528C1225.24 136.107 1249.92 58.9365 1404.19 202.04" stroke="url(#paint6_linear_88_103)" stroke-opacity="0.33" stroke-width="1.33333" stroke-miterlimit="10"/>
<path d="M-15.6758 148.93C118.153 241.059 138.469 121.545 261.44 175.828C337.635 209.461 415.683 268.25 481.616 243.069C575.507 207.212 665.267 161.125 771.919 103.07C889.74 38.9393 980.835 192.05 1107.59 160.276C1228.87 129.875 1255.96 70.8222 1398.79 218.034" stroke="url(#paint7_linear_88_103)" stroke-opacity="0.33" stroke-width="1.33333" stroke-miterlimit="10"/>
<path d="M-17.0908 167.116C127.688 247.729 139.307 98.4752 268.041 157.163C343.945 191.761 418.421 261.109 489.073 244.039C583.766 221.16 674.724 185.826 789.596 117.652C908.346 47.184 999.3 173.579 1118.61 148.025C1232.5 123.632 1262.02 82.7042 1393.39 234.028" stroke="url(#paint8_linear_88_103)" stroke-opacity="0.33" stroke-width="1.33333" stroke-miterlimit="10"/>
<path d="M-18.5068 185.303C137.223 254.399 140.18 75.3284 274.642 138.493C350.273 174.026 421.297 235.169 496.529 245.009C591.743 257.46 684.423 210.821 807.272 132.238C927.145 55.5548 1017.76 155.097 1129.63 135.774C1236.12 117.38 1268.06 94.5905 1387.99 250.027" stroke="url(#paint9_linear_88_103)" stroke-opacity="0.33" stroke-width="1.33333" stroke-miterlimit="10"/>
<path d="M-19.9229 203.489C146.757 261.069 141.09 52.0963 281.243 119.828C356.617 156.254 426.185 226.149 503.986 245.976C597.646 269.849 694.36 236.071 824.948 146.82C946.114 64.0027 1036.21 136.602 1140.65 123.522C1239.74 111.113 1274.11 106.477 1382.59 266.021" stroke="url(#paint10_linear_88_103)" stroke-opacity="0.33" stroke-width="1.33333" stroke-miterlimit="10"/>
<path d="M-21.3369 221.676C156.293 267.742 142.042 28.7907 287.845 101.163C362.979 138.457 431.421 216.723 511.444 246.946C603.987 281.897 704.519 261.539 842.626 161.401C965.244 72.4907 1054.67 118.091 1151.67 111.271C1243.35 104.828 1280.16 118.363 1377.2 282.019" stroke="url(#paint11_linear_88_103)" stroke-opacity="0.33" stroke-width="1.33333" stroke-miterlimit="10"/>
<path d="M-22.7539 239.862C165.827 274.412 143.031 5.4044 294.445 82.4974C369.353 120.636 437.042 207.041 518.902 247.916C610.792 293.8 714.888 287.187 860.302 175.983C984.508 80.9954 1073.12 99.5512 1162.69 99.0194C1246.96 98.5242 1286.21 130.249 1371.8 298.014" stroke="url(#paint12_linear_88_103)" stroke-opacity="0.33" stroke-width="1.33333" stroke-miterlimit="10"/>
<path d="M-24.1689 258.048C175.362 281.082 144.064 -18.0553 301.046 63.832C375.743 102.795 443.035 197.246 526.356 248.886C618.042 305.706 725.448 312.989 877.975 190.564C1003.9 89.4958 1091.57 80.9832 1173.71 86.7719C1250.58 92.1872 1292.25 142.135 1366.4 314.008" stroke="url(#paint13_linear_88_103)" stroke-opacity="0.33" stroke-width="1.33333" stroke-miterlimit="10"/>
<path d="M-25.585 276.235C184.897 287.751 145.138 -41.5878 307.647 45.1626C382.146 84.9331 449.342 187.454 533.814 249.852C625.678 317.714 736.186 338.917 895.651 205.146C1023.4 97.9842 1110.05 62.2204 1184.73 74.5205C1254.23 85.6719 1298.31 154.021 1361 330.006" stroke="url(#paint14_linear_88_103)" stroke-opacity="0.33" stroke-width="1.33333" stroke-miterlimit="10"/>
<path d="M-27 294.421C194.432 294.421 146.256 -65.1937 314.248 26.4971C468.947 110.934 593.397 499.212 913.328 219.727C1162.79 1.80752 1248.87 -29.0443 1355.6 346" stroke="url(#paint15_linear_88_103)" stroke-opacity="0.33" stroke-width="1.33333" stroke-miterlimit="10"/>
<defs>
<linearGradient id="paint0_linear_88_103" x1="715.405" y1="315.055" x2="715.405" y2="1" gradientUnits="userSpaceOnUse">
<stop stop-color="#FF8A00"/>
<stop offset="1" stop-color="#FAFF00"/>
</linearGradient>
<linearGradient id="paint1_linear_88_103" x1="711.998" y1="299.163" x2="711.998" y2="15.0782" gradientUnits="userSpaceOnUse">
<stop stop-color="#FF8A00"/>
<stop offset="1" stop-color="#FAFF00"/>
</linearGradient>
<linearGradient id="paint2_linear_88_103" x1="708.592" y1="284.332" x2="708.592" y2="28.4792" gradientUnits="userSpaceOnUse">
<stop stop-color="#FF8A00"/>
<stop offset="1" stop-color="#FAFF00"/>
</linearGradient>
<linearGradient id="paint3_linear_88_103" x1="705.184" y1="271.117" x2="705.184" y2="41.4112" gradientUnits="userSpaceOnUse">
<stop stop-color="#FF8A00"/>
<stop offset="1" stop-color="#FAFF00"/>
</linearGradient>
<linearGradient id="paint4_linear_88_103" x1="701.777" y1="260.19" x2="701.777" y2="53.8822" gradientUnits="userSpaceOnUse">
<stop stop-color="#FF8A00"/>
<stop offset="1" stop-color="#FAFF00"/>
</linearGradient>
<linearGradient id="paint5_linear_88_103" x1="698.371" y1="252.054" x2="698.371" y2="65.7984" gradientUnits="userSpaceOnUse">
<stop stop-color="#FF8A00"/>
<stop offset="1" stop-color="#FAFF00"/>
</linearGradient>
<linearGradient id="paint6_linear_88_103" x1="694.964" y1="246.792" x2="694.964" y2="77.0019" gradientUnits="userSpaceOnUse">
<stop stop-color="#FF8A00"/>
<stop offset="1" stop-color="#FAFF00"/>
</linearGradient>
<linearGradient id="paint7_linear_88_103" x1="691.556" y1="249.167" x2="691.556" y2="87.2047" gradientUnits="userSpaceOnUse">
<stop stop-color="#FF8A00"/>
<stop offset="1" stop-color="#FAFF00"/>
</linearGradient>
<linearGradient id="paint8_linear_88_103" x1="688.151" y1="246.699" x2="688.151" y2="96.0101" gradientUnits="userSpaceOnUse">
<stop stop-color="#FF8A00"/>
<stop offset="1" stop-color="#FAFF00"/>
</linearGradient>
<linearGradient id="paint9_linear_88_103" x1="684.743" y1="250.027" x2="684.743" y2="102.784" gradientUnits="userSpaceOnUse">
<stop stop-color="#FF8A00"/>
<stop offset="1" stop-color="#FAFF00"/>
</linearGradient>
<linearGradient id="paint10_linear_88_103" x1="681.335" y1="266.021" x2="681.335" y2="106.157" gradientUnits="userSpaceOnUse">
<stop stop-color="#FF8A00"/>
<stop offset="1" stop-color="#FAFF00"/>
</linearGradient>
<linearGradient id="paint11_linear_88_103" x1="677.931" y1="282.019" x2="677.931" y2="87.4042" gradientUnits="userSpaceOnUse">
<stop stop-color="#FF8A00"/>
<stop offset="1" stop-color="#FAFF00"/>
</linearGradient>
<linearGradient id="paint12_linear_88_103" x1="674.522" y1="298.014" x2="674.522" y2="68.5407" gradientUnits="userSpaceOnUse">
<stop stop-color="#FF8A00"/>
<stop offset="1" stop-color="#FAFF00"/>
</linearGradient>
<linearGradient id="paint13_linear_88_103" x1="671.117" y1="314.008" x2="671.117" y2="49.5969" gradientUnits="userSpaceOnUse">
<stop stop-color="#FF8A00"/>
<stop offset="1" stop-color="#FAFF00"/>
</linearGradient>
<linearGradient id="paint14_linear_88_103" x1="667.71" y1="330.006" x2="667.71" y2="30.5883" gradientUnits="userSpaceOnUse">
<stop stop-color="#FF8A00"/>
<stop offset="1" stop-color="#FAFF00"/>
</linearGradient>
<linearGradient id="paint15_linear_88_103" x1="664.302" y1="346" x2="664.302" y2="11.532" gradientUnits="userSpaceOnUse">
<stop stop-color="#FF8A00"/>
<stop offset="1" stop-color="#FAFF00"/>
</linearGradient>
</defs>
</svg>
