<svg width="1914" height="352" viewBox="0 0 1914 352" fill="none" xmlns="http://www.w3.org/2000/svg">
<g opacity="0.15">
<mask id="path-1-outside-1_88_17" maskUnits="userSpaceOnUse" x="-2" y="0" width="1916" height="352" fill="black">
<rect fill="white" x="-2" width="1916" height="352"/>
<path d="M106.889 304.225C131.653 304.225 151.436 291.587 174.077 278.933C196.718 266.279 222.208 253.614 258.359 253.614C271.247 253.614 285.483 255.222 301.432 259.014C333.386 266.604 353.161 289.307 375.675 310.081C398.189 330.856 423.431 349.724 466.361 349.729C509.283 349.729 568.458 320.439 630.209 291.132C691.959 261.837 756.293 232.525 809.588 232.525C862.874 232.525 899.923 252.438 944.26 273.245C988.6 294.052 1040.24 315.764 1122.74 319.393C1127.94 319.621 1133.08 319.729 1138.14 319.729C1293.46 319.735 1381.56 215.396 1469.82 215.385C1515.39 215.385 1548.85 243.419 1583.84 272.243C1618.83 301.073 1655.35 330.688 1707.07 333.938C1714.46 334.404 1722.01 334.621 1729.66 334.621C1788.99 334.621 1855.28 321.414 1912 306.181V306.457C1855.28 321.69 1789 334.892 1729.67 334.892C1722 334.892 1714.46 334.675 1707.06 334.209C1655.28 330.959 1618.72 301.3 1583.72 272.47C1548.73 243.646 1515.31 215.65 1469.82 215.656C1381.69 215.64 1293.54 319.995 1138.14 320C1133.08 320 1127.94 319.892 1122.73 319.664C1040.21 316.035 988.532 294.312 944.188 273.5C899.843 252.687 862.832 232.796 809.588 232.796C756.352 232.796 692.031 262.086 630.28 291.387C568.53 320.688 509.354 349.995 466.361 350C423.384 350 398.071 331.089 375.552 310.304C353.026 289.513 333.285 266.853 301.394 259.28C285.458 255.493 271.23 253.884 258.359 253.884C222.246 253.884 196.798 266.528 174.161 279.177C151.529 291.826 131.712 304.491 106.889 304.496C77.6411 304.491 40.1396 284.166 9.94202 263.852C6.52673 261.555 3.20435 259.258 0.00012207 256.988V256.68C5.00696 260.222 10.2925 263.836 15.7806 267.411C44.8765 286.382 79.5409 304.225 106.889 304.225ZM102.3 277.915C127.102 276.452 147.725 264.399 170.746 252.644C193.763 240.889 219.177 229.442 253.546 229.237C253.782 229.237 254.019 229.237 254.251 229.237C267.862 229.237 282.562 231.561 298.764 236.192C330.279 245.266 350.459 268.944 373.003 290.954C395.551 312.963 420.454 333.321 461.443 335.84C463.608 335.975 465.816 336.04 468.062 336.04C477.151 336.04 486.866 334.935 497.129 332.595C584.467 312.492 706.461 213.76 805.362 213.191C805.636 213.191 805.915 213.191 806.189 213.191C812.716 213.191 819.044 213.495 825.212 214.074C875.239 218.738 911.656 240.455 954.143 261.755C996.63 283.056 1045.19 303.938 1119.53 306.961C1123.62 307.124 1127.68 307.205 1131.69 307.205C1207.14 307.205 1268.42 278.473 1321.83 249.735C1375.24 220.997 1420.77 192.243 1464.7 192.243C1502.86 192.243 1530.6 213.89 1558.12 239.22C1585.63 264.551 1612.93 293.565 1650.21 308.359C1665.46 314.437 1681.55 318.207 1699.05 318.516C1700.39 318.543 1701.73 318.554 1703.07 318.554C1753.84 318.554 1807.2 301.755 1858.05 291.338C1876.46 287.563 1894.65 283.83 1912 280.266V280.542C1894.66 284.101 1876.48 287.833 1858.08 291.604C1807.24 302.021 1753.88 318.825 1703.07 318.825C1701.73 318.825 1700.39 318.814 1699.05 318.787C1681.53 318.478 1665.41 314.702 1650.15 308.619C1612.82 293.803 1585.5 264.762 1557.99 239.442C1530.48 214.117 1502.79 192.514 1464.7 192.514C1420.85 192.514 1375.33 221.241 1321.91 249.984C1268.5 278.727 1207.18 307.476 1131.69 307.476C1127.68 307.476 1123.62 307.395 1119.52 307.232C1045.16 304.209 996.562 283.31 954.066 262.01C911.571 240.705 875.18 219.004 825.195 214.345C819.036 213.765 812.712 213.462 806.189 213.462C805.915 213.462 805.641 213.462 805.362 213.462C706.558 214.015 584.572 312.73 497.162 332.866C486.891 335.2 477.168 336.311 468.062 336.311C465.812 336.311 463.604 336.246 461.43 336.111C420.391 333.592 395.428 313.191 372.876 291.17C350.324 269.144 330.17 245.51 298.718 236.458C282.528 231.826 267.84 229.507 254.251 229.507C254.019 229.507 253.782 229.507 253.55 229.507C219.215 229.713 193.839 241.143 170.822 252.893C147.81 264.643 127.161 276.723 102.308 278.186C100.636 278.283 98.9479 278.332 97.238 278.332C66.1116 278.326 29.0494 262.438 0.00012207 246.718V246.42C29.0494 262.151 66.1327 278.061 97.238 278.061C98.9436 278.061 100.632 278.012 102.3 277.915ZM97.7067 251.376C122.496 248.559 143.892 236.869 167.25 225.883C190.605 214.892 215.922 204.605 248.531 204.605C249.269 204.605 250.008 204.61 250.751 204.621C264.949 204.822 279.915 207.709 296.092 213.142C327.172 223.695 347.774 248.435 370.36 271.728C392.946 295.016 417.508 316.869 456.52 321.728C460.974 322.281 465.576 322.584 470.325 322.584C477.354 322.584 484.713 321.918 492.388 320.396C535.812 311.598 586.827 280.19 640.066 250.84C693.306 221.485 748.779 194.188 801.136 193.63C801.681 193.625 802.221 193.625 802.761 193.625C809.031 193.625 815.156 193.906 821.168 194.459C874.859 199.312 912.935 222.964 955.439 246.046C997.942 269.134 1044.88 291.658 1116.32 294.296C1119.5 294.415 1122.66 294.475 1125.8 294.475C1198.76 294.475 1260.36 263.083 1314.65 231.685C1368.93 200.288 1415.9 168.879 1459.59 168.874C1498.15 168.874 1524.18 192.92 1550.32 220.58C1576.46 248.245 1602.71 279.529 1641.73 294.09C1656.57 299.67 1671.81 302.909 1687.92 302.909C1688.95 302.909 1689.99 302.898 1691.03 302.871C1744.78 301.479 1797.22 274.832 1848.56 265.309C1869.97 261.333 1891.56 258.224 1912 255.791V256.062C1891.57 258.494 1869.99 261.604 1848.59 265.574C1797.29 275.092 1744.84 301.75 1691.03 303.142C1689.99 303.164 1688.95 303.18 1687.92 303.18C1671.79 303.18 1656.52 299.935 1641.67 294.35C1602.6 279.767 1576.32 248.446 1550.18 220.791C1524.05 193.132 1498.07 169.145 1459.59 169.145C1415.98 169.139 1369.02 200.531 1314.73 231.934C1260.44 263.332 1198.81 294.746 1125.8 294.746C1122.66 294.746 1119.5 294.686 1116.31 294.567C1044.84 291.929 997.866 269.383 955.354 246.295C912.846 223.207 874.8 199.583 821.151 194.73C815.144 194.177 809.026 193.895 802.761 193.895C802.221 193.895 801.681 193.895 801.14 193.901C748.834 194.459 693.386 221.739 640.151 251.089C586.911 280.434 535.892 311.853 492.421 320.661C484.734 322.189 477.367 322.855 470.325 322.855C465.567 322.855 460.957 322.552 456.499 321.994C417.432 317.134 392.819 295.239 370.229 271.94C347.635 248.635 327.058 223.939 296.041 213.402C279.877 207.974 264.923 205.093 250.747 204.892C250.004 204.881 249.269 204.876 248.531 204.876C215.956 204.876 190.672 215.147 167.322 226.138C143.972 237.124 122.556 248.825 97.7236 251.647C93.2318 252.156 88.6342 252.395 83.9692 252.395C55.9077 252.395 25.3302 243.798 0.00012207 234.237V233.955C25.3302 243.516 55.9161 252.129 83.9692 252.124C88.63 252.124 93.2231 251.891 97.7067 251.376ZM93.1177 224.627C142.621 216.458 181.617 179.724 243.574 179.724C245.022 179.724 246.479 179.741 247.952 179.784C262.542 180.19 277.546 183.717 293.424 189.876C324.065 201.913 345.097 227.806 367.726 252.416C390.358 277.037 414.578 300.379 451.598 307.395C457.968 308.603 464.609 309.345 471.545 309.345C476.746 309.345 482.108 308.928 487.647 307.974C530.839 300.558 580.532 267.454 633.231 235.986C685.931 204.518 741.644 174.692 796.91 173.852C797.712 173.841 798.51 173.836 799.304 173.836C805.333 173.836 811.264 174.101 817.124 174.627C874.479 179.676 914.214 205.255 956.735 230.125C999.255 254.99 1044.57 279.155 1113.11 281.42C1115.54 281.501 1117.96 281.544 1120.37 281.544C1190.62 281.544 1252.45 247.492 1307.55 213.429C1362.66 179.367 1411.06 145.293 1454.47 145.288C1493.43 145.288 1517.76 171.729 1542.52 201.723C1567.29 231.723 1592.5 265.277 1633.25 279.61C1647.11 284.529 1661.04 287.265 1675.34 287.265C1677.88 287.265 1680.44 287.178 1683.01 287.005C1738.56 283.202 1788.59 247.384 1839.08 239.058C1863.26 235.071 1888.42 233.467 1912 233.191V233.462C1888.43 233.738 1863.28 235.342 1839.11 239.329C1788.67 247.639 1738.63 283.462 1683.02 287.275C1680.45 287.449 1677.89 287.535 1675.34 287.535C1661.02 287.535 1647.07 284.8 1633.2 279.87C1592.38 265.515 1567.14 231.913 1542.38 201.924C1517.61 171.929 1493.35 145.559 1454.47 145.559C1411.14 145.553 1362.76 179.605 1307.65 213.673C1252.53 247.736 1190.68 281.815 1120.37 281.815C1117.96 281.815 1115.54 281.772 1113.11 281.69C1044.52 279.426 999.171 255.244 956.646 230.369C914.117 205.499 874.42 179.946 817.107 174.898C811.255 174.372 805.328 174.107 799.304 174.107C798.51 174.107 797.712 174.112 796.914 174.118C741.707 174.957 686.015 204.768 633.32 236.23C580.625 267.693 530.927 300.813 487.676 308.245C482.129 309.198 476.755 309.616 471.545 309.616C464.6 309.616 457.947 308.873 451.564 307.665C414.489 300.639 390.223 277.248 367.59 252.628C344.954 228.001 323.942 202.151 293.36 190.136C277.5 183.982 262.513 180.461 247.948 180.055C246.479 180.011 245.018 179.995 243.574 179.995C181.689 179.99 142.718 216.701 93.1431 224.892C83.5514 226.479 73.6304 227.156 63.663 227.156C41.6891 227.156 19.4789 223.852 0.00012207 219.594V219.318C19.4789 223.576 41.6934 226.886 63.663 226.886C73.6219 226.886 83.5344 226.208 93.1177 224.627ZM88.5245 197.731C137.889 187.2 179.662 154.676 238.538 154.67C240.72 154.67 242.924 154.714 245.153 154.806C260.136 155.429 275.182 159.589 290.756 166.469C320.958 179.99 342.421 207.119 365.095 233.099C387.77 259.085 411.648 283.922 446.675 292.925C454.477 294.93 462.625 296.246 471.22 296.246C475.028 296.246 478.92 295.986 482.91 295.417C525.853 289.269 574.225 254.464 626.388 220.911C678.551 187.357 734.514 155.049 792.684 153.928C793.735 153.912 794.778 153.906 795.821 153.906C801.626 153.906 807.371 154.156 813.079 154.654C874.095 159.898 915.489 187.406 958.026 214.058C1000.57 240.71 1044.25 266.512 1109.9 268.402C1111.71 268.456 1113.52 268.478 1115.31 268.478C1182.69 268.483 1244.64 231.766 1300.54 195.038C1356.43 158.311 1406.24 121.566 1449.36 121.561C1488.72 121.561 1511.34 150.402 1534.72 182.731C1558.12 215.06 1582.29 250.883 1624.77 264.984C1637.72 269.329 1650.5 271.636 1663.33 271.636C1667.21 271.636 1671.09 271.425 1674.99 270.997C1732.34 264.681 1779.94 219.762 1829.6 212.671C1841.75 210.938 1854.37 210.206 1867.05 210.206C1882.21 210.206 1897.44 211.252 1912 212.899V213.169C1897.44 211.528 1882.21 210.477 1867.05 210.477C1854.38 210.477 1841.76 211.208 1829.62 212.942C1780.04 220.006 1732.43 264.93 1675 271.268C1671.1 271.696 1667.22 271.907 1663.33 271.907C1650.48 271.907 1637.68 269.599 1624.72 265.249C1582.16 251.122 1557.95 215.233 1534.57 182.915C1511.18 150.586 1488.62 121.837 1449.36 121.832C1406.33 121.826 1356.52 158.543 1300.63 195.277C1244.74 232.01 1182.75 268.749 1115.31 268.749C1113.51 268.749 1111.71 268.727 1109.9 268.673C1044.21 266.788 1000.48 240.954 957.934 214.302C915.392 187.644 874.04 160.163 813.062 154.925C807.363 154.426 801.622 154.177 795.821 154.177C794.778 154.177 793.735 154.183 792.688 154.199C734.577 155.315 678.64 187.601 626.481 221.149C574.322 254.702 525.946 289.524 482.931 295.683C478.937 296.257 475.036 296.517 471.22 296.517C462.612 296.517 454.443 295.195 446.633 293.191C411.547 284.171 387.631 259.291 364.956 233.299C342.277 207.308 320.831 180.217 290.684 166.729C275.127 159.849 260.102 155.694 245.149 155.076C242.92 154.984 240.716 154.941 238.538 154.941C179.726 154.941 137.977 187.449 88.5583 198.002C68.3829 202.303 47.3125 203.858 27.4241 203.858C17.938 203.858 8.72205 203.5 0.00012207 202.926V202.655C8.72205 203.229 17.938 203.587 27.4241 203.587C47.304 203.587 68.3617 202.032 88.5245 197.731ZM233.366 129.492C236.33 129.492 239.327 129.573 242.359 129.735C257.734 130.58 272.814 135.364 288.088 142.969C317.851 157.969 339.736 186.42 362.453 213.809C385.165 241.198 408.701 267.53 441.753 278.359C450.644 281.273 459.927 283.24 469.806 283.24C472.546 283.24 475.332 283.088 478.169 282.763C520.871 277.871 567.913 241.371 619.54 205.732C671.167 170.093 727.383 135.315 788.463 133.917C789.746 133.89 791.034 133.879 792.317 133.879C797.906 133.879 803.475 134.118 809.035 134.594C873.715 140.022 916.764 169.459 959.323 197.899C1001.88 226.338 1043.94 253.781 1106.69 255.287C1107.98 255.32 1109.28 255.336 1110.57 255.336C1174.91 255.342 1236.94 215.954 1293.58 176.555C1350.22 137.162 1401.45 97.7473 1444.25 97.7419C1464.12 97.7419 1479.29 105.553 1492.24 117.693C1511.66 135.911 1526.09 163.863 1543.96 189.849C1561.83 215.835 1583.13 239.865 1616.29 250.271C1628.36 254.096 1640.12 256.046 1651.7 256.046C1656.82 256.046 1661.9 255.667 1666.96 254.897C1696.54 250.423 1722.62 234.702 1747.41 219.372C1772.2 204.042 1795.7 189.09 1820.12 186.187C1826.45 185.434 1833 185.093 1839.67 185.093C1863.36 185.093 1888.68 189.432 1912 195.255V195.531C1888.68 189.703 1863.36 185.364 1839.67 185.364C1833 185.364 1826.47 185.705 1820.14 186.458C1795.78 189.351 1772.3 204.28 1747.5 219.616C1722.71 234.946 1696.6 250.688 1666.99 255.168C1661.92 255.938 1656.83 256.317 1651.7 256.317C1640.1 256.317 1628.33 254.361 1616.24 250.531C1571.95 236.636 1548.77 198.467 1526.76 163.809C1515.76 146.485 1505.04 130.028 1492.12 117.915C1479.2 105.797 1464.08 98.0128 1444.25 98.0128C1401.54 98.0074 1350.32 137.395 1293.68 176.794C1237.04 216.192 1174.98 255.607 1110.57 255.607C1109.28 255.607 1107.98 255.591 1106.69 255.558C1043.89 254.052 1001.78 226.577 959.225 198.137C916.667 169.697 873.656 140.293 809.018 134.86C803.466 134.383 797.902 134.15 792.317 134.15C791.034 134.15 789.75 134.161 788.463 134.188C727.451 135.58 671.264 170.331 619.642 205.97C568.019 241.604 520.968 278.126 478.19 283.034C475.345 283.359 472.55 283.511 469.806 283.511C459.902 283.511 450.601 281.539 441.702 278.619C408.591 267.774 385.022 241.398 362.305 214.004C339.588 186.609 317.72 158.197 288.007 143.224C272.755 135.624 257.696 130.851 242.346 130.006C239.319 129.844 236.326 129.762 233.366 129.762C177.442 129.762 133.152 158.273 83.9778 171.008C55.2535 178.446 25.6594 182.362 0.00012207 184.361V184.091C25.651 182.092 55.228 178.18 83.9355 170.743C133.072 158.023 177.383 129.492 233.366 129.492ZM227.988 104.21C231.808 104.21 235.663 104.34 239.559 104.605C255.327 105.689 270.445 111.079 285.415 119.41C314.743 135.889 337.038 165.732 359.78 194.567C382.527 223.402 405.721 251.23 436.83 263.733C446.582 267.649 456.748 270.293 467.661 270.293C469.561 270.293 471.486 270.217 473.432 270.049C515.881 266.403 561.606 228.202 612.693 190.483C663.788 152.758 720.253 115.521 784.237 113.842C785.752 113.804 787.268 113.787 788.783 113.787C794.174 113.787 799.574 114.009 804.99 114.464C873.335 120.093 918.043 151.452 960.614 181.674C1003.19 211.902 1043.63 240.986 1103.48 242.118C1104.35 242.135 1105.22 242.14 1106.09 242.14C1167.28 242.146 1229.32 200.087 1286.67 158.018C1344.03 115.954 1396.67 73.8687 1439.13 73.8633C1459.2 73.8633 1474.05 82.2707 1486.45 95.3042C1505.05 114.86 1518.15 144.8 1535.23 172.395C1552.31 199.995 1573.34 225.255 1607.81 235.493C1619.03 238.852 1629.84 240.499 1640.35 240.499C1646.65 240.499 1652.84 239.908 1658.94 238.738C1689.41 232.899 1715.33 214.253 1739.64 196.496C1763.95 178.744 1786.64 161.88 1810.64 159.643C1814.01 159.334 1817.46 159.183 1820.98 159.183C1849.5 159.183 1882.69 168.933 1912 180.477V180.764C1882.69 169.215 1849.48 159.453 1820.98 159.453C1817.46 159.453 1814.01 159.605 1810.65 159.914C1786.72 162.14 1764.05 178.977 1739.74 196.734C1715.43 214.486 1689.49 233.153 1658.97 239.004C1652.86 240.179 1646.66 240.77 1640.35 240.77C1629.82 240.77 1618.99 239.117 1607.76 235.753C1561.73 222.086 1539.59 181.637 1518.96 144.649C1508.64 126.149 1498.69 108.517 1486.32 95.5155C1473.95 82.5144 1459.16 74.1341 1439.13 74.1341C1396.78 74.1287 1344.13 116.182 1286.78 158.256C1229.43 200.326 1167.35 242.411 1106.09 242.411C1105.22 242.411 1104.35 242.406 1103.48 242.389C1043.57 241.257 1003.08 212.135 960.513 181.913C917.937 151.691 873.276 120.358 804.978 114.735C799.566 114.28 794.17 114.058 788.783 114.058C787.268 114.058 785.752 114.074 784.241 114.112C720.32 115.786 663.885 152.996 612.798 190.716C561.712 228.429 515.987 266.658 473.445 270.32C471.494 270.488 469.565 270.564 467.661 270.564C456.723 270.564 446.532 267.915 436.767 263.993C405.598 251.463 382.383 223.597 359.633 194.757C336.886 165.916 314.608 136.111 285.331 119.659C270.382 111.333 255.285 105.96 239.547 104.876C235.659 104.611 231.804 104.481 227.988 104.481C174.757 104.481 128.213 129.21 79.3931 143.961C51.8804 152.27 24.2875 158.912 0.00012207 164.036V163.766C24.2748 158.641 51.851 152 79.3468 143.695C128.141 128.955 174.706 104.215 227.988 104.21ZM222.297 78.847C227.097 78.847 231.918 79.0366 236.76 79.4321C252.921 80.7701 268.081 86.7506 282.747 95.808C311.632 113.771 334.311 145.071 357.078 175.38C379.842 205.694 402.694 235.017 431.908 249.069C442.39 254.107 453.329 257.389 465.162 257.389C466.331 257.389 467.505 257.357 468.691 257.292C510.891 254.784 555.291 214.892 605.845 175.114C656.4 135.337 713.122 95.6834 780.011 93.7224C781.746 93.6791 783.481 93.652 785.225 93.652C790.43 93.652 795.669 93.8687 800.946 94.2966C872.955 100.115 919.318 133.408 961.91 165.418C1004.5 197.427 1043.32 228.148 1100.28 228.901C1100.8 228.912 1101.31 228.912 1101.83 228.912C1159.76 228.917 1221.77 184.188 1279.81 139.448C1337.86 94.7083 1391.91 49.9468 1434.02 49.9414C1454.29 49.9414 1468.81 58.95 1480.66 72.8774C1498.44 93.7657 1510.22 125.694 1526.5 154.909C1542.79 184.118 1563.56 210.613 1599.33 220.672C1609.72 223.614 1619.66 225.017 1629.22 225.017C1636.67 225.017 1643.89 224.166 1650.92 222.536C1682.26 215.277 1708.03 193.684 1731.86 173.516C1755.68 153.348 1777.57 134.6 1801.16 133.061C1802.82 132.953 1804.52 132.899 1806.24 132.899C1837.6 132.904 1878.1 150.347 1912 168.668V168.955C1878.1 150.629 1837.57 133.17 1806.24 133.17C1804.52 133.17 1802.83 133.224 1801.17 133.332C1777.66 134.86 1755.8 153.571 1731.97 173.744C1708.15 193.912 1682.35 215.526 1650.96 222.801C1643.91 224.437 1636.68 225.288 1629.22 225.288C1619.64 225.288 1609.69 223.884 1599.28 220.938C1551.51 207.498 1530.41 164.768 1511.15 125.445C1501.52 105.781 1492.34 86.9673 1480.52 73.0778C1468.7 59.1884 1454.24 50.2123 1434.02 50.2123C1392.02 50.2068 1337.96 94.9304 1279.92 139.681C1221.88 184.421 1159.84 229.182 1101.83 229.182C1101.31 229.182 1100.79 229.182 1100.28 229.172C1043.25 228.419 1004.39 197.655 961.801 165.651C919.212 133.641 872.896 100.385 800.933 94.5675C795.661 94.1395 790.426 93.9228 785.225 93.9228C783.485 93.9228 781.746 93.9499 780.015 93.9933C713.194 95.9542 656.505 135.57 605.955 175.342C555.405 215.109 511.001 255.038 468.7 257.563C467.513 257.628 466.336 257.66 465.162 257.66C453.299 257.66 442.331 254.372 431.836 249.323C402.563 235.244 379.69 205.883 356.926 175.569C334.159 145.255 311.493 113.982 282.654 96.0518C268.005 87.0052 252.875 81.041 236.748 79.7029C231.91 79.3075 227.093 79.1179 222.297 79.1179C171.565 79.1125 123.125 100.288 74.8083 116.87C48.6255 125.857 22.907 134.497 0.00012207 142.113V141.832C22.89 134.226 48.5916 125.586 74.7533 116.61C123.062 100.033 171.519 78.847 222.297 78.847ZM1509.04 119.822C1510.65 123.381 1512.33 126.897 1514.1 130.347C1510.3 122.341 1506.78 114.21 1503.34 106.203C1502.77 104.86 1502.19 103.517 1501.62 102.184C1503.96 108.116 1506.41 114.026 1509.04 119.822ZM1468.92 28.0942C1458.2 12.4333 1444.41 2.27087 1423.79 2.27087C1382.56 2.26004 1325.67 52.3357 1266.31 102.433C1206.95 152.525 1145.11 202.639 1093.86 202.644C1042.62 202.644 1007 168.592 964.38 133.018C921.762 97.444 872.136 60.3368 792.845 54.1342C787.838 53.7442 782.898 53.5492 778.031 53.5492C703.4 53.5492 644.908 98.1319 594.472 142.731C544.036 187.319 501.663 231.945 459.214 231.956C437.299 231.956 418.297 219.963 400.574 201.815C373.99 174.6 350.273 133.533 323.875 98.2348C297.481 62.9424 268.41 33.4247 231.146 29.2589C224.045 28.468 216.796 28.0888 209.434 28.0942C142.077 28.0888 65.3771 59.6001 5.52209 91.1168C3.66455 92.0919 1.82385 93.0723 0.00012207 94.0474V93.7549C60.6108 61.3011 139.97 27.8233 209.434 27.8233C216.8 27.8233 224.053 28.1971 231.167 28.9934C280.962 34.5568 316.107 85.2717 349.745 134.551C366.564 159.193 383.004 183.484 400.705 201.604C418.407 219.73 437.362 231.685 459.214 231.685C501.54 231.691 543.909 187.113 594.354 142.503C644.799 97.9044 703.332 53.2837 778.031 53.2783C782.903 53.2783 787.846 53.4734 792.857 53.8634C872.195 60.066 921.872 97.211 964.498 132.791C1007.12 168.375 1042.7 202.373 1093.86 202.373C1145.01 202.379 1206.84 152.303 1266.2 102.211C1325.56 52.1191 1382.43 2.00543 1423.79 2C1444.46 1.9946 1458.33 12.2059 1469.08 27.9155C1481.37 45.8786 1489.6 71.0139 1499.33 96.3172C1504.95 109.28 1510.56 122.85 1517.04 135.905C1531.12 161.507 1550.49 182.861 1582.37 190.932C1591.21 193.175 1599.6 194.199 1607.57 194.199C1649.75 194.199 1680.55 165.624 1707.24 137.027C1733.92 108.435 1756.48 79.8059 1782.2 79.795C1810.33 79.8005 1854.48 108.63 1891.62 137.455C1898.73 142.964 1905.57 148.478 1912 153.787V154.112C1903.44 147.037 1894.14 139.605 1884.48 132.287C1848.93 105.38 1808.47 80.0605 1782.2 80.0659C1756.61 80.0551 1734.07 108.625 1707.37 137.233C1680.68 165.84 1649.83 194.47 1607.57 194.47C1599.58 194.47 1591.18 193.44 1582.33 191.203C1552.09 183.543 1533.07 163.939 1519.17 140.12C1534.5 169.833 1554.88 196.219 1590.85 205.818C1600.44 208.386 1609.57 209.578 1618.3 209.578C1626.87 209.578 1635.05 208.43 1642.9 206.301C1675.11 197.557 1700.72 173.007 1724.07 150.429C1747.41 127.85 1768.5 107.238 1791.68 106.442C1792.31 106.42 1792.96 106.409 1793.6 106.409C1824.28 106.415 1868.09 130.483 1904.24 154.551C1906.87 156.301 1909.46 158.05 1912 159.789V160.098C1907.25 156.842 1902.33 153.549 1897.28 150.282C1862.58 127.818 1822.29 106.675 1793.6 106.68C1792.96 106.68 1792.32 106.691 1791.68 106.713C1768.6 107.498 1747.54 128.061 1724.19 150.645C1700.85 173.224 1675.21 197.807 1642.94 206.561C1635.08 208.695 1626.88 209.849 1618.3 209.849C1609.56 209.849 1600.41 208.657 1590.8 206.084C1553.06 196.014 1532.43 167.46 1516.83 136.003C1509.95 123.473 1504.34 109.941 1499.15 96.4581C1491.68 79.2154 1484.22 63.0562 1474.72 50.6023C1463.45 35.8244 1449.32 26.2578 1428.9 26.2524C1387.29 26.2469 1331.81 73.6466 1273.1 121.068C1214.39 168.484 1152.43 215.921 1097.76 215.927C1097.53 215.927 1097.3 215.921 1097.07 215.921C1042.94 215.542 1005.69 183.137 963.093 149.351C920.487 115.559 872.516 80.3747 796.889 74.3617C791.751 73.95 786.668 73.7495 781.64 73.755C779.682 73.755 777.731 73.7821 775.789 73.8417C706.064 76.0789 649.13 118.164 599.116 160.022C549.106 201.875 506.024 243.505 463.959 244.773C463.393 244.789 462.832 244.795 462.27 244.795C449.622 244.795 437.987 240.883 426.901 234.616C399.46 219.09 376.933 188.24 354.165 156.425C331.398 124.605 308.381 91.821 279.978 72.4115C265.633 62.6445 250.46 56.1006 233.945 54.4971C228.047 53.9229 222.12 53.6521 216.171 53.6521C167.732 53.6521 117.848 71.5394 70.2278 89.7408C45.4677 99.2045 21.5306 109.242 0.00012207 118.728V118.441C21.5138 108.961 45.4297 98.9337 70.1644 89.4808C117.789 71.2794 167.69 53.3813 216.171 53.3813C222.124 53.3813 228.06 53.6521 233.961 54.2263C250.51 55.8297 265.713 62.3899 280.079 72.1732C308.525 91.6151 331.554 124.427 354.322 156.241C377.089 188.056 399.599 218.879 426.985 234.367C438.05 240.623 449.656 244.524 462.27 244.524C462.832 244.524 463.389 244.518 463.954 244.502C505.91 243.251 548.984 201.658 599.002 159.795C649.021 117.931 705.992 75.8135 775.785 73.5708C777.731 73.5112 779.682 73.4787 781.64 73.4787C786.673 73.4787 791.76 73.6791 796.902 74.0963C872.575 80.1038 920.597 115.32 963.202 149.118C1005.82 182.915 1043.01 215.277 1097.07 215.65C1097.3 215.656 1097.53 215.656 1097.76 215.656C1152.34 215.661 1214.28 168.256 1272.99 120.84C1331.7 73.4245 1387.17 25.9923 1428.9 25.9815C1449.38 25.9815 1463.57 35.5915 1474.87 50.4127C1483.59 61.8428 1490.59 76.3714 1497.44 91.9835C1496.8 90.2988 1496.17 88.614 1495.54 86.9348C1487.28 64.9359 1479.64 43.7604 1468.92 28.0942Z"/>
</mask>
<path d="M106.889 304.225C131.653 304.225 151.436 291.587 174.077 278.933C196.718 266.279 222.208 253.614 258.359 253.614C271.247 253.614 285.483 255.222 301.432 259.014C333.386 266.604 353.161 289.307 375.675 310.081C398.189 330.856 423.431 349.724 466.361 349.729C509.283 349.729 568.458 320.439 630.209 291.132C691.959 261.837 756.293 232.525 809.588 232.525C862.874 232.525 899.923 252.438 944.26 273.245C988.6 294.052 1040.24 315.764 1122.74 319.393C1127.94 319.621 1133.08 319.729 1138.14 319.729C1293.46 319.735 1381.56 215.396 1469.82 215.385C1515.39 215.385 1548.85 243.419 1583.84 272.243C1618.83 301.073 1655.35 330.688 1707.07 333.938C1714.46 334.404 1722.01 334.621 1729.66 334.621C1788.99 334.621 1855.28 321.414 1912 306.181V306.457C1855.28 321.69 1789 334.892 1729.67 334.892C1722 334.892 1714.46 334.675 1707.06 334.209C1655.28 330.959 1618.72 301.3 1583.72 272.47C1548.73 243.646 1515.31 215.65 1469.82 215.656C1381.69 215.64 1293.54 319.995 1138.14 320C1133.08 320 1127.94 319.892 1122.73 319.664C1040.21 316.035 988.532 294.312 944.188 273.5C899.843 252.687 862.832 232.796 809.588 232.796C756.352 232.796 692.031 262.086 630.28 291.387C568.53 320.688 509.354 349.995 466.361 350C423.384 350 398.071 331.089 375.552 310.304C353.026 289.513 333.285 266.853 301.394 259.28C285.458 255.493 271.23 253.884 258.359 253.884C222.246 253.884 196.798 266.528 174.161 279.177C151.529 291.826 131.712 304.491 106.889 304.496C77.6411 304.491 40.1396 284.166 9.94202 263.852C6.52673 261.555 3.20435 259.258 0.00012207 256.988V256.68C5.00696 260.222 10.2925 263.836 15.7806 267.411C44.8765 286.382 79.5409 304.225 106.889 304.225ZM102.3 277.915C127.102 276.452 147.725 264.399 170.746 252.644C193.763 240.889 219.177 229.442 253.546 229.237C253.782 229.237 254.019 229.237 254.251 229.237C267.862 229.237 282.562 231.561 298.764 236.192C330.279 245.266 350.459 268.944 373.003 290.954C395.551 312.963 420.454 333.321 461.443 335.84C463.608 335.975 465.816 336.04 468.062 336.04C477.151 336.04 486.866 334.935 497.129 332.595C584.467 312.492 706.461 213.76 805.362 213.191C805.636 213.191 805.915 213.191 806.189 213.191C812.716 213.191 819.044 213.495 825.212 214.074C875.239 218.738 911.656 240.455 954.143 261.755C996.63 283.056 1045.19 303.938 1119.53 306.961C1123.62 307.124 1127.68 307.205 1131.69 307.205C1207.14 307.205 1268.42 278.473 1321.83 249.735C1375.24 220.997 1420.77 192.243 1464.7 192.243C1502.86 192.243 1530.6 213.89 1558.12 239.22C1585.63 264.551 1612.93 293.565 1650.21 308.359C1665.46 314.437 1681.55 318.207 1699.05 318.516C1700.39 318.543 1701.73 318.554 1703.07 318.554C1753.84 318.554 1807.2 301.755 1858.05 291.338C1876.46 287.563 1894.65 283.83 1912 280.266V280.542C1894.66 284.101 1876.48 287.833 1858.08 291.604C1807.24 302.021 1753.88 318.825 1703.07 318.825C1701.73 318.825 1700.39 318.814 1699.05 318.787C1681.53 318.478 1665.41 314.702 1650.15 308.619C1612.82 293.803 1585.5 264.762 1557.99 239.442C1530.48 214.117 1502.79 192.514 1464.7 192.514C1420.85 192.514 1375.33 221.241 1321.91 249.984C1268.5 278.727 1207.18 307.476 1131.69 307.476C1127.68 307.476 1123.62 307.395 1119.52 307.232C1045.16 304.209 996.562 283.31 954.066 262.01C911.571 240.705 875.18 219.004 825.195 214.345C819.036 213.765 812.712 213.462 806.189 213.462C805.915 213.462 805.641 213.462 805.362 213.462C706.558 214.015 584.572 312.73 497.162 332.866C486.891 335.2 477.168 336.311 468.062 336.311C465.812 336.311 463.604 336.246 461.43 336.111C420.391 333.592 395.428 313.191 372.876 291.17C350.324 269.144 330.17 245.51 298.718 236.458C282.528 231.826 267.84 229.507 254.251 229.507C254.019 229.507 253.782 229.507 253.55 229.507C219.215 229.713 193.839 241.143 170.822 252.893C147.81 264.643 127.161 276.723 102.308 278.186C100.636 278.283 98.9479 278.332 97.238 278.332C66.1116 278.326 29.0494 262.438 0.00012207 246.718V246.42C29.0494 262.151 66.1327 278.061 97.238 278.061C98.9436 278.061 100.632 278.012 102.3 277.915ZM97.7067 251.376C122.496 248.559 143.892 236.869 167.25 225.883C190.605 214.892 215.922 204.605 248.531 204.605C249.269 204.605 250.008 204.61 250.751 204.621C264.949 204.822 279.915 207.709 296.092 213.142C327.172 223.695 347.774 248.435 370.36 271.728C392.946 295.016 417.508 316.869 456.52 321.728C460.974 322.281 465.576 322.584 470.325 322.584C477.354 322.584 484.713 321.918 492.388 320.396C535.812 311.598 586.827 280.19 640.066 250.84C693.306 221.485 748.779 194.188 801.136 193.63C801.681 193.625 802.221 193.625 802.761 193.625C809.031 193.625 815.156 193.906 821.168 194.459C874.859 199.312 912.935 222.964 955.439 246.046C997.942 269.134 1044.88 291.658 1116.32 294.296C1119.5 294.415 1122.66 294.475 1125.8 294.475C1198.76 294.475 1260.36 263.083 1314.65 231.685C1368.93 200.288 1415.9 168.879 1459.59 168.874C1498.15 168.874 1524.18 192.92 1550.32 220.58C1576.46 248.245 1602.71 279.529 1641.73 294.09C1656.57 299.67 1671.81 302.909 1687.92 302.909C1688.95 302.909 1689.99 302.898 1691.03 302.871C1744.78 301.479 1797.22 274.832 1848.56 265.309C1869.97 261.333 1891.56 258.224 1912 255.791V256.062C1891.57 258.494 1869.99 261.604 1848.59 265.574C1797.29 275.092 1744.84 301.75 1691.03 303.142C1689.99 303.164 1688.95 303.18 1687.92 303.18C1671.79 303.18 1656.52 299.935 1641.67 294.35C1602.6 279.767 1576.32 248.446 1550.18 220.791C1524.05 193.132 1498.07 169.145 1459.59 169.145C1415.98 169.139 1369.02 200.531 1314.73 231.934C1260.44 263.332 1198.81 294.746 1125.8 294.746C1122.66 294.746 1119.5 294.686 1116.31 294.567C1044.84 291.929 997.866 269.383 955.354 246.295C912.846 223.207 874.8 199.583 821.151 194.73C815.144 194.177 809.026 193.895 802.761 193.895C802.221 193.895 801.681 193.895 801.14 193.901C748.834 194.459 693.386 221.739 640.151 251.089C586.911 280.434 535.892 311.853 492.421 320.661C484.734 322.189 477.367 322.855 470.325 322.855C465.567 322.855 460.957 322.552 456.499 321.994C417.432 317.134 392.819 295.239 370.229 271.94C347.635 248.635 327.058 223.939 296.041 213.402C279.877 207.974 264.923 205.093 250.747 204.892C250.004 204.881 249.269 204.876 248.531 204.876C215.956 204.876 190.672 215.147 167.322 226.138C143.972 237.124 122.556 248.825 97.7236 251.647C93.2318 252.156 88.6342 252.395 83.9692 252.395C55.9077 252.395 25.3302 243.798 0.00012207 234.237V233.955C25.3302 243.516 55.9161 252.129 83.9692 252.124C88.63 252.124 93.2231 251.891 97.7067 251.376ZM93.1177 224.627C142.621 216.458 181.617 179.724 243.574 179.724C245.022 179.724 246.479 179.741 247.952 179.784C262.542 180.19 277.546 183.717 293.424 189.876C324.065 201.913 345.097 227.806 367.726 252.416C390.358 277.037 414.578 300.379 451.598 307.395C457.968 308.603 464.609 309.345 471.545 309.345C476.746 309.345 482.108 308.928 487.647 307.974C530.839 300.558 580.532 267.454 633.231 235.986C685.931 204.518 741.644 174.692 796.91 173.852C797.712 173.841 798.51 173.836 799.304 173.836C805.333 173.836 811.264 174.101 817.124 174.627C874.479 179.676 914.214 205.255 956.735 230.125C999.255 254.99 1044.57 279.155 1113.11 281.42C1115.54 281.501 1117.96 281.544 1120.37 281.544C1190.62 281.544 1252.45 247.492 1307.55 213.429C1362.66 179.367 1411.06 145.293 1454.47 145.288C1493.43 145.288 1517.76 171.729 1542.52 201.723C1567.29 231.723 1592.5 265.277 1633.25 279.61C1647.11 284.529 1661.04 287.265 1675.34 287.265C1677.88 287.265 1680.44 287.178 1683.01 287.005C1738.56 283.202 1788.59 247.384 1839.08 239.058C1863.26 235.071 1888.42 233.467 1912 233.191V233.462C1888.43 233.738 1863.28 235.342 1839.11 239.329C1788.67 247.639 1738.63 283.462 1683.02 287.275C1680.45 287.449 1677.89 287.535 1675.34 287.535C1661.02 287.535 1647.07 284.8 1633.2 279.87C1592.38 265.515 1567.14 231.913 1542.38 201.924C1517.61 171.929 1493.35 145.559 1454.47 145.559C1411.14 145.553 1362.76 179.605 1307.65 213.673C1252.53 247.736 1190.68 281.815 1120.37 281.815C1117.96 281.815 1115.54 281.772 1113.11 281.69C1044.52 279.426 999.171 255.244 956.646 230.369C914.117 205.499 874.42 179.946 817.107 174.898C811.255 174.372 805.328 174.107 799.304 174.107C798.51 174.107 797.712 174.112 796.914 174.118C741.707 174.957 686.015 204.768 633.32 236.23C580.625 267.693 530.927 300.813 487.676 308.245C482.129 309.198 476.755 309.616 471.545 309.616C464.6 309.616 457.947 308.873 451.564 307.665C414.489 300.639 390.223 277.248 367.59 252.628C344.954 228.001 323.942 202.151 293.36 190.136C277.5 183.982 262.513 180.461 247.948 180.055C246.479 180.011 245.018 179.995 243.574 179.995C181.689 179.99 142.718 216.701 93.1431 224.892C83.5514 226.479 73.6304 227.156 63.663 227.156C41.6891 227.156 19.4789 223.852 0.00012207 219.594V219.318C19.4789 223.576 41.6934 226.886 63.663 226.886C73.6219 226.886 83.5344 226.208 93.1177 224.627ZM88.5245 197.731C137.889 187.2 179.662 154.676 238.538 154.67C240.72 154.67 242.924 154.714 245.153 154.806C260.136 155.429 275.182 159.589 290.756 166.469C320.958 179.99 342.421 207.119 365.095 233.099C387.77 259.085 411.648 283.922 446.675 292.925C454.477 294.93 462.625 296.246 471.22 296.246C475.028 296.246 478.92 295.986 482.91 295.417C525.853 289.269 574.225 254.464 626.388 220.911C678.551 187.357 734.514 155.049 792.684 153.928C793.735 153.912 794.778 153.906 795.821 153.906C801.626 153.906 807.371 154.156 813.079 154.654C874.095 159.898 915.489 187.406 958.026 214.058C1000.57 240.71 1044.25 266.512 1109.9 268.402C1111.71 268.456 1113.52 268.478 1115.31 268.478C1182.69 268.483 1244.64 231.766 1300.54 195.038C1356.43 158.311 1406.24 121.566 1449.36 121.561C1488.72 121.561 1511.34 150.402 1534.72 182.731C1558.12 215.06 1582.29 250.883 1624.77 264.984C1637.72 269.329 1650.5 271.636 1663.33 271.636C1667.21 271.636 1671.09 271.425 1674.99 270.997C1732.34 264.681 1779.94 219.762 1829.6 212.671C1841.75 210.938 1854.37 210.206 1867.05 210.206C1882.21 210.206 1897.44 211.252 1912 212.899V213.169C1897.44 211.528 1882.21 210.477 1867.05 210.477C1854.38 210.477 1841.76 211.208 1829.62 212.942C1780.04 220.006 1732.43 264.93 1675 271.268C1671.1 271.696 1667.22 271.907 1663.33 271.907C1650.48 271.907 1637.68 269.599 1624.72 265.249C1582.16 251.122 1557.95 215.233 1534.57 182.915C1511.18 150.586 1488.62 121.837 1449.36 121.832C1406.33 121.826 1356.52 158.543 1300.63 195.277C1244.74 232.01 1182.75 268.749 1115.31 268.749C1113.51 268.749 1111.71 268.727 1109.9 268.673C1044.21 266.788 1000.48 240.954 957.934 214.302C915.392 187.644 874.04 160.163 813.062 154.925C807.363 154.426 801.622 154.177 795.821 154.177C794.778 154.177 793.735 154.183 792.688 154.199C734.577 155.315 678.64 187.601 626.481 221.149C574.322 254.702 525.946 289.524 482.931 295.683C478.937 296.257 475.036 296.517 471.22 296.517C462.612 296.517 454.443 295.195 446.633 293.191C411.547 284.171 387.631 259.291 364.956 233.299C342.277 207.308 320.831 180.217 290.684 166.729C275.127 159.849 260.102 155.694 245.149 155.076C242.92 154.984 240.716 154.941 238.538 154.941C179.726 154.941 137.977 187.449 88.5583 198.002C68.3829 202.303 47.3125 203.858 27.4241 203.858C17.938 203.858 8.72205 203.5 0.00012207 202.926V202.655C8.72205 203.229 17.938 203.587 27.4241 203.587C47.304 203.587 68.3617 202.032 88.5245 197.731ZM233.366 129.492C236.33 129.492 239.327 129.573 242.359 129.735C257.734 130.58 272.814 135.364 288.088 142.969C317.851 157.969 339.736 186.42 362.453 213.809C385.165 241.198 408.701 267.53 441.753 278.359C450.644 281.273 459.927 283.24 469.806 283.24C472.546 283.24 475.332 283.088 478.169 282.763C520.871 277.871 567.913 241.371 619.54 205.732C671.167 170.093 727.383 135.315 788.463 133.917C789.746 133.89 791.034 133.879 792.317 133.879C797.906 133.879 803.475 134.118 809.035 134.594C873.715 140.022 916.764 169.459 959.323 197.899C1001.88 226.338 1043.94 253.781 1106.69 255.287C1107.98 255.32 1109.28 255.336 1110.57 255.336C1174.91 255.342 1236.94 215.954 1293.58 176.555C1350.22 137.162 1401.45 97.7473 1444.25 97.7419C1464.12 97.7419 1479.29 105.553 1492.24 117.693C1511.66 135.911 1526.09 163.863 1543.96 189.849C1561.83 215.835 1583.13 239.865 1616.29 250.271C1628.36 254.096 1640.12 256.046 1651.7 256.046C1656.82 256.046 1661.9 255.667 1666.96 254.897C1696.54 250.423 1722.62 234.702 1747.41 219.372C1772.2 204.042 1795.7 189.09 1820.12 186.187C1826.45 185.434 1833 185.093 1839.67 185.093C1863.36 185.093 1888.68 189.432 1912 195.255V195.531C1888.68 189.703 1863.36 185.364 1839.67 185.364C1833 185.364 1826.47 185.705 1820.14 186.458C1795.78 189.351 1772.3 204.28 1747.5 219.616C1722.71 234.946 1696.6 250.688 1666.99 255.168C1661.92 255.938 1656.83 256.317 1651.7 256.317C1640.1 256.317 1628.33 254.361 1616.24 250.531C1571.95 236.636 1548.77 198.467 1526.76 163.809C1515.76 146.485 1505.04 130.028 1492.12 117.915C1479.2 105.797 1464.08 98.0128 1444.25 98.0128C1401.54 98.0074 1350.32 137.395 1293.68 176.794C1237.04 216.192 1174.98 255.607 1110.57 255.607C1109.28 255.607 1107.98 255.591 1106.69 255.558C1043.89 254.052 1001.78 226.577 959.225 198.137C916.667 169.697 873.656 140.293 809.018 134.86C803.466 134.383 797.902 134.15 792.317 134.15C791.034 134.15 789.75 134.161 788.463 134.188C727.451 135.58 671.264 170.331 619.642 205.97C568.019 241.604 520.968 278.126 478.19 283.034C475.345 283.359 472.55 283.511 469.806 283.511C459.902 283.511 450.601 281.539 441.702 278.619C408.591 267.774 385.022 241.398 362.305 214.004C339.588 186.609 317.72 158.197 288.007 143.224C272.755 135.624 257.696 130.851 242.346 130.006C239.319 129.844 236.326 129.762 233.366 129.762C177.442 129.762 133.152 158.273 83.9778 171.008C55.2535 178.446 25.6594 182.362 0.00012207 184.361V184.091C25.651 182.092 55.228 178.18 83.9355 170.743C133.072 158.023 177.383 129.492 233.366 129.492ZM227.988 104.21C231.808 104.21 235.663 104.34 239.559 104.605C255.327 105.689 270.445 111.079 285.415 119.41C314.743 135.889 337.038 165.732 359.78 194.567C382.527 223.402 405.721 251.23 436.83 263.733C446.582 267.649 456.748 270.293 467.661 270.293C469.561 270.293 471.486 270.217 473.432 270.049C515.881 266.403 561.606 228.202 612.693 190.483C663.788 152.758 720.253 115.521 784.237 113.842C785.752 113.804 787.268 113.787 788.783 113.787C794.174 113.787 799.574 114.009 804.99 114.464C873.335 120.093 918.043 151.452 960.614 181.674C1003.19 211.902 1043.63 240.986 1103.48 242.118C1104.35 242.135 1105.22 242.14 1106.09 242.14C1167.28 242.146 1229.32 200.087 1286.67 158.018C1344.03 115.954 1396.67 73.8687 1439.13 73.8633C1459.2 73.8633 1474.05 82.2707 1486.45 95.3042C1505.05 114.86 1518.15 144.8 1535.23 172.395C1552.31 199.995 1573.34 225.255 1607.81 235.493C1619.03 238.852 1629.84 240.499 1640.35 240.499C1646.65 240.499 1652.84 239.908 1658.94 238.738C1689.41 232.899 1715.33 214.253 1739.64 196.496C1763.95 178.744 1786.64 161.88 1810.64 159.643C1814.01 159.334 1817.46 159.183 1820.98 159.183C1849.5 159.183 1882.69 168.933 1912 180.477V180.764C1882.69 169.215 1849.48 159.453 1820.98 159.453C1817.46 159.453 1814.01 159.605 1810.65 159.914C1786.72 162.14 1764.05 178.977 1739.74 196.734C1715.43 214.486 1689.49 233.153 1658.97 239.004C1652.86 240.179 1646.66 240.77 1640.35 240.77C1629.82 240.77 1618.99 239.117 1607.76 235.753C1561.73 222.086 1539.59 181.637 1518.96 144.649C1508.64 126.149 1498.69 108.517 1486.32 95.5155C1473.95 82.5144 1459.16 74.1341 1439.13 74.1341C1396.78 74.1287 1344.13 116.182 1286.78 158.256C1229.43 200.326 1167.35 242.411 1106.09 242.411C1105.22 242.411 1104.35 242.406 1103.48 242.389C1043.57 241.257 1003.08 212.135 960.513 181.913C917.937 151.691 873.276 120.358 804.978 114.735C799.566 114.28 794.17 114.058 788.783 114.058C787.268 114.058 785.752 114.074 784.241 114.112C720.32 115.786 663.885 152.996 612.798 190.716C561.712 228.429 515.987 266.658 473.445 270.32C471.494 270.488 469.565 270.564 467.661 270.564C456.723 270.564 446.532 267.915 436.767 263.993C405.598 251.463 382.383 223.597 359.633 194.757C336.886 165.916 314.608 136.111 285.331 119.659C270.382 111.333 255.285 105.96 239.547 104.876C235.659 104.611 231.804 104.481 227.988 104.481C174.757 104.481 128.213 129.21 79.3931 143.961C51.8804 152.27 24.2875 158.912 0.00012207 164.036V163.766C24.2748 158.641 51.851 152 79.3468 143.695C128.141 128.955 174.706 104.215 227.988 104.21ZM222.297 78.847C227.097 78.847 231.918 79.0366 236.76 79.4321C252.921 80.7701 268.081 86.7506 282.747 95.808C311.632 113.771 334.311 145.071 357.078 175.38C379.842 205.694 402.694 235.017 431.908 249.069C442.39 254.107 453.329 257.389 465.162 257.389C466.331 257.389 467.505 257.357 468.691 257.292C510.891 254.784 555.291 214.892 605.845 175.114C656.4 135.337 713.122 95.6834 780.011 93.7224C781.746 93.6791 783.481 93.652 785.225 93.652C790.43 93.652 795.669 93.8687 800.946 94.2966C872.955 100.115 919.318 133.408 961.91 165.418C1004.5 197.427 1043.32 228.148 1100.28 228.901C1100.8 228.912 1101.31 228.912 1101.83 228.912C1159.76 228.917 1221.77 184.188 1279.81 139.448C1337.86 94.7083 1391.91 49.9468 1434.02 49.9414C1454.29 49.9414 1468.81 58.95 1480.66 72.8774C1498.44 93.7657 1510.22 125.694 1526.5 154.909C1542.79 184.118 1563.56 210.613 1599.33 220.672C1609.72 223.614 1619.66 225.017 1629.22 225.017C1636.67 225.017 1643.89 224.166 1650.92 222.536C1682.26 215.277 1708.03 193.684 1731.86 173.516C1755.68 153.348 1777.57 134.6 1801.16 133.061C1802.82 132.953 1804.52 132.899 1806.24 132.899C1837.6 132.904 1878.1 150.347 1912 168.668V168.955C1878.1 150.629 1837.57 133.17 1806.24 133.17C1804.52 133.17 1802.83 133.224 1801.17 133.332C1777.66 134.86 1755.8 153.571 1731.97 173.744C1708.15 193.912 1682.35 215.526 1650.96 222.801C1643.91 224.437 1636.68 225.288 1629.22 225.288C1619.64 225.288 1609.69 223.884 1599.28 220.938C1551.51 207.498 1530.41 164.768 1511.15 125.445C1501.52 105.781 1492.34 86.9673 1480.52 73.0778C1468.7 59.1884 1454.24 50.2123 1434.02 50.2123C1392.02 50.2068 1337.96 94.9304 1279.92 139.681C1221.88 184.421 1159.84 229.182 1101.83 229.182C1101.31 229.182 1100.79 229.182 1100.28 229.172C1043.25 228.419 1004.39 197.655 961.801 165.651C919.212 133.641 872.896 100.385 800.933 94.5675C795.661 94.1395 790.426 93.9228 785.225 93.9228C783.485 93.9228 781.746 93.9499 780.015 93.9933C713.194 95.9542 656.505 135.57 605.955 175.342C555.405 215.109 511.001 255.038 468.7 257.563C467.513 257.628 466.336 257.66 465.162 257.66C453.299 257.66 442.331 254.372 431.836 249.323C402.563 235.244 379.69 205.883 356.926 175.569C334.159 145.255 311.493 113.982 282.654 96.0518C268.005 87.0052 252.875 81.041 236.748 79.7029C231.91 79.3075 227.093 79.1179 222.297 79.1179C171.565 79.1125 123.125 100.288 74.8083 116.87C48.6255 125.857 22.907 134.497 0.00012207 142.113V141.832C22.89 134.226 48.5916 125.586 74.7533 116.61C123.062 100.033 171.519 78.847 222.297 78.847ZM1509.04 119.822C1510.65 123.381 1512.33 126.897 1514.1 130.347C1510.3 122.341 1506.78 114.21 1503.34 106.203C1502.77 104.86 1502.19 103.517 1501.62 102.184C1503.96 108.116 1506.41 114.026 1509.04 119.822ZM1468.92 28.0942C1458.2 12.4333 1444.41 2.27087 1423.79 2.27087C1382.56 2.26004 1325.67 52.3357 1266.31 102.433C1206.95 152.525 1145.11 202.639 1093.86 202.644C1042.62 202.644 1007 168.592 964.38 133.018C921.762 97.444 872.136 60.3368 792.845 54.1342C787.838 53.7442 782.898 53.5492 778.031 53.5492C703.4 53.5492 644.908 98.1319 594.472 142.731C544.036 187.319 501.663 231.945 459.214 231.956C437.299 231.956 418.297 219.963 400.574 201.815C373.99 174.6 350.273 133.533 323.875 98.2348C297.481 62.9424 268.41 33.4247 231.146 29.2589C224.045 28.468 216.796 28.0888 209.434 28.0942C142.077 28.0888 65.3771 59.6001 5.52209 91.1168C3.66455 92.0919 1.82385 93.0723 0.00012207 94.0474V93.7549C60.6108 61.3011 139.97 27.8233 209.434 27.8233C216.8 27.8233 224.053 28.1971 231.167 28.9934C280.962 34.5568 316.107 85.2717 349.745 134.551C366.564 159.193 383.004 183.484 400.705 201.604C418.407 219.73 437.362 231.685 459.214 231.685C501.54 231.691 543.909 187.113 594.354 142.503C644.799 97.9044 703.332 53.2837 778.031 53.2783C782.903 53.2783 787.846 53.4734 792.857 53.8634C872.195 60.066 921.872 97.211 964.498 132.791C1007.12 168.375 1042.7 202.373 1093.86 202.373C1145.01 202.379 1206.84 152.303 1266.2 102.211C1325.56 52.1191 1382.43 2.00543 1423.79 2C1444.46 1.9946 1458.33 12.2059 1469.08 27.9155C1481.37 45.8786 1489.6 71.0139 1499.33 96.3172C1504.95 109.28 1510.56 122.85 1517.04 135.905C1531.12 161.507 1550.49 182.861 1582.37 190.932C1591.21 193.175 1599.6 194.199 1607.57 194.199C1649.75 194.199 1680.55 165.624 1707.24 137.027C1733.92 108.435 1756.48 79.8059 1782.2 79.795C1810.33 79.8005 1854.48 108.63 1891.62 137.455C1898.73 142.964 1905.57 148.478 1912 153.787V154.112C1903.44 147.037 1894.14 139.605 1884.48 132.287C1848.93 105.38 1808.47 80.0605 1782.2 80.0659C1756.61 80.0551 1734.07 108.625 1707.37 137.233C1680.68 165.84 1649.83 194.47 1607.57 194.47C1599.58 194.47 1591.18 193.44 1582.33 191.203C1552.09 183.543 1533.07 163.939 1519.17 140.12C1534.5 169.833 1554.88 196.219 1590.85 205.818C1600.44 208.386 1609.57 209.578 1618.3 209.578C1626.87 209.578 1635.05 208.43 1642.9 206.301C1675.11 197.557 1700.72 173.007 1724.07 150.429C1747.41 127.85 1768.5 107.238 1791.68 106.442C1792.31 106.42 1792.96 106.409 1793.6 106.409C1824.28 106.415 1868.09 130.483 1904.24 154.551C1906.87 156.301 1909.46 158.05 1912 159.789V160.098C1907.25 156.842 1902.33 153.549 1897.28 150.282C1862.58 127.818 1822.29 106.675 1793.6 106.68C1792.96 106.68 1792.32 106.691 1791.68 106.713C1768.6 107.498 1747.54 128.061 1724.19 150.645C1700.85 173.224 1675.21 197.807 1642.94 206.561C1635.08 208.695 1626.88 209.849 1618.3 209.849C1609.56 209.849 1600.41 208.657 1590.8 206.084C1553.06 196.014 1532.43 167.46 1516.83 136.003C1509.95 123.473 1504.34 109.941 1499.15 96.4581C1491.68 79.2154 1484.22 63.0562 1474.72 50.6023C1463.45 35.8244 1449.32 26.2578 1428.9 26.2524C1387.29 26.2469 1331.81 73.6466 1273.1 121.068C1214.39 168.484 1152.43 215.921 1097.76 215.927C1097.53 215.927 1097.3 215.921 1097.07 215.921C1042.94 215.542 1005.69 183.137 963.093 149.351C920.487 115.559 872.516 80.3747 796.889 74.3617C791.751 73.95 786.668 73.7495 781.64 73.755C779.682 73.755 777.731 73.7821 775.789 73.8417C706.064 76.0789 649.13 118.164 599.116 160.022C549.106 201.875 506.024 243.505 463.959 244.773C463.393 244.789 462.832 244.795 462.27 244.795C449.622 244.795 437.987 240.883 426.901 234.616C399.46 219.09 376.933 188.24 354.165 156.425C331.398 124.605 308.381 91.821 279.978 72.4115C265.633 62.6445 250.46 56.1006 233.945 54.4971C228.047 53.9229 222.12 53.6521 216.171 53.6521C167.732 53.6521 117.848 71.5394 70.2278 89.7408C45.4677 99.2045 21.5306 109.242 0.00012207 118.728V118.441C21.5138 108.961 45.4297 98.9337 70.1644 89.4808C117.789 71.2794 167.69 53.3813 216.171 53.3813C222.124 53.3813 228.06 53.6521 233.961 54.2263C250.51 55.8297 265.713 62.3899 280.079 72.1732C308.525 91.6151 331.554 124.427 354.322 156.241C377.089 188.056 399.599 218.879 426.985 234.367C438.05 240.623 449.656 244.524 462.27 244.524C462.832 244.524 463.389 244.518 463.954 244.502C505.91 243.251 548.984 201.658 599.002 159.795C649.021 117.931 705.992 75.8135 775.785 73.5708C777.731 73.5112 779.682 73.4787 781.64 73.4787C786.673 73.4787 791.76 73.6791 796.902 74.0963C872.575 80.1038 920.597 115.32 963.202 149.118C1005.82 182.915 1043.01 215.277 1097.07 215.65C1097.3 215.656 1097.53 215.656 1097.76 215.656C1152.34 215.661 1214.28 168.256 1272.99 120.84C1331.7 73.4245 1387.17 25.9923 1428.9 25.9815C1449.38 25.9815 1463.57 35.5915 1474.87 50.4127C1483.59 61.8428 1490.59 76.3714 1497.44 91.9835C1496.8 90.2988 1496.17 88.614 1495.54 86.9348C1487.28 64.9359 1479.64 43.7604 1468.92 28.0942Z" stroke="url(#paint0_linear_88_17)" stroke-width="3" mask="url(#path-1-outside-1_88_17)"/>
</g>
<defs>
<linearGradient id="paint0_linear_88_17" x1="955.484" y1="392.342" x2="956.333" y2="2.00073" gradientUnits="userSpaceOnUse">
<stop stop-color="#FF8A00"/>
<stop offset="1" stop-color="#FAFF00"/>
</linearGradient>
</defs>
</svg>
